<svg width="24" height="21" viewBox="0 0 24 21" fill="none" xmlns="http://www.w3.org/2000/svg">
<circle cx="10.4338" cy="10.4338" r="9.43377" stroke="black" stroke-width="2"/>
<g filter="url(#filter0_f_56_1202)">
<path d="M5.43514 10.9386C5.13372 10.6198 5.14531 10.1155 5.46412 9.81405C6.05537 9.25178 8.58846 10.6198 9.41157 10.9444C12.2113 4.81163 23.2885 1.88438 20.5757 4.35371C18.3788 5.5304 16.3558 7.0433 14.6227 8.83443C12.9533 10.5618 11.5621 12.5384 10.5477 14.7237C10.5071 14.8107 10.4491 14.8976 10.3738 14.9672C10.055 15.2686 9.55068 15.257 9.24926 14.9382L5.43514 10.9444V10.9386Z" fill="#B1FA16"/>
<path d="M9.61086 14.5929L5.93514 10.744V10.7396L5.79846 10.5951C5.68924 10.4795 5.69126 10.3018 5.79435 10.1908C5.80168 10.1888 5.81354 10.1863 5.83113 10.1841C5.89418 10.1763 5.99338 10.1784 6.13431 10.2013C6.4163 10.2472 6.77586 10.3608 7.17104 10.5132C7.56135 10.6636 7.96228 10.8423 8.3234 11.0068C8.39163 11.0378 8.45917 11.0688 8.52534 11.0991C8.79918 11.2244 9.04957 11.3391 9.22813 11.4095L9.66941 11.5835L9.86641 11.152C11.1878 8.2576 14.5138 6.05709 17.2575 4.88294C18.4948 4.35346 19.5508 4.06016 20.1914 3.99299C18.0074 5.18168 15.9945 6.69767 14.2633 8.48674L14.2631 8.48696C12.5579 10.2514 11.1339 12.2735 10.0944 14.5127C10.0756 14.5529 10.0531 14.5827 10.0347 14.5998L10.0346 14.5997L10.0303 14.6038C9.90999 14.7176 9.72227 14.7107 9.61259 14.5947L9.61086 14.5929ZM5.78471 10.1939C5.7847 10.1939 5.78495 10.1938 5.78548 10.1936L5.78471 10.1939ZM20.6506 3.99905C20.6506 3.99905 20.6504 3.99897 20.65 3.99881L20.6506 3.99905ZM20.511 3.67376C20.5111 3.67372 20.5105 3.67542 20.5088 3.67899C20.51 3.67559 20.5108 3.67381 20.511 3.67376Z" stroke="#B1FA16"/>
</g>
<path d="M5.43514 10.9386C5.13372 10.6198 5.14531 10.1155 5.46412 9.81405C6.05537 9.25178 8.58846 10.6198 9.41157 10.9444C12.2113 4.81163 23.2885 1.88438 20.5757 4.35371C18.3788 5.5304 16.3558 7.0433 14.6227 8.83443C12.9533 10.5618 11.5621 12.5384 10.5477 14.7237C10.5071 14.8107 10.4491 14.8976 10.3738 14.9672C10.055 15.2686 9.55068 15.257 9.24926 14.9382L5.43514 10.9444V10.9386Z" fill="black"/>
<defs>
<filter id="filter0_f_56_1202" x="2.2168" y="0.478027" width="21.7832" height="17.7075" filterUnits="userSpaceOnUse" color-interpolation-filters="sRGB">
<feFlood flood-opacity="0" result="BackgroundImageFix"/>
<feBlend mode="normal" in="SourceGraphic" in2="BackgroundImageFix" result="shape"/>
<feGaussianBlur stdDeviation="1.5" result="effect1_foregroundBlur_56_1202"/>
</filter>
</defs>
</svg>
