<svg width="96" height="96" viewBox="0 0 96 96" fill="none" xmlns="http://www.w3.org/2000/svg">
<g filter="url(#filter0_bdd_28_104)">
<circle cx="48" cy="38" r="18" fill="#F9FCFF" fill-opacity="0.19" shape-rendering="crispEdges"/>
<circle cx="48" cy="38" r="17.5" stroke="white" shape-rendering="crispEdges"/>
</g>
<g filter="url(#filter1_f_28_104)">
<path d="M39.3767 38.8707C38.8567 38.3207 38.8767 37.4507 39.4267 36.9307C40.4467 35.9607 44.8167 38.3207 46.2367 38.8807C51.0667 28.3007 70.1767 23.2507 65.4967 27.5107C61.7067 29.5407 58.2167 32.1507 55.2267 35.2407C52.3467 38.2207 49.9467 41.6307 48.1967 45.4007C48.1267 45.5507 48.0267 45.7007 47.8967 45.8207C47.3467 46.3407 46.4767 46.3207 45.9567 45.7707L39.3767 38.8807V38.8707Z" fill="#B1FA16"/>
</g>
<path d="M39.3767 38.8707C38.8567 38.3207 38.8767 37.4507 39.4267 36.9307C40.4467 35.9607 44.8167 38.3207 46.2367 38.8807C51.0667 28.3007 70.1767 23.2507 65.4967 27.5107C61.7067 29.5407 58.2167 32.1507 55.2267 35.2407C52.3467 38.2207 49.9467 41.6307 48.1967 45.4007C48.1267 45.5507 48.0267 45.7007 47.8967 45.8207C47.3467 46.3407 46.4767 46.3207 45.9567 45.7707L39.3767 38.8807V38.8707Z" fill="#B1FA16"/>
<defs>
<filter id="filter0_bdd_28_104" x="0" y="0" width="96" height="96" filterUnits="userSpaceOnUse" color-interpolation-filters="sRGB">
<feFlood flood-opacity="0" result="BackgroundImageFix"/>
<feGaussianBlur in="BackgroundImageFix" stdDeviation="7.5"/>
<feComposite in2="SourceAlpha" operator="in" result="effect1_backgroundBlur_28_104"/>
<feColorMatrix in="SourceAlpha" type="matrix" values="0 0 0 0 0 0 0 0 0 0 0 0 0 0 0 0 0 0 127 0" result="hardAlpha"/>
<feOffset dy="10"/>
<feGaussianBlur stdDeviation="15"/>
<feComposite in2="hardAlpha" operator="out"/>
<feColorMatrix type="matrix" values="0 0 0 0 0 0 0 0 0 0 0 0 0 0 0 0 0 0 0.08 0"/>
<feBlend mode="normal" in2="effect1_backgroundBlur_28_104" result="effect2_dropShadow_28_104"/>
<feColorMatrix in="SourceAlpha" type="matrix" values="0 0 0 0 0 0 0 0 0 0 0 0 0 0 0 0 0 0 127 0" result="hardAlpha"/>
<feOffset dy="2"/>
<feGaussianBlur stdDeviation="2.5"/>
<feComposite in2="hardAlpha" operator="out"/>
<feColorMatrix type="matrix" values="0 0 0 0 1 0 0 0 0 1 0 0 0 0 1 0 0 0 0.6 0"/>
<feBlend mode="normal" in2="effect2_dropShadow_28_104" result="effect3_dropShadow_28_104"/>
<feBlend mode="normal" in="SourceGraphic" in2="effect3_dropShadow_28_104" result="shape"/>
</filter>
<filter id="filter1_f_28_104" x="27" y="14" width="51.2285" height="44.1973" filterUnits="userSpaceOnUse" color-interpolation-filters="sRGB">
<feFlood flood-opacity="0" result="BackgroundImageFix"/>
<feBlend mode="normal" in="SourceGraphic" in2="BackgroundImageFix" result="shape"/>
<feGaussianBlur stdDeviation="6" result="effect1_foregroundBlur_28_104"/>
</filter>
</defs>
</svg>
