<svg width="716" height="751" fill="none" xmlns="http://www.w3.org/2000/svg"><path d="M81 570L1 650" stroke="#B1FA16" stroke-miterlimit="10"/><g clip-path="url(#clip0_261_3)"><g filter="url(#filter0_f_261_3)"><path d="M238 209l-84 84" stroke="#B1FA16" stroke-miterlimit="10"/></g><path d="M650 67l-31 31" stroke="#B1FA16" stroke-miterlimit="10"/><g filter="url(#filter1_f_261_3)"><path d="M692 577l-67 67" stroke="#B1FA16" stroke-miterlimit="10"/></g><path d="M211.848 461.647l233.619-216.69c18.058-16.929 18.058-18.057 27.086-22.572 9.029-4.514 19.939-4.138 24.829-3.386 39.125 3.762 118.954 11.512 125.274 12.415 7.9 1.128 16.929 4.514 21.443 14.672 3.612 8.125-4.514 19.186-9.028 23.7-78.249 97.811-239.262 296.594-257.32 309.234-18.057 12.641-40.629 5.267-49.658 0-33.105-20.69-104.056-65.006-123.016-76.744-18.961-11.737-5.267-30.096 6.771-40.629z" stroke="#B1FA16" stroke-width="3"/><path d="M211.85 461.647l233.619-216.69c18.057-16.929 18.057-18.057 27.086-22.572 9.029-4.514 19.938-4.138 24.829-3.386 39.125 3.762 117.825 13.769 124.145 14.672 7.9 1.129 22.798 4.514 5.643 25.958C548.923 357.44 387.91 550.58 369.853 563.22c-18.058 12.641-40.629 5.267-49.658 0-33.106-20.691-89.385-51.464-108.345-63.201-18.96-11.737-12.038-27.839 0-38.372z" stroke="#B1FA16" stroke-width="3"/><path d="M211.85 461.647l233.619-216.69c18.057-16.929 18.057-18.057 27.086-22.572 9.029-4.514 19.938-4.138 24.829-3.386 39.125 3.762 117.825 13.769 124.145 14.672 7.9 1.129 22.798 4.514 5.643 25.958C548.923 357.44 387.91 550.58 369.853 563.22c-18.058 12.641-40.629 5.267-49.658 0-33.106-20.691-89.385-51.464-108.345-63.201-18.96-11.737-12.038-27.839 0-38.372z" fill="#000"/><ellipse cx="367.242" cy="287.384" rx="142.203" ry="156.874" fill="#000"/><g filter="url(#filter2_f_261_3)"><ellipse cx="367.241" cy="287.384" rx="200.89" ry="222.333" fill="#B1FA16" fill-opacity=".36"/></g><g filter="url(#filter3_f_261_3)"><path fill-rule="evenodd" clip-rule="evenodd" d="M374.013 390.545c49.218 0 89.117-47.197 89.117-105.419 0-58.221-39.899-105.419-89.117-105.419s-89.117 47.198-89.117 105.419c0 58.222 39.899 105.419 89.117 105.419zm0 4.055c51.111 0 92.545-49.013 92.545-109.474 0-60.46-41.434-109.473-92.545-109.473-51.111 0-92.544 49.013-92.544 109.473 0 60.461 41.433 109.474 92.544 109.474z" fill="#B1FA16"/></g><path fill-rule="evenodd" clip-rule="evenodd" d="M367.242 423.944c69.792 0 126.369-59.318 126.369-136.56s-56.577-137.688-126.369-137.688-121.888 67.715-121.888 137.688c2.257 67.716 52.096 136.56 121.888 136.56zm0 19.753c78.003 0 141.236-69.984 141.236-156.313s-63.233-156.312-141.236-156.312c-78.003 0-141.237 69.983-141.237 156.312 0 86.329 63.234 156.313 141.237 156.313z" fill="#B1FA16"/><path fill-rule="evenodd" clip-rule="evenodd" d="M509.445 287.384c0 90.379-66.698 163.645-148.975 163.645-82.276 0-148.974-73.266-148.974-163.645 0-90.38 66.698-163.646 148.974-163.646 82.277 0 148.975 73.266 148.975 163.646zm-.967 0c0 86.329-63.234 156.312-141.237 156.312-78.003 0-141.236-69.983-141.236-156.312 0-86.329 63.233-156.313 141.236-156.313 78.003 0 141.237 69.984 141.237 156.313z" fill="#141C02"/><g filter="url(#filter4_f_261_3)"><path fill-rule="evenodd" clip-rule="evenodd" d="M360.47 451.03c82.277 0 148.975-71.751 148.975-160.26 0-9.766-.812-19.328-2.368-28.612L316 443.768a139.294 139.294 0 0044.47 7.262z" fill="#000" fill-opacity=".56"/></g></g><defs><filter id="filter0_f_261_3" x="148.646" y="203.646" width="94.707" height="94.707" filterUnits="userSpaceOnUse" color-interpolation-filters="sRGB"><feFlood flood-opacity="0" result="BackgroundImageFix"/><feBlend in="SourceGraphic" in2="BackgroundImageFix" result="shape"/><feGaussianBlur stdDeviation="2.5" result="effect1_foregroundBlur_261_3"/></filter><filter id="filter1_f_261_3" x="619.646" y="571.646" width="77.707" height="77.707" filterUnits="userSpaceOnUse" color-interpolation-filters="sRGB"><feFlood flood-opacity="0" result="BackgroundImageFix"/><feBlend in="SourceGraphic" in2="BackgroundImageFix" result="shape"/><feGaussianBlur stdDeviation="2.5" result="effect1_foregroundBlur_261_3"/></filter><filter id="filter2_f_261_3" x="35.352" y="-65.949" width="663.779" height="706.666" filterUnits="userSpaceOnUse" color-interpolation-filters="sRGB"><feFlood flood-opacity="0" result="BackgroundImageFix"/><feBlend in="SourceGraphic" in2="BackgroundImageFix" result="shape"/><feGaussianBlur stdDeviation="65.5" result="effect1_foregroundBlur_261_3"/></filter><filter id="filter3_f_261_3" x="279.469" y="173.653" width="189.089" height="222.947" filterUnits="userSpaceOnUse" color-interpolation-filters="sRGB"><feFlood flood-opacity="0" result="BackgroundImageFix"/><feBlend in="SourceGraphic" in2="BackgroundImageFix" result="shape"/><feGaussianBlur stdDeviation="1" result="effect1_foregroundBlur_261_3"/></filter><filter id="filter4_f_261_3" x="314" y="260.158" width="197.444" height="192.871" filterUnits="userSpaceOnUse" color-interpolation-filters="sRGB"><feFlood flood-opacity="0" result="BackgroundImageFix"/><feBlend in="SourceGraphic" in2="BackgroundImageFix" result="shape"/><feGaussianBlur stdDeviation="1" result="effect1_foregroundBlur_261_3"/></filter><clipPath id="clip0_261_3"><path fill="#fff" transform="translate(66)" d="M0 0h650v751H0z"/></clipPath></defs></svg>