<svg width="24" height="24" viewBox="0 0 24 24" fill="none" xmlns="http://www.w3.org/2000/svg">
<path fill-rule="evenodd" clip-rule="evenodd" d="M11.5729 7.51358C11.5729 4.75038 13.8129 2.51038 16.5761 2.51038C18.1985 2.51038 19.4929 3.27678 20.3601 4.39038C21.2773 4.20237 22.1567 3.8622 22.9617 3.38398C22.6499 4.3539 21.9974 5.17808 21.1249 5.70398L21.1281 5.70878C21.9564 5.60869 22.7652 5.38599 23.5281 5.04798L23.5265 5.05118C22.9873 5.85918 22.3105 6.57118 21.5297 7.15198C21.5713 7.43518 21.5937 7.71838 21.5937 7.99998C21.5937 13.8992 17.0993 20.76 8.83366 20.76C6.39638 20.7621 4.01007 20.0622 1.96006 18.744C1.86355 18.682 1.78148 18.6001 1.71942 18.5036C1.65736 18.4072 1.61676 18.2985 1.60037 18.185C1.58399 18.0715 1.59219 17.9558 1.62444 17.8458C1.65668 17.7357 1.71221 17.6339 1.78726 17.5472C1.85863 17.4285 1.96269 17.333 2.08699 17.2719C2.21128 17.2109 2.35054 17.1871 2.48806 17.2032C3.95366 17.376 5.41606 17.1968 6.70726 16.6336C6.07039 16.3522 5.50024 15.9393 5.03422 15.422C4.5682 14.9047 4.21686 14.2947 4.00326 13.632C3.96376 13.5087 3.95822 13.3771 3.98723 13.2509C4.01623 13.1248 4.0787 13.0088 4.16806 12.9152C3.64223 12.4537 3.22105 11.8853 2.93269 11.2478C2.64434 10.6104 2.49547 9.91878 2.49606 9.21918V9.16478C2.49602 8.99739 2.5543 8.83522 2.66088 8.70616C2.76747 8.57709 2.91569 8.48919 3.08006 8.45758C2.7173 7.75754 2.52851 6.98042 2.52966 6.19198C2.52966 5.44318 2.53446 4.49918 3.06086 3.64798C3.1171 3.5578 3.19261 3.48119 3.28196 3.42365C3.37131 3.36611 3.47229 3.32907 3.57766 3.31518C3.73044 3.26699 3.89417 3.26578 4.04764 3.31171C4.20111 3.35764 4.33726 3.44859 4.43846 3.57278C6.22201 5.76684 8.77301 7.20077 11.5745 7.58398V7.51358H11.5729ZM8.83366 19.16C7.60949 19.1609 6.3936 18.9592 5.23526 18.5632C6.62852 18.3334 7.94268 17.7604 9.05926 16.896C9.17628 16.8042 9.262 16.6784 9.30465 16.5359C9.34729 16.3934 9.34477 16.2412 9.29742 16.1003C9.25008 15.9593 9.16023 15.8364 9.04023 15.7485C8.92023 15.6607 8.77596 15.6121 8.62726 15.6096C8.0916 15.5999 7.56541 15.4667 7.08971 15.2202C6.61402 14.9738 6.20168 14.6208 5.88486 14.1888C6.18886 14.1648 6.48646 14.112 6.77446 14.0352C6.93145 13.9932 7.06963 13.8994 7.16652 13.7689C7.26342 13.6384 7.31333 13.479 7.30814 13.3166C7.30294 13.1542 7.24296 12.9983 7.13793 12.8743C7.0329 12.7503 6.88901 12.6654 6.72966 12.6336C6.12095 12.5103 5.55621 12.2266 5.09379 11.812C4.63136 11.3974 4.28803 10.8669 4.09926 10.2752C4.41926 10.352 4.75366 10.3984 5.09606 10.4096C5.25253 10.4148 5.40645 10.369 5.53451 10.2789C5.66256 10.1888 5.75776 10.0595 5.8057 9.91042C5.85363 9.76138 5.85168 9.60077 5.80013 9.45294C5.74859 9.30511 5.65026 9.17811 5.52006 9.09118C5.04262 8.77311 4.65114 8.34203 4.38038 7.83626C4.10963 7.33048 3.968 6.76566 3.96806 6.19198C3.96806 5.92318 3.97286 5.68478 3.98886 5.46718C6.22769 7.75196 9.24519 9.10932 12.4401 9.26878C12.5634 9.27505 12.6866 9.25267 12.7999 9.20339C12.9131 9.1541 13.0135 9.07926 13.093 8.98471C13.1725 8.89017 13.229 8.7785 13.2581 8.65845C13.2873 8.53841 13.2882 8.41324 13.2609 8.29278C13.1433 7.79318 13.1404 7.27347 13.2521 6.77256C13.3639 6.27164 13.5875 5.80248 13.9062 5.40021C14.2249 4.99793 14.6305 4.67295 15.0925 4.44958C15.5546 4.22622 16.0612 4.11025 16.5745 4.11038C18.5489 4.11038 19.9921 5.93918 19.9921 8.00158C19.9921 13.2112 16.0305 19.16 8.83206 19.16H8.83366Z" fill="#1DA1F2"/>
</svg>
