<svg width="24" height="24" viewBox="0 0 24 24" fill="none" xmlns="http://www.w3.org/2000/svg">
<path d="M21.6844 2.97184C21.4763 2.79552 21.2243 2.67887 20.9553 2.6343C20.6862 2.58973 20.4101 2.6189 20.1563 2.71871L2.85 9.51559C2.54646 9.63124 2.28934 9.84346 2.11824 10.1196C1.94715 10.3957 1.87157 10.7204 1.90313 11.0437C1.93129 11.3669 2.06346 11.6722 2.27981 11.9139C2.49616 12.1556 2.78504 12.3207 3.10313 12.3843L7.5 13.2562V18.75C7.49985 19.0472 7.58798 19.3377 7.75323 19.5847C7.91847 19.8318 8.15337 20.0242 8.42813 20.1375C8.60997 20.2106 8.804 20.2488 9 20.25C9.19701 20.2507 9.39218 20.212 9.57409 20.1364C9.75599 20.0607 9.92097 19.9495 10.0594 19.8093L12.4969 17.3812L16.1813 20.625C16.4533 20.8649 16.803 20.9981 17.1656 21C17.3251 21.0032 17.4839 20.9778 17.6344 20.925C17.8818 20.8467 18.1045 20.7052 18.2804 20.5144C18.4563 20.3237 18.5794 20.0904 18.6375 19.8375L22.1625 4.44371C22.2241 4.17809 22.2122 3.90069 22.1279 3.64135C22.0437 3.38201 21.8903 3.15054 21.6844 2.97184ZM8.07188 11.8406L3.40313 10.9125L16.4906 5.76559L8.07188 11.8406ZM9 18.75V14.3062L11.3625 16.3875L9 18.75ZM17.175 19.5L9.45 12.7031L20.5781 4.66871L17.175 19.5Z" fill="#32A9DD"/>
</svg>
