<svg width="24" height="24" viewBox="0 0 24 24" fill="none" xmlns="http://www.w3.org/2000/svg">
<path d="M4.98725 11.4073C4.98728 11.273 5.01376 11.1402 5.06518 11.0162C5.11661 10.8923 5.19195 10.7798 5.2869 10.6851C5.38185 10.5905 5.49453 10.5155 5.61847 10.4646C5.7424 10.4137 5.87516 10.3878 6.00911 10.3884L7.70324 10.394C7.97337 10.394 8.23242 10.5015 8.42343 10.6928C8.61443 10.8842 8.72174 11.1438 8.72174 11.4144V17.8329C8.91255 17.7762 9.15674 17.7158 9.42545 17.6524C9.61162 17.6085 9.77754 17.5029 9.89629 17.3527C10.0151 17.2025 10.0797 17.0165 10.0797 16.8249V8.86383C10.0797 8.59318 10.187 8.33362 10.378 8.14222C10.569 7.95082 10.8281 7.84327 11.0982 7.84322H12.7975C13.0677 7.84327 13.3267 7.95082 13.5177 8.14222C13.7087 8.33362 13.816 8.59318 13.816 8.86383V16.253C13.816 16.253 14.2411 16.0807 14.655 15.9055C14.8087 15.8404 14.94 15.7313 15.0323 15.5919C15.1246 15.4525 15.1739 15.2889 15.174 15.1216V6.31269C15.174 6.04209 15.2813 5.78258 15.4722 5.59122C15.6632 5.39986 15.9222 5.29233 16.1923 5.29227H17.8898C18.1598 5.29254 18.4186 5.40016 18.6093 5.5915C18.8001 5.78284 18.9073 6.04223 18.9073 6.31269V13.5666C20.379 12.498 21.8705 11.2127 23.0541 9.66733C23.2258 9.44301 23.3394 9.17959 23.3848 8.90057C23.4302 8.62155 23.406 8.33561 23.3143 8.06826C22.7664 6.48903 21.8955 5.04177 20.7573 3.81911C19.6191 2.59644 18.2386 1.62529 16.7043 0.967809C15.17 0.310323 13.5156 -0.0190231 11.8469 0.00084856C10.1783 0.0207202 8.53216 0.38937 7.01387 1.08321C5.49559 1.77705 4.13859 2.7808 3.02972 4.03022C1.92084 5.27965 1.08452 6.74723 0.574248 8.33907C0.0639805 9.93091 -0.108988 11.6119 0.066411 13.2746C0.24181 14.9372 0.761713 16.5449 1.59285 17.9947C1.73765 18.2448 1.95069 18.4483 2.20694 18.5813C2.46318 18.7143 2.75199 18.7713 3.03943 18.7455C3.36054 18.7172 3.76035 18.6772 4.23568 18.6213C4.44256 18.5977 4.63356 18.4987 4.7723 18.3432C4.91103 18.1876 4.98782 17.9864 4.98804 17.7778V11.4073" fill="white"/>
<path d="M4.95117 21.7007C6.74046 23.0049 8.85496 23.7877 11.0607 23.9625C13.2665 24.1374 15.4776 23.6975 17.4493 22.6915C19.421 21.6855 21.0765 20.1526 22.2327 18.2624C23.3888 16.3723 24.0005 14.1985 24.0001 11.9817C24.0001 11.7044 23.9872 11.4314 23.9689 11.1592C19.5866 17.7074 11.4952 20.7687 4.95117 21.7007Z" fill="#F2BA00"/>
</svg>
