<svg width="30" height="20" viewBox="0 0 30 20" fill="none" xmlns="http://www.w3.org/2000/svg">
<path d="M26.6787 0.00666142C26.6412 0.0690908 26.5413 0.368753 26.4539 0.680902C26.379 0.99305 26.2042 1.61735 26.0669 2.07933L25.8296 2.9034L24.7933 3.253C24.2314 3.42781 23.7195 3.6151 23.6571 3.65255C23.5947 3.69001 24.0192 3.88979 24.6185 4.11453C25.2178 4.3268 25.7547 4.55154 25.8172 4.61397C25.8796 4.68889 26.0544 5.16335 26.2042 5.67528C26.7161 7.41082 26.6662 7.41082 27.1781 5.87505L27.6401 4.5016L28.8263 4.11453L29.9999 3.72747L28.7888 3.30295C27.6276 2.9034 27.5652 2.86594 27.4528 2.44142C27.3779 2.1917 27.1906 1.51746 27.0408 0.943107C26.8785 0.356267 26.7161 -0.0557685 26.6787 0.00666142Z" fill="#F95093"/>
<path d="M5.92716 2.12968C5.41524 2.62912 5.80231 2.84138 8.46181 3.54059C11.0214 4.22732 11.2212 4.22732 11.2212 3.60302C11.2212 3.3533 11.1088 3.27839 10.3846 3.06613C9.4482 2.79144 6.2518 1.92991 6.1644 1.92991C6.13943 1.92991 6.02705 2.01731 5.92716 2.12968Z" fill="#F95093"/>
<path d="M18.9624 2.57909C17.6889 2.91621 16.5776 3.26582 16.5027 3.32824C16.2904 3.50305 16.3029 3.86514 16.5152 4.03994C16.665 4.1648 17.2019 4.05243 19.1123 3.55299C20.4358 3.1909 21.597 2.84129 21.6844 2.77886C21.9091 2.57909 21.8717 2.20451 21.597 2.05468C21.4596 1.99225 21.3348 1.92982 21.3098 1.94231C21.2848 1.94231 20.236 2.22948 18.9624 2.57909Z" fill="#F95093"/>
<path d="M7.47541 5.52565L7.10083 5.90023V8.52228C7.10083 10.957 7.11332 11.1568 7.35055 11.4565C7.67518 11.8685 8.22456 11.9934 8.69903 11.7436C9.29836 11.4315 9.37327 11.0944 9.32333 8.3225C9.28587 5.97514 9.27338 5.78785 9.02366 5.55062C8.88632 5.41328 8.56168 5.26344 8.31197 5.2135C7.9249 5.15107 7.81253 5.20102 7.47541 5.52565Z" fill="#F95093"/>
<path d="M19.0873 5.51294C18.9874 5.5504 18.7751 5.70023 18.6253 5.83757C18.3381 6.08729 18.3381 6.14972 18.3381 8.82171C18.3381 11.3688 18.3506 11.5561 18.5879 11.7934C19.1622 12.3677 20.0113 12.2429 20.3609 11.5436C20.5481 11.1691 20.5856 10.7445 20.5856 8.82171C20.5856 6.22464 20.4857 5.80012 19.8115 5.56288C19.387 5.41305 19.362 5.41305 19.0873 5.51294Z" fill="#F95093"/>
<path d="M1.46973 8.52203C0.171195 9.19627 -0.340729 10.6696 0.233624 12.0181C1.33239 14.5777 5.228 13.9909 5.45275 11.244C5.55263 9.98288 4.99077 8.97152 3.92946 8.47209C3.05545 8.06005 2.31878 8.08502 1.46973 8.52203Z" fill="#F95093"/>
<path d="M24.0318 8.29835C21.7344 8.99757 21.4347 12.2689 23.5948 13.3427C25.5176 14.2916 27.5778 13.0305 27.5778 10.8954C27.5778 9.06 25.8173 7.77394 24.0318 8.29835Z" fill="#F95093"/>
<path d="M7.06343 15.3897C6.66388 15.8267 6.80123 16.2886 7.48795 16.9379C8.73655 18.0991 10.3847 18.8607 12.3575 19.1729C13.3314 19.3227 16.1157 19.2603 16.7775 19.0605C17.2395 18.9357 17.5391 18.3988 17.3394 18.0367C17.1271 17.6496 16.8274 17.5497 16.2156 17.6621C15.3291 17.8369 12.8694 17.7994 11.908 17.5997C10.7218 17.3499 9.42327 16.6882 8.48683 15.8516C7.66275 15.115 7.38806 15.0276 7.06343 15.3897Z" fill="#F95093"/>
</svg>
