<svg width="26" height="26" viewBox="0 0 26 26" fill="none" xmlns="http://www.w3.org/2000/svg">
<path d="M24.9728 12.9336C24.9832 15.3043 24.2905 17.6248 22.982 19.6018C21.6736 21.5788 19.8084 23.1233 17.6221 24.0402C15.4359 24.9571 13.0268 25.205 10.6997 24.7527C8.37247 24.3004 6.23168 23.1682 4.54799 21.4992C2.86431 19.8302 1.71335 17.6994 1.24067 15.3763C0.767991 13.0532 0.994821 10.6421 1.89248 8.44788C2.79013 6.25367 4.31829 4.37493 6.28371 3.04924C8.24912 1.72355 10.5635 1.01044 12.9342 1.00011C16.1131 0.986262 19.1673 2.23573 21.4249 4.47367C23.6826 6.71161 24.9588 9.75471 24.9728 12.9336Z" stroke="#8CC63F" stroke-width="1.65031"/>
<path d="M18.6097 9.11163C17.8054 8.87885 16.9715 8.54879 16.1273 8.21525C16.0786 8.00332 15.891 7.73927 15.5114 7.41702C14.9599 6.93843 13.9237 6.95059 13.0282 7.16253C12.0397 6.92975 11.0634 6.84723 10.1262 7.07567C2.46098 9.18719 6.80737 14.3388 3.99316 19.5172C4.39358 20.3667 8.70957 25.3229 14.9547 23.9931C14.9547 23.9931 12.8188 18.8606 17.6386 16.3973C21.5481 14.3917 24.3727 10.6812 18.6097 9.11163Z" fill="#8CC63F"/>
<path d="M19.5564 12.4827C19.5569 12.5746 19.5302 12.6646 19.4795 12.7413C19.4289 12.818 19.3566 12.878 19.2719 12.9136C19.1872 12.9493 19.0938 12.959 19.0036 12.9416C18.9134 12.9242 18.8303 12.8804 18.765 12.8157C18.6996 12.7511 18.6549 12.6686 18.6365 12.5785C18.618 12.4885 18.6267 12.395 18.6614 12.3099C18.6961 12.2248 18.7552 12.1519 18.8314 12.1004C18.9075 12.0489 18.9972 12.0212 19.0891 12.0206C19.1501 12.0203 19.2106 12.032 19.2671 12.055C19.3236 12.078 19.3751 12.112 19.4184 12.1549C19.4618 12.1978 19.4964 12.2488 19.52 12.3051C19.5437 12.3613 19.556 12.4217 19.5564 12.4827Z" fill="#08283E"/>
<path d="M13.028 7.15914C13.5865 7.19909 15.606 7.854 16.1271 8.21186C15.6928 6.95242 14.231 6.78478 13.028 7.15914Z" fill="#8CC63F"/>
<path d="M13.5597 10.3442C13.5599 10.7682 13.4343 11.1828 13.1989 11.5354C12.9634 11.8881 12.6287 12.163 12.2369 12.3253C11.8452 12.4877 11.4142 12.5303 10.9983 12.4476C10.5824 12.365 10.2004 12.1609 9.90048 11.8611C9.60061 11.5613 9.39638 11.1793 9.31362 10.7634C9.23087 10.3476 9.27331 9.9165 9.43557 9.52475C9.59783 9.13301 9.87263 8.79818 10.2252 8.56262C10.5778 8.32707 10.9923 8.20136 11.4163 8.20142C11.9847 8.20149 12.5297 8.42725 12.9316 8.82907C13.3336 9.23088 13.5595 9.77587 13.5597 10.3442Z" fill="#08283E"/>
<path d="M12.9239 10.3633C12.9239 10.6616 12.8355 10.9531 12.6698 11.2011C12.5041 11.449 12.2686 11.6423 11.9931 11.7564C11.7176 11.8705 11.4144 11.9004 11.1219 11.8422C10.8294 11.784 10.5607 11.6404 10.3498 11.4295C10.139 11.2187 9.99536 10.95 9.93718 10.6575C9.879 10.365 9.90886 10.0618 10.023 9.7863C10.1371 9.51077 10.3304 9.27527 10.5783 9.10959C10.8263 8.9439 11.1178 8.85547 11.4161 8.85547C11.816 8.85547 12.1995 9.01433 12.4823 9.29711C12.7651 9.57989 12.9239 9.96342 12.9239 10.3633Z" fill="#8CC63F"/>
<path d="M21.2927 13.4278C19.5555 14.6516 17.5803 15.5801 14.7783 15.5801C13.4667 15.5801 13.2009 14.1904 12.3341 14.8696C11.8868 15.2223 10.3094 16.0109 9.0578 15.951C7.80617 15.8911 5.77716 15.1571 5.21171 12.4854C4.98762 15.1571 4.87296 17.1253 3.86975 19.381C5.86749 22.58 10.6308 25.0477 14.9546 23.9845C14.4899 20.7404 17.325 17.5631 18.9223 15.9371C19.5303 15.3213 20.6855 14.3163 21.2927 13.426V13.4278Z" fill="#8CC63F"/>
<path d="M21.2249 13.5076C20.6855 13.9993 20.0436 14.3632 19.3905 14.6846C18.7293 14.9985 18.0401 15.2495 17.3319 15.4342C16.6231 15.6174 15.884 15.7555 15.1353 15.6878C14.3865 15.62 13.6213 15.3655 13.1254 14.8044L13.1488 14.7775C13.7568 15.1718 14.4586 15.3108 15.157 15.3308C15.8648 15.3523 16.5728 15.2941 17.2676 15.1571C17.9695 15.0102 18.6561 14.7979 19.3184 14.523C19.9811 14.2494 20.6369 13.9324 21.2014 13.4807L21.2249 13.5076Z" fill="#08283E"/>
</svg>
