<svg width="26" height="25" viewBox="0 0 26 25" fill="none" xmlns="http://www.w3.org/2000/svg">
<path d="M22.2699 14.857C21.8753 15.1285 21.362 15.1624 20.9335 14.9461C20.4414 14.6661 20.1741 14.0127 20.1741 13.1261V10.3982C20.1741 9.08727 19.6565 8.15818 18.7868 7.90364C17.3232 7.47515 16.2287 9.2697 15.8087 9.94424L13.2165 14.14V9.01939C13.1868 7.84 12.805 7.13152 12.0753 6.91939C11.5959 6.77939 10.8747 6.83455 10.1747 7.90364L4.37957 17.2073C3.60745 15.7352 3.20442 14.0933 3.2129 12.4303C3.2129 6.82182 7.6929 2.26121 13.2165 2.26121C18.7402 2.26121 23.2329 6.82182 23.2329 12.4303V12.46C23.2329 12.46 23.2329 12.4812 23.2329 12.4897C23.2881 13.5715 22.9359 14.437 22.2699 14.857ZM25.4729 12.4303V12.3752C25.4262 5.54485 19.945 0 13.2165 0C6.48805 0 0.9729 5.57454 0.9729 12.4303C0.9729 19.2861 6.4626 24.8606 13.2165 24.8606C16.3135 24.8606 19.2917 23.6727 21.5402 21.543C21.9941 21.1145 22.0196 20.4018 21.5996 19.9436C21.1923 19.4939 20.5008 19.46 20.0468 19.8673L20.0426 19.8715C16.0759 23.6345 9.80987 23.4691 6.04684 19.5024C5.95351 19.4048 5.86442 19.3073 5.77533 19.2055L10.9893 10.8182V14.6873C10.9893 16.5455 11.7105 17.1479 12.3129 17.3261C12.9153 17.5042 13.8444 17.3812 14.8117 15.8073L17.6965 11.1406C17.7856 10.9921 17.8705 10.8606 17.9511 10.7503V13.1218C17.9511 14.8612 18.6468 16.2485 19.8729 16.9358C21.0056 17.5467 22.3802 17.4915 23.462 16.7915C24.8068 15.9176 25.5408 14.3352 25.4644 12.4303H25.4729Z" fill="#1FBBF5"/>
</svg>
