<svg width="714" height="714" viewBox="0 0 714 714" fill="none" xmlns="http://www.w3.org/2000/svg">
<g opacity="0.55" filter="url(#filter0_f_85_3)">
<path d="M538 357C538 456.964 456.964 538 357 538C257.036 538 176 456.964 176 357C176 257.036 257.036 176 357 176C456.964 176 538 257.036 538 357Z" fill="#B1FA16" fill-opacity="0.51"/>
</g>
<path d="M234 444C234 438.477 238.477 434 244 434H482C487.523 434 492 438.477 492 444V578C492 583.523 487.523 588 482 588H244C238.477 588 234 583.523 234 578V444Z" fill="black"/>
<path fill-rule="evenodd" clip-rule="evenodd" d="M482 437H244C240.134 437 237 440.134 237 444V578C237 581.866 240.134 585 244 585H482C485.866 585 489 581.866 489 578V444C489 440.134 485.866 437 482 437ZM244 434C238.477 434 234 438.477 234 444V578C234 583.523 238.477 588 244 588H482C487.523 588 492 583.523 492 578V444C492 438.477 487.523 434 482 434H244Z" fill="#B1FA16"/>
<path d="M192 348C192 342.477 196.477 338 202 338H440C445.523 338 450 342.477 450 348V482C450 487.523 445.523 492 440 492H202C196.477 492 192 487.523 192 482V348Z" fill="black"/>
<path fill-rule="evenodd" clip-rule="evenodd" d="M440 341H202C198.134 341 195 344.134 195 348V482C195 485.866 198.134 489 202 489H440C443.866 489 447 485.866 447 482V348C447 344.134 443.866 341 440 341ZM202 338C196.477 338 192 342.477 192 348V482C192 487.523 196.477 492 202 492H440C445.523 492 450 487.523 450 482V348C450 342.477 445.523 338 440 338H202Z" fill="#B1FA16"/>
<path d="M415.079 553.112H407.212L412.132 522.554H419.998L415.079 553.112Z" fill="#00579F"/>
<path d="M443.594 523.301C442.043 522.683 439.582 522 436.539 522C428.771 522 423.3 526.161 423.267 532.11C423.202 536.499 427.183 538.937 430.161 540.4C433.204 541.895 434.239 542.872 434.239 544.204C434.208 546.252 431.78 547.195 429.515 547.195C426.374 547.195 424.692 546.709 422.134 545.57L421.099 545.082L419.998 551.941C421.843 552.786 425.242 553.535 428.771 553.568C437.024 553.568 442.398 549.471 442.462 543.132C442.493 539.653 440.391 536.987 435.859 534.809C433.107 533.411 431.423 532.468 431.423 531.038C431.455 529.737 432.848 528.405 435.953 528.405C438.511 528.34 440.39 528.957 441.813 529.575L442.524 529.9L443.594 523.301Z" fill="#00579F"/>
<path d="M454.049 542.287C454.697 540.531 457.19 533.737 457.19 533.737C457.157 533.802 457.836 531.949 458.225 530.811L458.774 533.444C458.774 533.444 460.264 540.759 460.587 542.287C459.358 542.287 455.603 542.287 454.049 542.287ZM463.759 522.554H457.674C455.798 522.554 454.373 523.106 453.563 525.089L441.879 553.112H450.133C450.133 553.112 451.491 549.34 451.783 548.528C452.689 548.528 460.718 548.528 461.883 548.528C462.109 549.601 462.822 553.112 462.822 553.112H470.105L463.759 522.554Z" fill="#00579F"/>
<path d="M400.642 522.554L392.939 543.392L392.097 539.166C390.673 534.289 386.206 528.991 381.221 526.357L388.278 553.08H396.596L408.96 522.554H400.642Z" fill="#00579F"/>
<path d="M385.785 522.554H373.129L373 523.171C382.872 525.707 389.411 531.82 392.097 539.167L389.346 525.123C388.893 523.171 387.501 522.618 385.785 522.554Z" fill="#FAA61A"/>
<path d="M367.37 421.678V417.415C367.37 415.784 366.41 414.717 364.762 414.717C363.937 414.717 363.041 414.998 362.425 415.925C361.945 415.147 361.257 414.717 360.224 414.717C359.536 414.717 358.848 414.932 358.304 415.71V414.857H356.864V421.678H358.304V417.912C358.304 416.703 358.92 416.132 359.88 416.132C360.841 416.132 361.321 416.769 361.321 417.912V421.678H362.761V417.912C362.761 416.703 363.449 416.132 364.337 416.132C365.298 416.132 365.778 416.769 365.778 417.912V421.678H367.37ZM388.735 414.857H386.399V412.796H384.958V414.857H383.654V416.207H384.958V419.335C384.958 420.9 385.575 421.818 387.223 421.818C387.839 421.818 388.527 421.603 389.007 421.322L388.591 420.039C388.175 420.32 387.695 420.395 387.351 420.395C386.663 420.395 386.391 419.964 386.391 419.261V416.207H388.727V414.857H388.735ZM400.962 414.708C400.138 414.708 399.586 415.139 399.242 415.702V414.849H397.801V421.669H399.242V417.829C399.242 416.695 399.722 416.049 400.618 416.049C400.89 416.049 401.234 416.124 401.514 416.19L401.93 414.766C401.642 414.708 401.234 414.708 400.962 414.708ZM382.486 415.42C381.798 414.924 380.837 414.708 379.805 414.708C378.157 414.708 377.06 415.561 377.06 416.91C377.06 418.044 377.885 418.69 379.325 418.897L380.013 418.971C380.765 419.112 381.181 419.327 381.181 419.683C381.181 420.179 380.629 420.535 379.669 420.535C378.709 420.535 377.949 420.179 377.469 419.824L376.78 420.957C377.533 421.529 378.565 421.81 379.597 421.81C381.518 421.81 382.622 420.883 382.622 419.608C382.622 418.4 381.726 417.763 380.357 417.547L379.669 417.473C379.053 417.398 378.573 417.258 378.573 416.836C378.573 416.339 379.053 416.058 379.813 416.058C380.637 416.058 381.462 416.413 381.878 416.629L382.486 415.42ZM420.807 414.708C419.983 414.708 419.431 415.139 419.087 415.702V414.849H417.646V421.669H419.087V417.829C419.087 416.695 419.567 416.049 420.463 416.049C420.735 416.049 421.079 416.124 421.359 416.19L421.775 414.783C421.495 414.708 421.087 414.708 420.807 414.708ZM402.403 418.267C402.403 420.328 403.779 421.818 405.907 421.818C406.868 421.818 407.556 421.603 408.244 421.04L407.556 419.832C407.004 420.262 406.459 420.469 405.835 420.469C404.667 420.469 403.843 419.617 403.843 418.267C403.843 416.985 404.667 416.132 405.835 416.066C406.451 416.066 407.004 416.281 407.556 416.703L408.244 415.495C407.556 414.924 406.868 414.717 405.907 414.717C403.779 414.708 402.403 416.207 402.403 418.267ZM415.726 418.267V414.857H414.285V415.71C413.805 415.073 413.117 414.717 412.221 414.717C410.364 414.717 408.924 416.207 408.924 418.267C408.924 420.328 410.364 421.818 412.221 421.818C413.181 421.818 413.869 421.462 414.285 420.825V421.678H415.726V418.267ZM410.436 418.267C410.436 417.059 411.189 416.066 412.429 416.066C413.597 416.066 414.421 416.993 414.421 418.267C414.421 419.476 413.597 420.469 412.429 420.469C411.197 420.395 410.436 419.468 410.436 418.267ZM393.2 414.708C391.28 414.708 389.904 416.132 389.904 418.259C389.904 420.395 391.28 421.81 393.272 421.81C394.233 421.81 395.193 421.529 395.953 420.883L395.265 419.815C394.713 420.246 394.025 420.527 393.344 420.527C392.448 420.527 391.56 420.097 391.352 418.897H396.225C396.225 418.681 396.225 418.541 396.225 418.325C396.289 416.132 395.049 414.708 393.2 414.708ZM393.2 415.991C394.097 415.991 394.713 416.562 394.849 417.622H391.416C391.552 416.703 392.168 415.991 393.2 415.991ZM428.985 418.267V412.159H427.545V415.71C427.064 415.073 426.376 414.717 425.48 414.717C423.624 414.717 422.183 416.207 422.183 418.267C422.183 420.328 423.624 421.818 425.48 421.818C426.44 421.818 427.128 421.462 427.545 420.825V421.678H428.985V418.267ZM423.696 418.267C423.696 417.059 424.448 416.066 425.688 416.066C426.856 416.066 427.681 416.993 427.681 418.267C427.681 419.476 426.856 420.469 425.688 420.469C424.448 420.395 423.696 419.468 423.696 418.267ZM375.476 418.267V414.857H374.036V415.71C373.556 415.073 372.867 414.717 371.971 414.717C370.115 414.717 368.674 416.207 368.674 418.267C368.674 420.328 370.115 421.818 371.971 421.818C372.931 421.818 373.62 421.462 374.036 420.825V421.678H375.476V418.267ZM370.123 418.267C370.123 417.059 370.875 416.066 372.115 416.066C373.284 416.066 374.108 416.993 374.108 418.267C374.108 419.476 373.284 420.469 372.115 420.469C370.875 420.395 370.123 419.468 370.123 418.267Z" fill="#878787"/>
<path d="M403.386 365.248H381.91V403.82H403.386V365.248Z" fill="#FF5A00"/>
<path d="M383.34 384.534C383.34 376.698 387.025 369.742 392.68 365.248C388.518 361.977 383.268 360 377.542 360C363.976 360 353 370.973 353 384.534C353 398.096 363.976 409.069 377.542 409.069C383.268 409.069 388.518 407.092 392.68 403.82C387.017 399.39 383.34 392.371 383.34 384.534Z" fill="#EB001B"/>
<path d="M432.36 384.534C432.36 398.096 421.383 409.069 407.818 409.069C402.091 409.069 396.842 407.092 392.68 403.82C398.406 399.318 402.02 392.371 402.02 384.534C402.02 376.698 398.335 369.742 392.68 365.248C396.834 361.977 402.084 360 407.81 360C421.383 360 432.36 371.044 432.36 384.534Z" fill="#F79E1B"/>
<path d="M271.395 653H123.605C113.318 653 105 643.456 105 631.664V296.359C105 284.566 113.318 275 123.605 275H156.042C156.442 281.333 161.737 286.39 168.154 286.39H226.845C233.262 286.39 238.558 281.333 238.958 275H271.395C281.667 275 290 284.566 290 296.359V631.664C290 643.456 281.667 653 271.395 653Z" fill="black"/>
<path fill-rule="evenodd" clip-rule="evenodd" d="M123.605 276.5C114.335 276.5 106.5 285.193 106.5 296.359V631.664C106.5 642.828 114.333 651.5 123.605 651.5H271.395C280.653 651.5 288.5 642.827 288.5 631.664V296.359C288.5 285.194 280.651 276.5 271.395 276.5H240.293C239.206 282.943 233.581 287.89 226.845 287.89H168.154C161.419 287.89 155.794 282.943 154.707 276.5H123.605ZM103.5 296.359C103.5 283.94 112.301 273.5 123.605 273.5H157.45L157.539 274.905C157.89 280.457 162.538 284.89 168.154 284.89H226.845C232.462 284.89 237.11 280.457 237.461 274.905L237.55 273.5H271.395C282.684 273.5 291.5 283.939 291.5 296.359V631.664C291.5 644.086 282.682 654.5 271.395 654.5H123.605C112.303 654.5 103.5 644.085 103.5 631.664V296.359Z" fill="#B1FA16"/>
<g filter="url(#filter1_f_85_3)">
<path d="M242.681 475.431C236.396 500.637 210.866 515.974 185.659 509.69C160.463 503.407 145.123 477.877 151.409 452.673C157.69 427.465 183.218 412.125 208.419 418.407C233.624 424.692 248.963 450.225 242.678 475.431H242.681Z" fill="#B1FA16"/>
</g>
<path d="M242.681 475.431C236.396 500.637 210.866 515.974 185.659 509.69C160.463 503.407 145.123 477.877 151.409 452.673C157.69 427.465 183.218 412.125 208.419 418.407C233.624 424.692 248.963 450.225 242.678 475.431H242.681Z" fill="#B1FA16"/>
<path d="M171.868 483.8V446.2H174.428V483.8H171.868ZM172.868 479.32C170.734 479.32 168.694 479 166.748 478.36C164.801 477.693 163.268 476.84 162.148 475.8L163.628 472.68C164.694 473.613 166.054 474.387 167.708 475C169.361 475.613 171.081 475.92 172.868 475.92C174.494 475.92 175.814 475.733 176.828 475.36C177.841 474.987 178.588 474.48 179.068 473.84C179.548 473.173 179.788 472.427 179.788 471.6C179.788 470.64 179.468 469.867 178.828 469.28C178.214 468.693 177.401 468.227 176.388 467.88C175.401 467.507 174.308 467.187 173.108 466.92C171.908 466.653 170.694 466.347 169.468 466C168.268 465.627 167.161 465.16 166.148 464.6C165.161 464.04 164.361 463.293 163.748 462.36C163.134 461.4 162.828 460.173 162.828 458.68C162.828 457.24 163.201 455.92 163.948 454.72C164.721 453.493 165.894 452.52 167.468 451.8C169.068 451.053 171.094 450.68 173.548 450.68C175.174 450.68 176.788 450.893 178.388 451.32C179.988 451.747 181.374 452.36 182.548 453.16L181.228 456.36C180.028 455.56 178.761 454.987 177.428 454.64C176.094 454.267 174.801 454.08 173.548 454.08C171.974 454.08 170.681 454.28 169.668 454.68C168.654 455.08 167.908 455.613 167.428 456.28C166.974 456.947 166.748 457.693 166.748 458.52C166.748 459.507 167.054 460.293 167.668 460.88C168.308 461.467 169.121 461.933 170.108 462.28C171.121 462.627 172.228 462.947 173.428 463.24C174.628 463.507 175.828 463.813 177.028 464.16C178.254 464.507 179.361 464.96 180.348 465.52C181.361 466.08 182.174 466.827 182.788 467.76C183.401 468.693 183.708 469.893 183.708 471.36C183.708 472.773 183.321 474.093 182.548 475.32C181.774 476.52 180.574 477.493 178.948 478.24C177.348 478.96 175.321 479.32 172.868 479.32Z" fill="black"/>
<path d="M196.312 479.32C194.338 479.32 192.418 479.013 190.552 478.4C188.712 477.787 187.205 476.96 186.032 475.92L187.872 472.76C188.805 473.64 190.018 474.36 191.512 474.92C193.005 475.48 194.592 475.76 196.272 475.76C198.405 475.76 200.045 475.307 201.192 474.4C202.338 473.493 202.912 472.28 202.912 470.76C202.912 469.72 202.658 468.813 202.152 468.04C201.645 467.267 200.765 466.68 199.512 466.28C198.285 465.853 196.592 465.64 194.432 465.64H188.072L189.552 451H205.352V454.48H191.032L193.112 452.52L191.952 464.08L189.872 462.16H195.272C198.072 462.16 200.325 462.52 202.032 463.24C203.738 463.96 204.978 464.96 205.752 466.24C206.525 467.493 206.912 468.947 206.912 470.6C206.912 472.2 206.525 473.667 205.752 475C204.978 476.307 203.805 477.36 202.232 478.16C200.685 478.933 198.712 479.32 196.312 479.32Z" fill="black"/>
<path d="M221.68 479.32C219.494 479.32 217.534 478.76 215.8 477.64C214.094 476.52 212.734 474.893 211.72 472.76C210.734 470.627 210.24 468.04 210.24 465C210.24 461.96 210.734 459.373 211.72 457.24C212.734 455.107 214.094 453.48 215.8 452.36C217.534 451.24 219.494 450.68 221.68 450.68C223.84 450.68 225.787 451.24 227.52 452.36C229.254 453.48 230.614 455.107 231.6 457.24C232.587 459.373 233.08 461.96 233.08 465C233.08 468.04 232.587 470.627 231.6 472.76C230.614 474.893 229.254 476.52 227.52 477.64C225.787 478.76 223.84 479.32 221.68 479.32ZM221.68 475.76C223.147 475.76 224.427 475.36 225.52 474.56C226.64 473.76 227.507 472.56 228.12 470.96C228.76 469.36 229.08 467.373 229.08 465C229.08 462.627 228.76 460.64 228.12 459.04C227.507 457.44 226.64 456.24 225.52 455.44C224.427 454.64 223.147 454.24 221.68 454.24C220.214 454.24 218.92 454.64 217.8 455.44C216.68 456.24 215.8 457.44 215.16 459.04C214.547 460.64 214.24 462.627 214.24 465C214.24 467.373 214.547 469.36 215.16 470.96C215.8 472.56 216.68 473.76 217.8 474.56C218.92 475.36 220.214 475.76 221.68 475.76Z" fill="black"/>
<defs>
<filter id="filter0_f_85_3" x="0" y="0" width="714" height="714" filterUnits="userSpaceOnUse" color-interpolation-filters="sRGB">
<feFlood flood-opacity="0" result="BackgroundImageFix"/>
<feBlend mode="normal" in="SourceGraphic" in2="BackgroundImageFix" result="shape"/>
<feGaussianBlur stdDeviation="88" result="effect1_foregroundBlur_85_3"/>
</filter>
<filter id="filter1_f_85_3" x="119" y="386" width="156.086" height="156.098" filterUnits="userSpaceOnUse" color-interpolation-filters="sRGB">
<feFlood flood-opacity="0" result="BackgroundImageFix"/>
<feBlend mode="normal" in="SourceGraphic" in2="BackgroundImageFix" result="shape"/>
<feGaussianBlur stdDeviation="15.5" result="effect1_foregroundBlur_85_3"/>
</filter>
</defs>
</svg>
