<svg width="700" height="717" viewBox="0 0 700 717" fill="none" xmlns="http://www.w3.org/2000/svg">
<path d="M81 636L1 716" stroke="#B1FA16" stroke-miterlimit="10"/>
<g filter="url(#filter0_f_267_23)">
<path d="M238 275L154 359" stroke="#B1FA16" stroke-miterlimit="10"/>
</g>
<path d="M650 133L619 164" stroke="#B1FA16" stroke-miterlimit="10"/>
<g filter="url(#filter1_f_267_23)">
<path d="M692 643L625 710" stroke="#B1FA16" stroke-miterlimit="10"/>
</g>
<path d="M211.848 527.647L445.467 310.957C463.525 294.028 463.525 292.9 472.553 288.385C481.582 283.871 492.492 284.247 497.382 284.999C536.507 288.761 616.336 296.511 622.656 297.414C630.556 298.542 639.585 301.928 644.099 312.086C647.711 320.211 639.585 331.272 635.071 335.786C556.822 433.597 395.809 632.38 377.751 645.02C359.694 657.661 337.122 650.287 328.093 645.02C294.988 624.33 224.037 580.014 205.077 568.276C186.116 556.539 199.81 538.18 211.848 527.647Z" stroke="#B1FA16" stroke-width="3"/>
<path d="M211.85 527.647L445.469 310.957C463.526 294.028 463.526 292.9 472.555 288.385C481.584 283.871 492.493 284.247 497.384 284.999C536.509 288.761 615.209 298.768 621.529 299.671C629.429 300.8 644.327 304.185 627.172 325.629C548.923 423.44 387.91 616.58 369.853 629.22C351.795 641.861 329.224 634.487 320.195 629.22C287.089 608.529 230.81 577.756 211.85 566.019C192.89 554.282 199.812 538.18 211.85 527.647Z" stroke="#B1FA16" stroke-width="3"/>
<path d="M211.85 527.647L445.469 310.957C463.526 294.028 463.526 292.9 472.555 288.385C481.584 283.871 492.493 284.247 497.384 284.999C536.509 288.761 615.209 298.768 621.529 299.671C629.429 300.8 644.327 304.185 627.172 325.629C548.923 423.44 387.91 616.58 369.853 629.22C351.795 641.861 329.224 634.487 320.195 629.22C287.089 608.529 230.81 577.756 211.85 566.019C192.89 554.282 199.812 538.18 211.85 527.647Z" fill="black"/>
<ellipse cx="367.242" cy="353.384" rx="142.203" ry="156.874" fill="black"/>
<g filter="url(#filter2_f_267_23)">
<ellipse cx="367.241" cy="353.384" rx="200.89" ry="222.333" fill="#B1FA16" fill-opacity="0.36"/>
</g>
<g filter="url(#filter3_f_267_23)">
<path fill-rule="evenodd" clip-rule="evenodd" d="M374.013 456.545C423.231 456.545 463.13 409.348 463.13 351.126C463.13 292.905 423.231 245.707 374.013 245.707C324.795 245.707 284.896 292.905 284.896 351.126C284.896 409.348 324.795 456.545 374.013 456.545ZM374.013 460.6C425.124 460.6 466.558 411.587 466.558 351.126C466.558 290.666 425.124 241.653 374.013 241.653C322.902 241.653 281.469 290.666 281.469 351.126C281.469 411.587 322.902 460.6 374.013 460.6Z" fill="#B1FA16"/>
</g>
<path fill-rule="evenodd" clip-rule="evenodd" d="M367.242 489.944C437.034 489.944 493.611 430.626 493.611 353.384C493.611 276.142 437.034 215.696 367.242 215.696C297.45 215.696 245.354 283.411 245.354 353.384C247.611 421.1 297.45 489.944 367.242 489.944ZM367.242 509.697C445.245 509.697 508.478 439.713 508.478 353.384C508.478 267.055 445.245 197.072 367.242 197.072C289.239 197.072 226.005 267.055 226.005 353.384C226.005 439.713 289.239 509.697 367.242 509.697Z" fill="#B1FA16"/>
<path fill-rule="evenodd" clip-rule="evenodd" d="M509.445 353.384C509.445 443.763 442.747 517.029 360.47 517.029C278.194 517.029 211.496 443.763 211.496 353.384C211.496 263.004 278.194 189.738 360.47 189.738C442.747 189.738 509.445 263.004 509.445 353.384ZM508.478 353.384C508.478 439.713 445.244 509.696 367.241 509.696C289.238 509.696 226.005 439.713 226.005 353.384C226.005 267.055 289.238 197.071 367.241 197.071C445.244 197.071 508.478 267.055 508.478 353.384Z" fill="#141C02"/>
<g filter="url(#filter4_f_267_23)">
<path fill-rule="evenodd" clip-rule="evenodd" d="M360.47 517.03C442.747 517.03 509.445 445.279 509.445 356.769C509.445 347.004 508.633 337.442 507.077 328.158L316 509.768C330.044 514.487 344.981 517.03 360.47 517.03Z" fill="black" fill-opacity="0.56"/>
</g>
<defs>
<filter id="filter0_f_267_23" x="148.646" y="269.646" width="94.707" height="94.707" filterUnits="userSpaceOnUse" color-interpolation-filters="sRGB">
<feFlood flood-opacity="0" result="BackgroundImageFix"/>
<feBlend mode="normal" in="SourceGraphic" in2="BackgroundImageFix" result="shape"/>
<feGaussianBlur stdDeviation="2.5" result="effect1_foregroundBlur_267_23"/>
</filter>
<filter id="filter1_f_267_23" x="619.646" y="637.646" width="77.707" height="77.707" filterUnits="userSpaceOnUse" color-interpolation-filters="sRGB">
<feFlood flood-opacity="0" result="BackgroundImageFix"/>
<feBlend mode="normal" in="SourceGraphic" in2="BackgroundImageFix" result="shape"/>
<feGaussianBlur stdDeviation="2.5" result="effect1_foregroundBlur_267_23"/>
</filter>
<filter id="filter2_f_267_23" x="35.3516" y="0.0510254" width="663.779" height="706.666" filterUnits="userSpaceOnUse" color-interpolation-filters="sRGB">
<feFlood flood-opacity="0" result="BackgroundImageFix"/>
<feBlend mode="normal" in="SourceGraphic" in2="BackgroundImageFix" result="shape"/>
<feGaussianBlur stdDeviation="65.5" result="effect1_foregroundBlur_267_23"/>
</filter>
<filter id="filter3_f_267_23" x="279.469" y="239.653" width="189.089" height="222.947" filterUnits="userSpaceOnUse" color-interpolation-filters="sRGB">
<feFlood flood-opacity="0" result="BackgroundImageFix"/>
<feBlend mode="normal" in="SourceGraphic" in2="BackgroundImageFix" result="shape"/>
<feGaussianBlur stdDeviation="1" result="effect1_foregroundBlur_267_23"/>
</filter>
<filter id="filter4_f_267_23" x="314" y="326.158" width="197.444" height="192.871" filterUnits="userSpaceOnUse" color-interpolation-filters="sRGB">
<feFlood flood-opacity="0" result="BackgroundImageFix"/>
<feBlend mode="normal" in="SourceGraphic" in2="BackgroundImageFix" result="shape"/>
<feGaussianBlur stdDeviation="1" result="effect1_foregroundBlur_267_23"/>
</filter>
</defs>
</svg>
