<svg width="143" height="42" viewBox="0 0 143 42" fill="none" xmlns="http://www.w3.org/2000/svg">
<path d="M142.967 37.6304C142.967 39.8881 141.139 41.7169 138.878 41.7169H5.04415C2.78389 41.7169 0.949219 39.8881 0.949219 37.6304V5.04136C0.949219 2.78468 2.78389 0.949463 5.04415 0.949463H138.877C141.139 0.949463 142.966 2.78468 142.966 5.04136L142.967 37.6304Z" fill="black"/>
<path d="M12.6035 24.6344C12.6035 25.4363 11.9474 26.0924 11.1455 26.0924C10.3436 26.0924 9.6875 25.4363 9.6875 24.6344V18.0735C9.6875 17.2716 10.3436 16.6155 11.1455 16.6155C11.9474 16.6155 12.6035 17.2716 12.6035 18.0735V24.6344ZM33.0153 24.6344C33.0153 25.4363 32.3592 26.0924 31.5573 26.0924C30.7554 26.0924 30.0993 25.4363 30.0993 24.6344V18.0735C30.0993 17.2716 30.7554 16.6155 31.5573 16.6155C32.3592 16.6155 33.0153 17.2716 33.0153 18.0735V24.6344ZM19.8934 32.6534C19.8934 33.4552 19.2373 34.1113 18.4354 34.1113C17.6335 34.1113 16.9774 33.4552 16.9774 32.6534V26.0924C16.9774 25.2905 17.6335 24.6344 18.4354 24.6344C19.2373 24.6344 19.8934 25.2905 19.8934 26.0924V32.6534ZM25.7254 32.6534C25.7254 33.4552 25.0693 34.1113 24.2674 34.1113C23.4655 34.1113 22.8094 33.4552 22.8094 32.6534V26.0924C22.8094 25.2905 23.4655 24.6344 24.2674 24.6344C25.0693 24.6344 25.7254 25.2905 25.7254 26.0924V32.6534Z" fill="white"/>
<path d="M14.0613 16.6154V27.5503C14.0613 28.3522 14.7174 29.0083 15.5193 29.0083H27.1832C27.9851 29.0083 28.6412 28.3522 28.6412 27.5503V16.6154H14.0613ZM21.3512 9.32544C16.9773 9.32544 14.28 11.9498 14.0613 15.1574H28.6412C28.4225 11.9498 25.7252 9.32544 21.3512 9.32544ZM18.4352 13.4078C17.9978 13.4078 17.7063 13.1162 17.7063 12.6788C17.7063 12.2414 17.9978 11.9498 18.4352 11.9498C18.8726 11.9498 19.1642 12.2414 19.1642 12.6788C19.1642 13.0433 18.8726 13.4078 18.4352 13.4078ZM24.2672 13.4078C23.8298 13.4078 23.5382 13.1162 23.5382 12.6788C23.5382 12.2414 23.8298 11.9498 24.2672 11.9498C24.7046 11.9498 24.9962 12.2414 24.9962 12.6788C24.9962 13.0433 24.7046 13.4078 24.2672 13.4078Z" fill="white"/>
<path d="M24.486 11.1477C24.3402 11.1477 24.1944 11.0748 24.0486 11.0019C23.6841 10.7832 23.6112 10.3458 23.8299 9.98134L25.0692 8.15885C25.2879 7.79436 25.7253 7.72146 26.0898 7.94016C26.4543 8.15885 26.5272 8.59625 26.3085 8.96075L25.0692 10.7832C24.9963 11.0019 24.7776 11.1477 24.486 11.1477ZM17.925 10.8561C17.7063 10.8561 17.4147 10.7103 17.3418 10.4916L16.3941 8.96075C16.1754 8.59625 16.2483 8.15885 16.6128 7.94016C16.9773 7.72146 17.4147 7.79436 17.6334 8.15885L18.5811 9.68974C18.7998 10.0542 18.7269 10.4916 18.3624 10.7103C18.2166 10.7832 18.0708 10.8561 17.925 10.8561Z" fill="white"/>
<path d="M56.0903 7.90484H58.7783C59.4341 7.90484 60.0168 8.03348 60.5263 8.29075C61.0358 8.54217 61.431 8.90176 61.7121 9.36952C61.9932 9.83143 62.1338 10.3664 62.1338 10.9745C62.1338 11.5826 61.9932 12.1205 61.7121 12.5883C61.431 13.0502 61.0358 13.4098 60.5263 13.6671C60.0168 13.9185 59.4341 14.0442 58.7783 14.0442H56.0903V7.90484ZM58.7256 13.0794C59.1765 13.0794 59.5718 12.9947 59.9114 12.8251C60.2569 12.6497 60.5204 12.4041 60.702 12.0884C60.8894 11.7668 60.9831 11.3955 60.9831 10.9745C60.9831 10.5535 60.8894 10.1852 60.702 9.86944C60.5204 9.54785 60.2569 9.30228 59.9114 9.13272C59.5718 8.9573 59.1765 8.8696 58.7256 8.8696H57.2323V13.0794H58.7256Z" fill="white"/>
<path d="M66.2199 14.1319C65.5933 14.1319 65.0282 13.9974 64.5245 13.7285C64.0209 13.4537 63.6256 13.0765 63.3387 12.5971C63.0518 12.1118 62.9083 11.5709 62.9083 10.9745C62.9083 10.3781 63.0518 9.8402 63.3387 9.36075C63.6256 8.87545 64.0209 8.49831 64.5245 8.22935C65.0282 7.95454 65.5933 7.81714 66.2199 7.81714C66.8465 7.81714 67.4116 7.95454 67.9152 8.22935C68.4188 8.49831 68.8141 8.87252 69.101 9.35198C69.388 9.83143 69.5315 10.3723 69.5315 10.9745C69.5315 11.5768 69.388 12.1176 69.101 12.5971C68.8141 13.0765 68.4188 13.4537 67.9152 13.7285C67.4116 13.9974 66.8465 14.1319 66.2199 14.1319ZM66.2199 13.1321C66.6298 13.1321 66.9987 13.0414 67.3267 12.8602C67.6546 12.6731 67.9123 12.4158 68.0997 12.0884C68.2871 11.7551 68.3808 11.3838 68.3808 10.9745C68.3808 10.5652 68.2871 10.1969 68.0997 9.86944C67.9123 9.53616 67.6546 9.27889 67.3267 9.09763C66.9987 8.91053 66.6298 8.81698 66.2199 8.81698C65.8099 8.81698 65.441 8.91053 65.1131 9.09763C64.7851 9.27889 64.5275 9.53616 64.3401 9.86944C64.1527 10.1969 64.059 10.5652 64.059 10.9745C64.059 11.3838 64.1527 11.7551 64.3401 12.0884C64.5275 12.4158 64.7851 12.6731 65.1131 12.8602C65.441 13.0414 65.8099 13.1321 66.2199 13.1321Z" fill="white"/>
<path d="M79.5307 7.90484L77.4928 14.0442H76.2806L74.7609 9.50108L73.2149 14.0442H71.994L69.9561 7.90484H71.1419L72.6703 12.5708L74.2602 7.90484H75.3143L76.8691 12.5971L78.4415 7.90484H79.5307Z" fill="white"/>
<path d="M85.9247 7.90484V14.0442H84.9848L81.5941 9.88698V14.0442H80.461V7.90484H81.4009L84.7915 12.0621V7.90484H85.9247Z" fill="white"/>
<path d="M87.5723 7.90484H88.7142V13.0794H91.9292V14.0442H87.5723V7.90484Z" fill="white"/>
<path d="M95.5916 14.1319C94.965 14.1319 94.3999 13.9974 93.8963 13.7285C93.3927 13.4537 92.9974 13.0765 92.7104 12.5971C92.4235 12.1118 92.28 11.5709 92.28 10.9745C92.28 10.3781 92.4235 9.8402 92.7104 9.36075C92.9974 8.87545 93.3927 8.49831 93.8963 8.22935C94.3999 7.95454 94.965 7.81714 95.5916 7.81714C96.2182 7.81714 96.7833 7.95454 97.2869 8.22935C97.7905 8.49831 98.1858 8.87252 98.4728 9.35198C98.7597 9.83143 98.9032 10.3723 98.9032 10.9745C98.9032 11.5768 98.7597 12.1176 98.4728 12.5971C98.1858 13.0765 97.7905 13.4537 97.2869 13.7285C96.7833 13.9974 96.2182 14.1319 95.5916 14.1319ZM95.5916 13.1321C96.0015 13.1321 96.3705 13.0414 96.6984 12.8602C97.0263 12.6731 97.284 12.4158 97.4714 12.0884C97.6588 11.7551 97.7525 11.3838 97.7525 10.9745C97.7525 10.5652 97.6588 10.1969 97.4714 9.86944C97.284 9.53616 97.0263 9.27889 96.6984 9.09763C96.3705 8.91053 96.0015 8.81698 95.5916 8.81698C95.1817 8.81698 94.8127 8.91053 94.4848 9.09763C94.1569 9.27889 93.8992 9.53616 93.7118 9.86944C93.5244 10.1969 93.4307 10.5652 93.4307 10.9745C93.4307 11.3838 93.5244 11.7551 93.7118 12.0884C93.8992 12.4158 94.1569 12.6731 94.4848 12.8602C94.8127 13.0414 95.1817 13.1321 95.5916 13.1321Z" fill="white"/>
<path d="M104.016 12.6234H100.941L100.335 14.0442H99.1582L101.925 7.90484H103.05L105.825 14.0442H104.631L104.016 12.6234ZM103.638 11.7288L102.479 9.04501L101.328 11.7288H103.638Z" fill="white"/>
<path d="M106.607 7.90484H109.295C109.951 7.90484 110.534 8.03348 111.043 8.29075C111.553 8.54217 111.948 8.90176 112.229 9.36952C112.51 9.83143 112.651 10.3664 112.651 10.9745C112.651 11.5826 112.51 12.1205 112.229 12.5883C111.948 13.0502 111.553 13.4098 111.043 13.6671C110.534 13.9185 109.951 14.0442 109.295 14.0442H106.607V7.90484ZM109.243 13.0794C109.693 13.0794 110.089 12.9947 110.428 12.8251C110.774 12.6497 111.037 12.4041 111.219 12.0884C111.406 11.7668 111.5 11.3955 111.5 10.9745C111.5 10.5535 111.406 10.1852 111.219 9.86944C111.037 9.54785 110.774 9.30228 110.428 9.13272C110.089 8.9573 109.693 8.8696 109.243 8.8696H107.749V13.0794H109.243Z" fill="white"/>
<path d="M120.28 12.6234H117.206L116.6 14.0442H115.422L118.189 7.90484H119.314L122.09 14.0442H120.895L120.28 12.6234ZM119.902 11.7288L118.743 9.04501L117.592 11.7288H119.902Z" fill="white"/>
<path d="M125.401 7.90484C125.934 7.90484 126.397 7.99255 126.789 8.16796C127.187 8.34337 127.492 8.59479 127.703 8.92222C127.914 9.24966 128.019 9.63848 128.019 10.0887C128.019 10.5331 127.914 10.9219 127.703 11.2552C127.492 11.5826 127.187 11.834 126.789 12.0094C126.397 12.1849 125.934 12.2726 125.401 12.2726H124.013V14.0442H122.872V7.90484H125.401ZM125.349 11.3078C125.846 11.3078 126.224 11.2026 126.482 10.9921C126.739 10.7816 126.868 10.4805 126.868 10.0887C126.868 9.69695 126.739 9.39583 126.482 9.18534C126.224 8.97485 125.846 8.8696 125.349 8.8696H124.013V11.3078H125.349Z" fill="white"/>
<path d="M131.276 11.4744L130.301 12.4743V14.0442H129.159V7.90484H130.301V11.0535L133.341 7.90484H134.623L132.041 10.65L134.781 14.0442H133.446L131.276 11.4744Z" fill="white"/>
<path d="M67.0513 30.8772H60.3435L59.0211 33.9772H56.4529L62.49 20.5822H64.9431L70.9993 33.9772H68.3929L67.0513 30.8772ZM66.2272 28.9254L63.6974 23.0699L61.1867 28.9254H66.2272Z" fill="white"/>
<path d="M78.2826 23.6439C79.573 23.6439 80.608 24.0203 81.3873 24.7729C82.1667 25.5256 82.5564 26.6418 82.5564 28.1217V33.9772H80.1608V28.4278C80.1608 27.5348 79.9499 26.8651 79.5283 26.4186C79.1067 25.9593 78.5062 25.7297 77.7268 25.7297C76.8452 25.7297 76.1488 25.9976 75.6378 26.5334C75.1267 27.0564 74.8712 27.8155 74.8712 28.8105V33.9772H72.4755V23.7587H74.7562V25.0791C75.1522 24.6071 75.6505 24.2499 76.2511 24.0075C76.8516 23.7651 77.5287 23.6439 78.2826 23.6439Z" fill="white"/>
<path d="M95.7125 19.7785V33.9772H93.4126V32.6568C93.0165 33.1416 92.5246 33.5052 91.9369 33.7475C91.3619 33.9899 90.7231 34.1111 90.0204 34.1111C89.0366 34.1111 88.1486 33.8943 87.3564 33.4605C86.577 33.0268 85.9637 32.4144 85.5166 31.6235C85.0694 30.8198 84.8458 29.9013 84.8458 28.868C84.8458 27.8346 85.0694 26.9225 85.5166 26.1316C85.9637 25.3406 86.577 24.7283 87.3564 24.2945C88.1486 23.8608 89.0366 23.6439 90.0204 23.6439C90.6976 23.6439 91.3172 23.7587 91.8794 23.9884C92.4416 24.218 92.9207 24.5624 93.3168 25.0217V19.7785H95.7125ZM90.3079 32.0636C90.8828 32.0636 91.4003 31.936 91.8602 31.6809C92.3202 31.413 92.6844 31.0367 92.9527 30.5519C93.221 30.0671 93.3551 29.5058 93.3551 28.868C93.3551 28.2301 93.221 27.6688 92.9527 27.184C92.6844 26.6992 92.3202 26.3293 91.8602 26.0741C91.4003 25.8063 90.8828 25.6723 90.3079 25.6723C89.7329 25.6723 89.2154 25.8063 88.7555 26.0741C88.2955 26.3293 87.9314 26.6992 87.6631 27.184C87.3947 27.6688 87.2606 28.2301 87.2606 28.868C87.2606 29.5058 87.3947 30.0671 87.6631 30.5519C87.9314 31.0367 88.2955 31.413 88.7555 31.6809C89.2154 31.936 89.7329 32.0636 90.3079 32.0636Z" fill="white"/>
<path d="M101.127 25.2513C101.817 24.1797 103.031 23.6439 104.768 23.6439V25.9211C104.564 25.8828 104.379 25.8637 104.213 25.8637C103.28 25.8637 102.552 26.1379 102.028 26.6865C101.504 27.2223 101.242 28.0005 101.242 29.021V33.9772H98.8464V23.7587H101.127V25.2513Z" fill="white"/>
<path d="M111.307 34.1111C110.272 34.1111 109.339 33.8879 108.509 33.4414C107.678 32.9949 107.027 32.3762 106.554 31.5852C106.094 30.7815 105.864 29.8758 105.864 28.868C105.864 27.8601 106.094 26.9608 106.554 26.1698C107.027 25.3789 107.678 24.7602 108.509 24.3137C109.339 23.8672 110.272 23.6439 111.307 23.6439C112.355 23.6439 113.294 23.8672 114.124 24.3137C114.955 24.7602 115.6 25.3789 116.06 26.1698C116.533 26.9608 116.769 27.8601 116.769 28.868C116.769 29.8758 116.533 30.7815 116.06 31.5852C115.6 32.3762 114.955 32.9949 114.124 33.4414C113.294 33.8879 112.355 34.1111 111.307 34.1111ZM111.307 32.0636C112.188 32.0636 112.917 31.7702 113.492 31.1834C114.067 30.5965 114.354 29.8247 114.354 28.868C114.354 27.9112 114.067 27.1394 113.492 26.5525C112.917 25.9657 112.188 25.6723 111.307 25.6723C110.425 25.6723 109.697 25.9657 109.122 26.5525C108.56 27.1394 108.279 27.9112 108.279 28.868C108.279 29.8247 108.56 30.5965 109.122 31.1834C109.697 31.7702 110.425 32.0636 111.307 32.0636Z" fill="white"/>
<path d="M119.06 23.7587H121.455V33.9772H119.06V23.7587ZM120.267 22.0748C119.833 22.0748 119.469 21.9408 119.175 21.6729C118.881 21.3923 118.734 21.0479 118.734 20.6396C118.734 20.2314 118.881 19.8933 119.175 19.6254C119.469 19.3448 119.833 19.2044 120.267 19.2044C120.702 19.2044 121.066 19.3384 121.36 19.6063C121.653 19.8614 121.8 20.1867 121.8 20.5822C121.8 21.0032 121.653 21.3604 121.36 21.6538C121.078 21.9345 120.714 22.0748 120.267 22.0748Z" fill="white"/>
<path d="M134.623 19.7785V33.9772H132.323V32.6568C131.927 33.1416 131.435 33.5052 130.848 33.7475C130.273 33.9899 129.634 34.1111 128.931 34.1111C127.947 34.1111 127.059 33.8943 126.267 33.4605C125.488 33.0268 124.874 32.4144 124.427 31.6235C123.98 30.8198 123.756 29.9013 123.756 28.868C123.756 27.8346 123.98 26.9225 124.427 26.1316C124.874 25.3406 125.488 24.7283 126.267 24.2945C127.059 23.8608 127.947 23.6439 128.931 23.6439C129.608 23.6439 130.228 23.7587 130.79 23.9884C131.352 24.218 131.831 24.5624 132.227 25.0217V19.7785H134.623ZM129.219 32.0636C129.793 32.0636 130.311 31.936 130.771 31.6809C131.231 31.413 131.595 31.0367 131.863 30.5519C132.132 30.0671 132.266 29.5058 132.266 28.868C132.266 28.2301 132.132 27.6688 131.863 27.184C131.595 26.6992 131.231 26.3293 130.771 26.0741C130.311 25.8063 129.793 25.6723 129.219 25.6723C128.644 25.6723 128.126 25.8063 127.666 26.0741C127.206 26.3293 126.842 26.6992 126.574 27.184C126.305 27.6688 126.171 28.2301 126.171 28.868C126.171 29.5058 126.305 30.0671 126.574 30.5519C126.842 31.0367 127.206 31.413 127.666 31.6809C128.126 31.936 128.644 32.0636 129.219 32.0636Z" fill="white"/>
</svg>
