<svg width="143" height="42" viewBox="0 0 143 42" fill="none" xmlns="http://www.w3.org/2000/svg">
<path d="M142.967 37.5621C142.967 39.8158 141.139 41.6413 138.878 41.6413H5.04415C2.78389 41.6413 0.949219 39.8158 0.949219 37.5621V5.03223C0.949219 2.77964 2.78389 0.947754 5.04415 0.947754H138.877C141.139 0.947754 142.966 2.77964 142.966 5.03223L142.967 37.5621Z" fill="black"/>
<path d="M28.1793 22.4495C28.1484 19.0169 30.9943 17.3469 31.1244 17.2691C29.5127 14.9228 27.0145 14.6022 26.1367 14.5767C24.0385 14.3562 22.0033 15.8302 20.9345 15.8302C19.8444 15.8302 18.1985 14.598 16.4247 14.6342C14.142 14.6693 12.0065 15.9889 10.8353 18.0381C8.41827 22.2163 10.2209 28.3563 12.5367 31.7336C13.6951 33.3876 15.0487 35.2344 16.8204 35.1695C18.5537 35.0981 19.2012 34.0661 21.2929 34.0661C23.3655 34.0661 23.9735 35.1695 25.7804 35.1279C27.6407 35.0981 28.8119 33.4665 29.9297 31.7975C31.2684 29.9017 31.806 28.0347 31.8273 27.9388C31.7836 27.9239 28.2145 26.5638 28.1793 22.4495Z" fill="white"/>
<path d="M24.7661 12.355C25.6983 11.1909 26.3362 9.60716 26.1591 8C24.8098 8.05964 23.1223 8.93192 22.1506 10.0705C21.2909 11.0737 20.5229 12.7182 20.7213 14.2646C22.237 14.3775 23.7933 13.501 24.7661 12.355Z" fill="white"/>
<path d="M61.4676 32.2863H59.0452L57.7183 28.123H53.106L51.842 32.2863H49.4836L54.0532 18.1125H56.8756L61.4676 32.2863ZM57.3183 26.3763L56.1183 22.6752C55.9914 22.2971 55.7535 21.4068 55.4026 20.0051H55.3599C55.2202 20.608 54.9951 21.4984 54.6858 22.6752L53.5071 26.3763H57.3183Z" fill="white"/>
<path d="M73.2194 27.0505C73.2194 28.7886 72.749 30.1625 71.8082 31.1712C70.9655 32.069 69.9191 32.5174 68.67 32.5174C67.3218 32.5174 66.3532 32.0338 65.7634 31.0668H65.7207V36.4506H63.4466V25.4305C63.4466 24.3378 63.4178 23.2163 63.3623 22.066H65.3623L65.4892 23.686H65.5319C66.2903 22.4654 67.4412 21.8562 68.9858 21.8562C70.1932 21.8562 71.2012 22.3323 72.0076 23.2855C72.8162 24.2398 73.2194 25.4944 73.2194 27.0505ZM70.9026 27.1335C70.9026 26.1388 70.6786 25.3187 70.2284 24.6733C69.7367 24.0002 69.0764 23.6636 68.2487 23.6636C67.6876 23.6636 67.1778 23.851 66.7223 24.2206C66.2658 24.5934 65.9671 25.0801 65.8274 25.6829C65.757 25.9641 65.7218 26.1942 65.7218 26.3752V28.0793C65.7218 28.8227 65.95 29.45 66.4066 29.9623C66.8631 30.4746 67.4562 30.7302 68.1858 30.7302C69.0423 30.7302 69.709 30.4001 70.1858 29.7419C70.6636 29.0826 70.9026 28.2135 70.9026 27.1335Z" fill="white"/>
<path d="M84.9922 27.0505C84.9922 28.7886 84.5218 30.1625 83.58 31.1712C82.7384 32.069 81.692 32.5174 80.4429 32.5174C79.0946 32.5174 78.1261 32.0338 77.5373 31.0668H77.4946V36.4506H75.2205V25.4305C75.2205 24.3378 75.1917 23.2163 75.1362 22.066H77.1362L77.2632 23.686H77.3058C78.0632 22.4654 79.2141 21.8562 80.7597 21.8562C81.9661 21.8562 82.9741 22.3323 83.7826 23.2855C84.588 24.2398 84.9922 25.4944 84.9922 27.0505ZM82.6754 27.1335C82.6754 26.1388 82.4504 25.3187 82.0002 24.6733C81.5085 24.0002 80.8504 23.6636 80.0216 23.6636C79.4594 23.6636 78.9506 23.851 78.4941 24.2206C78.0376 24.5934 77.74 25.0801 77.6002 25.6829C77.5309 25.9641 77.4946 26.1942 77.4946 26.3752V28.0793C77.4946 28.8227 77.7229 29.45 78.1773 29.9623C78.6338 30.4735 79.2269 30.7302 79.9586 30.7302C80.8152 30.7302 81.4818 30.4001 81.9586 29.7419C82.4365 29.0826 82.6754 28.2135 82.6754 27.1335Z" fill="white"/>
<path d="M98.1548 28.3117C98.1548 29.5173 97.7356 30.4982 96.894 31.2555C95.9692 32.083 94.6817 32.4963 93.0273 32.4963C91.4999 32.4963 90.2753 32.2023 89.3484 31.6133L89.8753 29.7207C90.8737 30.3235 91.9692 30.626 93.1628 30.626C94.0193 30.626 94.686 30.4322 95.1649 30.0466C95.6417 29.6611 95.8796 29.1435 95.8796 28.498C95.8796 27.9229 95.6833 27.4383 95.2897 27.0453C94.8983 26.6523 94.2444 26.287 93.3313 25.9494C90.846 25.0238 89.6044 23.668 89.6044 21.8851C89.6044 20.72 90.0396 19.7646 90.9111 19.0212C91.7793 18.2767 92.9377 17.905 94.3863 17.905C95.678 17.905 96.7511 18.1298 97.6076 18.5781L97.0391 20.4292C96.2391 19.9947 95.3345 19.7774 94.3223 19.7774C93.5223 19.7774 92.8972 19.9744 92.4492 20.3664C92.0705 20.7168 91.8807 21.1439 91.8807 21.6498C91.8807 22.21 92.0972 22.6733 92.5324 23.0375C92.9111 23.3741 93.5991 23.7383 94.5975 24.1313C95.8188 24.6223 96.7159 25.1964 97.2929 25.8546C97.8679 26.5107 98.1548 27.3318 98.1548 28.3117Z" fill="white"/>
<path d="M105.674 23.7702H103.167V28.7322C103.167 29.9943 103.608 30.6248 104.494 30.6248C104.9 30.6248 105.237 30.5897 105.504 30.5194L105.567 32.2437C105.119 32.4109 104.529 32.4951 103.798 32.4951C102.9 32.4951 102.198 32.2214 101.692 31.675C101.187 31.1275 100.933 30.2095 100.933 28.9197V23.768H99.4399V22.0639H100.933V20.1926L103.167 19.5195V22.0639H105.674V23.7702Z" fill="white"/>
<path d="M116.984 27.0922C116.984 28.6631 116.533 29.9529 115.635 30.9615C114.693 31.9999 113.443 32.5175 111.885 32.5175C110.383 32.5175 109.187 32.0202 108.296 31.0254C107.404 30.0306 106.958 28.7749 106.958 27.2615C106.958 25.6778 107.417 24.3805 108.337 23.3719C109.256 22.3623 110.495 21.8574 112.053 21.8574C113.555 21.8574 114.764 22.3548 115.676 23.3506C116.548 24.3166 116.984 25.5638 116.984 27.0922ZM114.624 27.1656C114.624 26.2231 114.423 25.4147 114.014 24.7405C113.537 23.9247 112.856 23.5178 111.972 23.5178C111.058 23.5178 110.364 23.9258 109.887 24.7405C109.479 25.4158 109.277 26.2369 109.277 27.2082C109.277 28.1508 109.479 28.9592 109.887 29.6323C110.379 30.4481 111.066 30.855 111.952 30.855C112.82 30.855 113.502 30.4396 113.994 29.611C114.413 28.924 114.624 28.1072 114.624 27.1656Z" fill="white"/>
<path d="M124.376 24.063C124.151 24.0215 123.911 24.0002 123.659 24.0002C122.859 24.0002 122.24 24.3016 121.805 24.9054C121.426 25.438 121.236 26.1111 121.236 26.9237V32.2863H118.963L118.985 25.2846C118.985 24.1067 118.956 23.0341 118.899 22.0671H120.88L120.963 24.0225H121.026C121.266 23.3505 121.645 22.8094 122.163 22.4036C122.67 22.0383 123.217 21.8562 123.807 21.8562C124.017 21.8562 124.207 21.8711 124.376 21.8977V24.063Z" fill="white"/>
<path d="M134.546 26.6927C134.546 27.0996 134.52 27.4425 134.463 27.7226H127.641C127.667 28.7323 127.997 29.5045 128.631 30.037C129.205 30.5131 129.949 30.7517 130.862 30.7517C131.872 30.7517 132.794 30.5908 133.623 30.2681L133.979 31.8444C133.01 32.2662 131.867 32.476 130.547 32.476C128.96 32.476 127.714 32.0095 126.808 31.0776C125.903 30.1456 125.45 28.8942 125.45 27.3243C125.45 25.7832 125.871 24.4998 126.715 23.4763C127.598 22.3835 128.792 21.8372 130.293 21.8372C131.769 21.8372 132.885 22.3835 133.644 23.4763C134.244 24.3443 134.546 25.4179 134.546 26.6927ZM132.378 26.1038C132.393 25.4306 132.244 24.8491 131.936 24.3581C131.543 23.7266 130.938 23.4113 130.124 23.4113C129.38 23.4113 128.776 23.7191 128.314 24.3368C127.935 24.8278 127.71 25.4168 127.641 26.1027L132.378 26.1038Z" fill="white"/>
<path d="M56.5665 9.39318C56.5665 10.6467 56.19 11.5904 55.438 12.2241C54.7414 12.8088 53.7516 13.1017 52.4694 13.1017C51.8337 13.1017 51.2897 13.074 50.8342 13.0186V6.16926C51.4284 6.07341 52.0684 6.02441 52.7596 6.02441C53.9809 6.02441 54.9014 6.28961 55.5222 6.82001C56.2177 7.41963 56.5665 8.277 56.5665 9.39318ZM55.3878 9.42406C55.3878 8.61143 55.1724 7.98837 54.7414 7.55383C54.3105 7.12035 53.6812 6.90308 52.8524 6.90308C52.5004 6.90308 52.2006 6.92651 51.9521 6.97551V12.1825C52.0897 12.2039 52.3414 12.2134 52.7073 12.2134C53.5628 12.2134 54.223 11.9759 54.6881 11.5009C55.1532 11.0259 55.3878 10.3336 55.3878 9.42406Z" fill="white"/>
<path d="M62.8162 10.488C62.8162 11.2602 62.5954 11.8928 62.1538 12.3891C61.6908 12.8993 61.0775 13.1539 60.3116 13.1539C59.5735 13.1539 58.9858 12.91 58.5474 12.42C58.11 11.9312 57.8914 11.3145 57.8914 10.5711C57.8914 9.79361 58.1164 9.15565 58.5687 8.6604C59.021 8.16515 59.629 7.91699 60.3948 7.91699C61.133 7.91699 61.726 8.16089 62.1751 8.64975C62.6018 9.12476 62.8162 9.73823 62.8162 10.488ZM61.6567 10.5242C61.6567 10.0609 61.5564 9.66368 61.357 9.33245C61.1223 8.93199 60.7884 8.73176 60.3543 8.73176C59.9052 8.73176 59.5639 8.93199 59.3292 9.33245C59.1287 9.66368 59.0295 10.0673 59.0295 10.5445C59.0295 11.0078 59.1298 11.405 59.3292 11.7363C59.5714 12.1367 59.9084 12.337 60.3436 12.337C60.7703 12.337 61.1052 12.1335 61.3463 11.7256C61.5532 11.388 61.6567 10.9875 61.6567 10.5242Z" fill="white"/>
<path d="M71.1957 8.01929L69.6224 13.0399H68.5984L67.9467 10.8598C67.7813 10.3155 67.6469 9.77449 67.5424 9.23771H67.5221C67.4251 9.7894 67.2907 10.3294 67.1179 10.8598L66.4256 13.0399H65.3899L63.9104 8.01929H65.0592L65.6277 10.4061C65.7653 10.9705 65.8784 11.5084 65.9691 12.0175H65.9893C66.0725 11.5979 66.2101 11.0632 66.4043 10.4167L67.1179 8.02035H68.0288L68.7125 10.3656C68.8779 10.9375 69.0123 11.4882 69.1157 12.0186H69.1467C69.2224 11.502 69.3365 10.9514 69.488 10.3656L70.0981 8.02035H71.1957V8.01929Z" fill="white"/>
<path d="M76.9912 13.0399H75.8733V10.1643C75.8733 9.27815 75.5363 8.83509 74.86 8.83509C74.5283 8.83509 74.2605 8.95651 74.0525 9.2004C73.8467 9.4443 73.7421 9.73186 73.7421 10.061V13.0389H72.6243V9.45388C72.6243 9.01295 72.6104 8.53474 72.5837 8.01713H73.5661L73.6184 8.80207H73.6493C73.7795 8.55818 73.9736 8.35688 74.2285 8.19606C74.5315 8.00861 74.8707 7.91382 75.2419 7.91382C75.7112 7.91382 76.1016 8.06506 76.412 8.3686C76.7981 8.7403 76.9912 9.29519 76.9912 10.0322V13.0399Z" fill="white"/>
<path d="M80.0738 13.0397H78.957V5.71533H80.0738V13.0397Z" fill="white"/>
<path d="M86.655 10.488C86.655 11.2602 86.4342 11.8928 85.9926 12.3891C85.5297 12.8993 84.9153 13.1539 84.1505 13.1539C83.4113 13.1539 82.8236 12.91 82.3862 12.42C81.9489 11.9312 81.7302 11.3145 81.7302 10.5711C81.7302 9.79361 81.9553 9.15565 82.4076 8.6604C82.8598 8.16515 83.4678 7.91699 84.2326 7.91699C84.9718 7.91699 85.5638 8.16089 86.014 8.64975C86.4406 9.12476 86.655 9.73823 86.655 10.488ZM85.4945 10.5242C85.4945 10.0609 85.3942 9.66368 85.1948 9.33245C84.9612 8.93199 84.6262 8.73176 84.1932 8.73176C83.743 8.73176 83.4017 8.93199 83.1681 9.33245C82.9676 9.66368 82.8684 10.0673 82.8684 10.5445C82.8684 11.0078 82.9686 11.405 83.1681 11.7363C83.4102 12.1367 83.7473 12.337 84.1825 12.337C84.6092 12.337 84.943 12.1335 85.1841 11.7256C85.3921 11.388 85.4945 10.9875 85.4945 10.5242Z" fill="white"/>
<path d="M92.0653 13.0399H91.0615L90.9783 12.4616H90.9474C90.6039 12.9227 90.1143 13.1539 89.4786 13.1539C89.0039 13.1539 88.6199 13.0016 88.3309 12.6991C88.0685 12.4243 87.9373 12.0824 87.9373 11.6766C87.9373 11.0632 88.1933 10.5956 88.7085 10.2718C89.2226 9.94805 89.9458 9.78935 90.877 9.79681V9.70309C90.877 9.04169 90.5293 8.71152 89.8327 8.71152C89.3367 8.71152 88.8994 8.83613 88.5218 9.08323L88.2946 8.35047C88.7618 8.06184 89.3389 7.91699 90.0194 7.91699C91.3335 7.91699 91.9927 8.60928 91.9927 9.99384V11.8428C91.9927 12.3444 92.0173 12.7438 92.0653 13.0399ZM90.9047 11.3145V10.5402C89.6717 10.5189 89.0551 10.8565 89.0551 11.552C89.0551 11.814 89.1255 12.01 89.2695 12.141C89.4135 12.272 89.597 12.337 89.8157 12.337C90.061 12.337 90.2903 12.2592 90.4994 12.1048C90.7095 11.9493 90.8386 11.7522 90.8866 11.5105C90.8983 11.4562 90.9047 11.3901 90.9047 11.3145Z" fill="white"/>
<path d="M98.4172 13.0397H97.4252L97.3729 12.2335H97.342C97.0252 12.8469 96.4855 13.1537 95.7271 13.1537C95.1212 13.1537 94.6167 12.9162 94.2167 12.4411C93.8167 11.9661 93.6172 11.3495 93.6172 10.5922C93.6172 9.77957 93.8337 9.12137 94.2689 8.61867C94.6903 8.15004 95.2065 7.91573 95.8209 7.91573C96.4961 7.91573 96.9687 8.14259 97.2375 8.59736H97.2588V5.71533H98.3777V11.6871C98.3777 12.1759 98.3905 12.6265 98.4172 13.0397ZM97.2588 10.9224V10.0852C97.2588 9.9404 97.2481 9.82324 97.2278 9.73378C97.1649 9.46538 97.0295 9.23959 96.8236 9.05747C96.6156 8.87534 96.3649 8.78375 96.0758 8.78375C95.6588 8.78375 95.3324 8.94883 95.0924 9.28006C94.8545 9.61129 94.734 10.0341 94.734 10.5507C94.734 11.047 94.8481 11.4496 95.0774 11.7595C95.3196 12.0897 95.646 12.2548 96.0545 12.2548C96.4214 12.2548 96.7148 12.1174 96.9377 11.8415C97.1532 11.587 97.2588 11.2802 97.2588 10.9224Z" fill="white"/>
<path d="M107.978 10.488C107.978 11.2602 107.757 11.8928 107.315 12.3891C106.852 12.8993 106.24 13.1539 105.473 13.1539C104.736 13.1539 104.148 12.91 103.709 12.42C103.271 11.9312 103.053 11.3145 103.053 10.5711C103.053 9.79361 103.278 9.15565 103.73 8.6604C104.182 8.16515 104.79 7.91699 105.557 7.91699C106.294 7.91699 106.888 8.16089 107.336 8.64975C107.763 9.12476 107.978 9.73823 107.978 10.488ZM106.819 10.5242C106.819 10.0609 106.719 9.66368 106.519 9.33245C106.284 8.93199 105.951 8.73176 105.516 8.73176C105.068 8.73176 104.726 8.93199 104.491 9.33245C104.29 9.66368 104.191 10.0673 104.191 10.5445C104.191 11.0078 104.291 11.405 104.491 11.7363C104.733 12.1367 105.07 12.337 105.505 12.337C105.932 12.337 106.268 12.1335 106.509 11.7256C106.715 11.388 106.819 10.9875 106.819 10.5242Z" fill="white"/>
<path d="M113.988 13.0399H112.872V10.1643C112.872 9.27815 112.535 8.83509 111.857 8.83509C111.526 8.83509 111.258 8.95651 111.051 9.2004C110.844 9.4443 110.74 9.73186 110.74 10.061V13.0389H109.622V9.45388C109.622 9.01295 109.609 8.53474 109.582 8.01713H110.563L110.616 8.80207H110.647C110.778 8.55818 110.972 8.35688 111.226 8.19606C111.53 8.00861 111.868 7.91382 112.24 7.91382C112.708 7.91382 113.099 8.06506 113.409 8.3686C113.796 8.7403 113.988 9.29519 113.988 10.0322V13.0399Z" fill="white"/>
<path d="M121.511 8.85524H120.28V11.2942C120.28 11.9141 120.499 12.224 120.932 12.224C121.133 12.224 121.299 12.207 121.43 12.1718L121.459 13.0185C121.238 13.1016 120.948 13.1431 120.591 13.1431C120.149 13.1431 119.806 13.0089 119.557 12.7406C119.308 12.4722 119.184 12.0206 119.184 11.3869V8.85524H118.449V8.01917H119.184V7.09897L120.279 6.7688V8.01811H121.51L121.511 8.85524Z" fill="white"/>
<path d="M127.429 13.0397H126.31V10.1854C126.31 9.28539 125.973 8.83487 125.298 8.83487C124.78 8.83487 124.426 9.09581 124.232 9.61769C124.199 9.72739 124.179 9.86158 124.179 10.0192V13.0386H123.062V5.71533H124.179V8.74115H124.201C124.553 8.19051 125.057 7.91573 125.711 7.91573C126.174 7.91573 126.557 8.06697 126.861 8.37051C127.24 8.7486 127.429 9.31095 127.429 10.0544V13.0397Z" fill="white"/>
<path d="M133.534 10.2921C133.534 10.4924 133.519 10.6606 133.493 10.798H130.14C130.155 11.2943 130.315 11.6724 130.625 11.9344C130.909 12.1687 131.275 12.2859 131.723 12.2859C132.219 12.2859 132.671 12.2071 133.079 12.0484L133.254 12.8238C132.777 13.0304 132.216 13.1337 131.566 13.1337C130.787 13.1337 130.174 12.9047 129.73 12.4467C129.285 11.9888 129.064 11.3742 129.064 10.6031C129.064 9.84587 129.27 9.21536 129.685 8.71265C130.118 8.17586 130.703 7.90747 131.442 7.90747C132.166 7.90747 132.715 8.17586 133.086 8.71265C133.386 9.13867 133.534 9.66587 133.534 10.2921ZM132.467 10.0035C132.476 9.67226 132.402 9.38683 132.251 9.14613C132.057 8.8362 131.761 8.6807 131.361 8.6807C130.997 8.6807 130.699 8.83194 130.472 9.13548C130.286 9.37724 130.176 9.66587 130.14 10.0035H132.467Z" fill="white"/>
</svg>
