<svg width="674" height="674" viewBox="0 0 674 674" fill="none" xmlns="http://www.w3.org/2000/svg">
<g opacity="0.55" filter="url(#filter0_f_56_627)">
<circle cx="337" cy="337" r="161" fill="#B1FA16" fill-opacity="0.51"/>
</g>
<mask id="path-2-inside-1_56_627" fill="white">
<path fill-rule="evenodd" clip-rule="evenodd" d="M532.062 451.827H415.812V484.277H454.045C456.39 484.277 458.31 486.19 458.31 488.541V490.086C458.31 492.423 456.39 494.349 454.045 494.349H302.906C300.561 494.349 298.642 492.423 298.642 490.086V488.541C298.642 486.19 300.561 484.277 302.906 484.277H341.14V451.827H224.888C217.742 451.827 211.95 446.031 211.95 438.883V236.191C211.95 229.044 217.742 223.253 224.888 223.253H532.062C539.21 223.253 545 229.044 545 236.191V438.883C545 446.031 539.21 451.827 532.062 451.827Z"/>
</mask>
<path fill-rule="evenodd" clip-rule="evenodd" d="M532.062 451.827H415.812V484.277H454.045C456.39 484.277 458.31 486.19 458.31 488.541V490.086C458.31 492.423 456.39 494.349 454.045 494.349H302.906C300.561 494.349 298.642 492.423 298.642 490.086V488.541C298.642 486.19 300.561 484.277 302.906 484.277H341.14V451.827H224.888C217.742 451.827 211.95 446.031 211.95 438.883V236.191C211.95 229.044 217.742 223.253 224.888 223.253H532.062C539.21 223.253 545 229.044 545 236.191V438.883C545 446.031 539.21 451.827 532.062 451.827Z" fill="black"/>
<path d="M415.812 451.827V448.827H412.812V451.827H415.812ZM415.812 484.277H412.812V487.277H415.812V484.277ZM341.14 484.277V487.277H344.14V484.277H341.14ZM341.14 451.827H344.14V448.827H341.14V451.827ZM415.812 454.827H532.062V448.827H415.812V454.827ZM418.812 484.277V451.827H412.812V484.277H418.812ZM415.812 487.277H454.045V481.277H415.812V487.277ZM454.045 487.277C454.737 487.277 455.31 487.851 455.31 488.541H461.31C461.31 484.529 458.043 481.277 454.045 481.277V487.277ZM455.31 488.541V490.086H461.31V488.541H455.31ZM455.31 490.086C455.31 490.768 454.731 491.349 454.045 491.349V497.349C458.049 497.349 461.31 494.077 461.31 490.086H455.31ZM454.045 491.349H302.906V497.349H454.045V491.349ZM302.906 491.349C302.221 491.349 301.642 490.769 301.642 490.086H295.642C295.642 494.077 298.902 497.349 302.906 497.349V491.349ZM301.642 490.086V488.541H295.642V490.086H301.642ZM301.642 488.541C301.642 487.85 302.215 487.277 302.906 487.277V481.277C298.908 481.277 295.642 484.53 295.642 488.541H301.642ZM302.906 487.277H341.14V481.277H302.906V487.277ZM338.14 451.827V484.277H344.14V451.827H338.14ZM224.888 454.827H341.14V448.827H224.888V454.827ZM208.95 438.883C208.95 447.686 216.083 454.827 224.888 454.827V448.827C219.4 448.827 214.95 444.376 214.95 438.883H208.95ZM208.95 236.191V438.883H214.95V236.191H208.95ZM224.888 220.253C216.085 220.253 208.95 227.388 208.95 236.191H214.95C214.95 230.701 219.399 226.253 224.888 226.253V220.253ZM532.062 220.253H224.888V226.253H532.062V220.253ZM548 236.191C548 227.388 540.867 220.253 532.062 220.253V226.253C537.553 226.253 542 230.701 542 236.191H548ZM548 438.883V236.191H542V438.883H548ZM532.062 454.827C540.869 454.827 548 447.686 548 438.883H542C542 444.376 537.551 448.827 532.062 448.827V454.827Z" fill="#B1FA16" mask="url(#path-2-inside-1_56_627)"/>
<path d="M516.229 433.192H241.37C235.636 433.192 230.711 427.959 230.711 421.157V252.609C230.711 245.805 235.636 240.575 241.37 240.575H516.229C521.969 240.575 526.89 245.805 526.89 252.609V421.157C526.89 427.96 521.969 433.192 516.229 433.192Z" stroke="#B1FA16" stroke-width="3"/>
<mask id="path-5-inside-2_56_627" fill="white">
<path d="M405.572 451.952H350.591L350.033 451.233L350.591 450.514H405.572L406.129 451.233L405.572 451.952Z"/>
</mask>
<path d="M405.572 451.952H350.591L350.033 451.233L350.591 450.514H405.572L406.129 451.233L405.572 451.952Z" fill="#727272"/>
<path d="M405.572 451.952V454.952H407.042L407.943 453.79L405.572 451.952ZM350.591 451.952L348.22 453.79L349.121 454.952H350.591V451.952ZM350.033 451.233L347.662 449.395L346.237 451.233L347.662 453.071L350.033 451.233ZM350.591 450.514V447.514H349.121L348.22 448.676L350.591 450.514ZM405.572 450.514L407.943 448.676L407.042 447.514H405.572V450.514ZM406.129 451.233L408.5 453.071L409.925 451.233L408.5 449.395L406.129 451.233ZM405.572 448.952H350.591V454.952H405.572V448.952ZM352.962 450.114L352.404 449.395L347.662 453.071L348.22 453.79L352.962 450.114ZM352.404 453.071L352.962 452.352L348.22 448.676L347.662 449.395L352.404 453.071ZM350.591 453.514H405.572V447.514H350.591V453.514ZM403.201 452.352L403.758 453.071L408.5 449.395L407.943 448.676L403.201 452.352ZM403.758 449.395L403.201 450.114L407.943 453.79L408.5 453.071L403.758 449.395Z" fill="#B1FA16" mask="url(#path-5-inside-2_56_627)"/>
<mask id="path-7-inside-3_56_627" fill="white">
<path d="M405.572 485.034H352.029L351.471 484.315L352.029 483.596H405.572L406.129 484.315L405.572 485.034Z"/>
</mask>
<path d="M405.572 485.034H352.029L351.471 484.315L352.029 483.596H405.572L406.129 484.315L405.572 485.034Z" fill="#727272"/>
<path d="M405.572 485.034V488.034H407.042L407.942 486.873L405.572 485.034ZM352.029 485.034L349.658 486.873L350.559 488.034H352.029V485.034ZM351.471 484.315L349.101 482.477L347.675 484.315L349.101 486.153L351.471 484.315ZM352.029 483.596V480.596H350.559L349.658 481.758L352.029 483.596ZM405.572 483.596L407.942 481.758L407.042 480.596H405.572V483.596ZM406.129 484.315L408.5 486.153L409.925 484.315L408.5 482.477L406.129 484.315ZM405.572 482.034H352.029V488.034H405.572V482.034ZM354.4 483.196L353.842 482.477L349.101 486.153L349.658 486.873L354.4 483.196ZM353.842 486.154L354.4 485.434L349.658 481.758L349.101 482.477L353.842 486.154ZM352.029 486.596H405.572V480.596H352.029V486.596ZM403.201 485.434L403.758 486.154L408.5 482.477L407.942 481.758L403.201 485.434ZM403.758 482.477L403.201 483.196L407.942 486.873L408.5 486.153L403.758 482.477Z" fill="#B1FA16" mask="url(#path-7-inside-3_56_627)"/>
<g filter="url(#filter1_f_56_627)">
<circle cx="297.166" cy="334.083" r="21.3815" stroke="#B1FA16"/>
</g>
<circle cx="297.166" cy="334.083" r="28.7962" stroke="#B1FA16" stroke-width="4"/>
<path d="M379.874 319.497C379.4 319.497 379.016 319.879 379.016 320.358V344.174L366.868 319.969C366.575 319.393 365.621 319.393 365.328 319.969L353.187 344.174V320.358C353.187 319.879 352.803 319.497 352.329 319.497C351.848 319.497 351.465 319.879 351.465 320.358V347.806C351.465 348.209 351.744 348.556 352.127 348.647C352.51 348.744 352.915 348.543 353.096 348.195L366.101 322.275L379.107 348.195C379.253 348.487 379.553 348.667 379.874 348.667C379.943 348.667 380.006 348.66 380.076 348.647C380.466 348.549 380.738 348.209 380.738 347.806V320.358C380.738 319.879 380.355 319.497 379.874 319.497ZM408.248 347.424L401.369 333.714C401.362 333.707 401.355 333.693 401.355 333.686L394.469 319.969C394.176 319.393 393.221 319.393 392.929 319.969L386.049 333.686C386.049 333.693 386.042 333.707 386.035 333.714L379.156 347.424C378.94 347.848 379.114 348.362 379.539 348.577C379.965 348.792 380.487 348.619 380.697 348.195L387.345 334.936H400.058L406.708 348.195C406.861 348.494 407.168 348.667 407.481 348.667C407.614 348.667 407.739 348.64 407.865 348.577C408.29 348.369 408.464 347.848 408.248 347.424ZM388.21 333.221L393.702 322.275L399.194 333.228H388.21V333.221ZM435.123 346.952H408.966L422.118 320.74C422.327 320.316 422.153 319.802 421.728 319.587C421.303 319.372 420.787 319.553 420.578 319.969L406.798 347.424C406.666 347.695 406.68 348.008 406.833 348.258C406.994 348.515 407.272 348.667 407.565 348.667H435.117C435.598 348.667 435.981 348.285 435.981 347.806C435.981 347.334 435.598 346.952 435.123 346.952ZM449.386 346.952H429.875L443.027 320.74C443.236 320.316 443.062 319.802 442.637 319.587C442.212 319.372 441.696 319.553 441.487 319.969L427.708 347.424C427.575 347.695 427.589 348.009 427.742 348.258C427.901 348.515 428.181 348.667 428.474 348.667H449.379C449.86 348.667 450.244 348.285 450.244 347.806C450.244 347.334 449.86 346.952 449.386 346.952ZM477.709 347.424L470.83 333.714C470.823 333.707 470.816 333.693 470.816 333.686L463.93 319.969C463.637 319.393 462.682 319.393 462.389 319.969L455.51 333.686C455.51 333.693 455.503 333.707 455.496 333.714L448.617 347.424C448.401 347.848 448.575 348.362 449 348.577C449.425 348.792 449.948 348.619 450.157 348.195L456.806 334.936H469.519L476.168 348.195C476.321 348.494 476.628 348.667 476.942 348.667C477.075 348.667 477.2 348.64 477.325 348.577C477.75 348.369 477.925 347.848 477.709 347.424ZM457.671 333.221L463.163 322.275L468.655 333.228H457.671V333.221ZM484.881 334.082L491.579 320.74C491.788 320.316 491.613 319.802 491.188 319.587C490.763 319.372 490.247 319.553 490.038 319.969L483.919 332.165L477.799 319.969C477.59 319.553 477.075 319.372 476.65 319.587C476.224 319.802 476.05 320.316 476.259 320.74L482.957 334.082L476.259 347.424C476.05 347.848 476.224 348.362 476.65 348.577C477.075 348.792 477.59 348.619 477.799 348.195L483.919 335.999L490.038 348.195C490.191 348.494 490.491 348.667 490.812 348.667C490.938 348.667 491.07 348.64 491.195 348.577C491.62 348.362 491.788 347.848 491.579 347.424L484.881 334.082Z" fill="white"/>
<defs>
<filter id="filter0_f_56_627" x="0" y="0" width="674" height="674" filterUnits="userSpaceOnUse" color-interpolation-filters="sRGB">
<feFlood flood-opacity="0" result="BackgroundImageFix"/>
<feBlend mode="normal" in="SourceGraphic" in2="BackgroundImageFix" result="shape"/>
<feGaussianBlur stdDeviation="88" result="effect1_foregroundBlur_56_627"/>
</filter>
<filter id="filter1_f_56_627" x="271.285" y="308.202" width="51.763" height="51.763" filterUnits="userSpaceOnUse" color-interpolation-filters="sRGB">
<feFlood flood-opacity="0" result="BackgroundImageFix"/>
<feBlend mode="normal" in="SourceGraphic" in2="BackgroundImageFix" result="shape"/>
<feGaussianBlur stdDeviation="2" result="effect1_foregroundBlur_56_627"/>
</filter>
</defs>
</svg>
