<svg width="143" height="42" viewBox="0 0 143 42" fill="none" xmlns="http://www.w3.org/2000/svg">
<path d="M142.967 37.6304C142.967 39.8881 141.139 41.7169 138.878 41.7169H5.04415C2.78389 41.7169 0.949219 39.8881 0.949219 37.6304V5.04136C0.949219 2.78468 2.78389 0.949463 5.04415 0.949463H138.877C141.139 0.949463 142.966 2.78468 142.966 5.04136L142.967 37.6304Z" fill="black"/>
<path d="M52.7239 30.3817C51.6042 30.3817 50.6653 30.0027 49.9102 29.2447C49.1522 28.4868 48.7732 27.5421 48.7732 26.408C48.7732 25.2739 49.1522 24.3293 49.9102 23.5713C50.6682 22.8133 51.607 22.4343 52.7239 22.4343C53.8408 22.4343 54.8027 22.8478 55.5176 23.6775L54.8371 24.335C54.3203 23.6919 53.6169 23.3675 52.7239 23.3675C51.8942 23.3675 51.1965 23.646 50.6251 24.2058C50.0537 24.7657 49.7695 25.4979 49.7695 26.4052C49.7695 27.3124 50.0537 28.0446 50.6251 28.6045C51.1936 29.1644 51.8942 29.4429 52.7239 29.4429C53.637 29.4429 54.4179 29.0753 55.0611 28.3375L55.7415 29.0179C55.3941 29.4371 54.9577 29.7673 54.4351 30.0113C53.9097 30.2554 53.3412 30.3789 52.7239 30.3789V30.3817Z" fill="white"/>
<path d="M57.5905 22.6064V25.0067L57.5474 25.7303H57.5905C57.7311 25.4834 57.9551 25.2709 58.2594 25.0986C58.5638 24.9264 58.8882 24.8373 59.2356 24.8373C59.8788 24.8373 60.3726 25.0355 60.7114 25.4317C61.0502 25.8279 61.2225 26.3591 61.2225 27.0252V30.2122H60.2463V27.1745C60.2463 26.2126 59.8185 25.7303 58.96 25.7303C58.5552 25.7303 58.2279 25.8911 57.9723 26.2126C57.7168 26.5342 57.5905 26.9075 57.5905 27.3324V30.2122H56.6143V22.6064H57.5905Z" fill="white"/>
<path d="M63.3473 30.2126H62.3711V25.0072H63.3071V25.8571H63.3502C63.4507 25.5728 63.6516 25.3402 63.9617 25.1565C64.2689 24.9727 64.5675 24.8809 64.8604 24.8809C65.1533 24.8809 65.3944 24.9239 65.5925 25.0072L65.2193 25.9202C65.093 25.8714 64.9178 25.8456 64.6996 25.8456C64.3465 25.8456 64.0306 25.9863 63.7607 26.2648C63.488 26.5433 63.353 26.9108 63.353 27.3644V30.2126H63.3473Z" fill="white"/>
<path d="M66.3647 25.6272C66.8672 25.0989 67.5075 24.8347 68.2884 24.8347C69.0694 24.8347 69.7097 25.0989 70.2121 25.6272C70.7146 26.1555 70.9672 26.8158 70.9672 27.6083C70.9672 28.4007 70.7146 29.0611 70.2121 29.5894C69.7097 30.1177 69.0694 30.3818 68.2884 30.3818C67.5075 30.3818 66.8672 30.1177 66.3647 29.5894C65.8623 29.0611 65.6096 28.4007 65.6096 27.6083C65.6096 26.8158 65.8623 26.1555 66.3647 25.6272ZM67.0911 28.9749C67.4271 29.3195 67.8262 29.4889 68.2856 29.4889C68.7449 29.4889 69.144 29.3166 69.48 28.9749C69.8159 28.6304 69.9853 28.1768 69.9853 27.6111C69.9853 27.0455 69.8159 26.589 69.48 26.2473C69.144 25.9028 68.7449 25.7334 68.2856 25.7334C67.8262 25.7334 67.4271 25.9057 67.0911 26.2473C66.7552 26.589 66.5858 27.0455 66.5858 27.6111C66.5858 28.1768 66.7552 28.6333 67.0911 28.9749Z" fill="white"/>
<path d="M71.7512 30.2122V25.0068H72.6872V25.7303H72.7303C72.8796 25.4834 73.1064 25.271 73.4165 25.0987C73.7237 24.9264 74.0309 24.8374 74.3353 24.8374C75.1421 24.8374 75.6905 25.1705 75.9805 25.8366C76.4054 25.1705 77.0112 24.8374 77.7979 24.8374C78.4152 24.8374 78.8775 25.0326 79.1904 25.426C79.5034 25.8193 79.6584 26.3534 79.6584 27.0252V30.2122H78.6822V27.1745C78.6822 26.6491 78.5875 26.2787 78.3951 26.0605C78.2027 25.8423 77.9128 25.7303 77.5252 25.7303C77.1375 25.7303 76.8246 25.894 76.5748 26.2184C76.3221 26.5429 76.1987 26.9161 76.1987 27.3325V30.2122H75.2225V27.1745C75.2225 26.6491 75.1277 26.2787 74.9354 26.0605C74.743 25.8423 74.453 25.7303 74.0654 25.7303C73.6778 25.7303 73.3648 25.894 73.115 26.2184C72.8624 26.5429 72.7389 26.9161 72.7389 27.3325V30.2122H71.7627H71.7512Z" fill="white"/>
<path d="M83.1612 30.3818C82.3745 30.3818 81.7371 30.1205 81.2433 29.5951C80.7523 29.0726 80.5054 28.4093 80.5054 27.6083C80.5054 26.8503 80.7437 26.1985 81.2232 25.653C81.7026 25.1075 82.3113 24.8347 83.055 24.8347C83.7986 24.8347 84.4446 25.0874 84.9097 25.5898C85.3749 26.0923 85.6046 26.7641 85.6046 27.6083L85.5931 27.7892H81.4816C81.5103 28.3146 81.6854 28.728 82.007 29.0324C82.3286 29.3367 82.7076 29.4889 83.1382 29.4889C83.8388 29.4889 84.3125 29.1903 84.5623 28.596L85.4323 28.9577C85.2629 29.3626 84.9815 29.6985 84.5939 29.9712C84.2034 30.244 83.7268 30.379 83.1583 30.379L83.1612 30.3818ZM84.5623 26.9824C84.5422 26.6838 84.4044 26.4024 84.1546 26.1325C83.902 25.8626 83.5287 25.7277 83.0349 25.7277C82.6731 25.7277 82.3601 25.8425 82.096 26.0665C81.8318 26.2904 81.6481 26.5976 81.5476 26.9795H84.5652L84.5623 26.9824Z" fill="white"/>
<path d="M97.4393 22.6064L95.4094 30.2122H94.4102L92.7737 25.1991H92.7306L91.094 30.2122H90.0949L87.9817 22.6064H89.001L90.6059 28.5871H90.649L92.2971 23.6257H93.2101L94.8582 28.5871H94.9012L96.4201 22.6064H97.4393Z" fill="white"/>
<path d="M99.9776 30.3818C99.1909 30.3818 98.5535 30.1205 98.0597 29.5951C97.5687 29.0726 97.3218 28.4093 97.3218 27.6083C97.3218 26.8503 97.5601 26.1985 98.0396 25.653C98.5191 25.1075 99.1277 24.8347 99.8714 24.8347C100.615 24.8347 101.261 25.0874 101.726 25.5898C102.191 26.0923 102.421 26.7641 102.421 27.6083L102.409 27.7892H98.298C98.3267 28.3146 98.5018 28.728 98.8234 29.0324C99.145 29.3367 99.524 29.4889 99.9546 29.4889C100.655 29.4889 101.129 29.1903 101.379 28.596L102.249 28.9577C102.079 29.3626 101.798 29.6985 101.41 29.9712C101.02 30.244 100.543 30.379 99.9747 30.379L99.9776 30.3818ZM101.379 26.9824C101.359 26.6838 101.221 26.4024 100.971 26.1325C100.718 25.8626 100.345 25.7277 99.8513 25.7277C99.4895 25.7277 99.1766 25.8425 98.9124 26.0665C98.6483 26.2904 98.4645 26.5976 98.364 26.9795H101.382L101.379 26.9824Z" fill="white"/>
<path d="M106.064 30.3816C105.668 30.3816 105.312 30.2954 104.996 30.126C104.681 29.9566 104.445 29.7442 104.29 29.4886H104.247V30.2122H103.311V22.6064H104.287V25.0067L104.244 25.7303H104.287C104.442 25.4747 104.678 25.2623 104.994 25.0929C105.309 24.9235 105.665 24.8373 106.062 24.8373C106.733 24.8373 107.316 25.1015 107.804 25.6327C108.293 26.1638 108.537 26.8213 108.537 27.608C108.537 28.3947 108.293 29.0522 107.804 29.5834C107.316 30.1146 106.736 30.3787 106.062 30.3787L106.064 30.3816ZM105.904 29.4886C106.357 29.4886 106.748 29.3164 107.072 28.9747C107.397 28.633 107.56 28.1765 107.56 27.6109C107.56 27.0453 107.397 26.5888 107.072 26.2471C106.748 25.9054 106.357 25.7332 105.904 25.7332C105.45 25.7332 105.051 25.9026 104.729 26.2442C104.408 26.583 104.247 27.0395 104.247 27.6138C104.247 28.188 104.408 28.6445 104.729 28.9833C105.051 29.3221 105.441 29.4944 105.904 29.4944V29.4886Z" fill="white"/>
<path d="M113.765 30.3817C113.214 30.3817 112.674 30.2008 112.146 29.839C111.618 29.4773 111.273 28.9719 111.109 28.3202L112.002 27.9584C112.109 28.3776 112.327 28.7279 112.657 29.015C112.987 29.3021 113.357 29.4457 113.768 29.4457C114.179 29.4457 114.555 29.3337 114.856 29.1097C115.158 28.8858 115.307 28.5843 115.307 28.2025C115.307 27.7775 115.158 27.4502 114.856 27.2205C114.555 26.9908 114.078 26.7755 113.426 26.5774C112.755 26.3649 112.243 26.0893 111.896 25.7533C111.549 25.4174 111.376 24.9867 111.376 24.4613C111.376 23.9359 111.592 23.442 112.025 23.0372C112.456 22.6324 113.019 22.4314 113.714 22.4314C114.357 22.4314 114.882 22.5922 115.287 22.9138C115.692 23.2353 115.953 23.5885 116.074 23.9703L115.181 24.3407C115.118 24.0995 114.96 23.8756 114.707 23.6717C114.454 23.4679 114.133 23.3645 113.736 23.3645C113.36 23.3645 113.042 23.4679 112.775 23.6775C112.508 23.8871 112.376 24.1455 112.376 24.4584C112.376 24.7427 112.499 24.981 112.743 25.1762C112.987 25.3715 113.346 25.5466 113.823 25.7017C114.199 25.8223 114.512 25.94 114.762 26.0519C115.014 26.1639 115.267 26.3161 115.525 26.5027C115.784 26.6893 115.979 26.9248 116.111 27.2033C116.243 27.4818 116.306 27.8062 116.306 28.1737C116.306 28.5413 116.229 28.8714 116.076 29.1614C115.924 29.4514 115.723 29.6811 115.471 29.8534C115.218 30.0228 114.948 30.152 114.658 30.241C114.368 30.33 114.07 30.3731 113.765 30.3731V30.3817Z" fill="white"/>
<path d="M119.312 30.2957C118.766 30.2957 118.35 30.1522 118.063 29.8593C117.776 29.5664 117.632 29.1587 117.632 28.6276V25.8971H116.719V25.0041H117.632V23.4106H118.608V25.0041H119.883V25.8971H118.608V28.5529C118.608 29.1185 118.841 29.4028 119.309 29.4028C119.487 29.4028 119.633 29.3741 119.754 29.3166L120.093 30.155C119.88 30.2469 119.619 30.2928 119.306 30.2928L119.312 30.2957Z" fill="white"/>
<path d="M121.224 25.6272C121.727 25.0989 122.367 24.8347 123.148 24.8347C123.929 24.8347 124.569 25.0989 125.072 25.6272C125.574 26.1555 125.827 26.8158 125.827 27.6083C125.827 28.4007 125.574 29.0611 125.072 29.5894C124.569 30.1177 123.929 30.3818 123.148 30.3818C122.367 30.3818 121.727 30.1177 121.224 29.5894C120.722 29.0611 120.469 28.4007 120.469 27.6083C120.469 26.8158 120.722 26.1555 121.224 25.6272ZM121.951 28.9749C122.287 29.3195 122.686 29.4889 123.145 29.4889C123.605 29.4889 124.004 29.3166 124.34 28.9749C124.676 28.6304 124.845 28.1768 124.845 27.6111C124.845 27.0455 124.676 26.589 124.34 26.2473C124.004 25.9028 123.605 25.7334 123.145 25.7334C122.686 25.7334 122.287 25.9057 121.951 26.2473C121.615 26.589 121.445 27.0455 121.445 27.6111C121.445 28.1768 121.612 28.6333 121.951 28.9749Z" fill="white"/>
<path d="M127.587 30.2126H126.611V25.0072H127.547V25.8571H127.59C127.69 25.5728 127.891 25.3402 128.201 25.1565C128.509 24.9727 128.81 24.8809 129.1 24.8809C129.39 24.8809 129.634 24.9239 129.832 25.0072L129.462 25.9202C129.336 25.8714 129.16 25.8456 128.942 25.8456C128.589 25.8456 128.273 25.9863 128.003 26.2648C127.731 26.5433 127.596 26.9108 127.596 27.3644V30.2126H127.587Z" fill="white"/>
<path d="M132.505 30.3818C131.718 30.3818 131.081 30.1205 130.587 29.5951C130.096 29.0726 129.849 28.4093 129.849 27.6083C129.849 26.8503 130.088 26.1985 130.567 25.653C131.047 25.1075 131.655 24.8347 132.399 24.8347C133.143 24.8347 133.789 25.0874 134.254 25.5898C134.719 26.0923 134.949 26.7641 134.949 27.6083L134.937 27.7892H130.826C130.854 28.3146 131.029 28.728 131.351 29.0324C131.673 29.3367 132.052 29.4889 132.482 29.4889C133.183 29.4889 133.657 29.1903 133.906 28.596L134.776 28.9577C134.607 29.3626 134.326 29.6985 133.938 29.9712C133.547 30.244 133.071 30.379 132.502 30.379L132.505 30.3818ZM133.906 26.9824C133.886 26.6838 133.748 26.4024 133.499 26.1325C133.246 25.8626 132.873 25.7277 132.379 25.7277C132.017 25.7277 131.704 25.8425 131.44 26.0665C131.176 26.2904 130.992 26.5976 130.892 26.9795H133.909L133.906 26.9824Z" fill="white"/>
<path d="M49.3386 18.4029L51.5092 12.6462H52.3447L54.5153 18.4029H53.6941L53.14 16.8439H50.7196L50.1568 18.4029H49.3357H49.3386ZM50.9694 16.1519H52.8816L51.9398 13.5564H51.9083L50.9665 16.1519H50.9694Z" fill="white"/>
<path d="M55.8333 18.4031L54.2427 14.4639H55.0466L56.2037 17.5188H56.2209L57.3952 14.4639H58.1819L56.5741 18.4031H55.8333Z" fill="white"/>
<path d="M59.8299 18.5322C59.4107 18.5322 59.0633 18.4117 58.7819 18.1705C58.5006 17.9293 58.3599 17.6106 58.3599 17.2144C58.3599 16.7866 58.5264 16.4478 58.8594 16.2066C59.1925 15.9625 59.6002 15.842 60.0883 15.842C60.5219 15.842 60.8779 15.9223 61.1564 16.0831V15.9712C61.1564 15.6812 61.0559 15.4515 60.8578 15.2763C60.6597 15.1012 60.4156 15.0151 60.1256 15.0151C59.9103 15.0151 59.7179 15.0667 59.5428 15.1672C59.3676 15.2706 59.2499 15.4084 59.1839 15.5864L58.5092 15.2964C58.601 15.061 58.7791 14.8428 59.0489 14.6418C59.316 14.4408 59.672 14.3403 60.1113 14.3403C60.6137 14.3403 61.0329 14.4868 61.366 14.7825C61.699 15.0782 61.8656 15.4917 61.8656 16.0286V18.4088H61.1593V17.8633H61.1277C60.8319 18.314 60.4013 18.538 59.8328 18.538L59.8299 18.5322ZM59.9505 17.8575C60.2548 17.8575 60.5333 17.7427 60.7831 17.5158C61.0329 17.289 61.1564 17.0191 61.1564 16.709C60.9468 16.5368 60.6338 16.4506 60.2146 16.4506C59.8557 16.4506 59.5859 16.5282 59.4021 16.6832C59.2212 16.8383 59.1293 17.022 59.1293 17.2287C59.1293 17.4211 59.2126 17.5733 59.3791 17.6881C59.5457 17.8001 59.7352 17.8575 59.9505 17.8575Z" fill="white"/>
<path d="M63.5021 13.4733C63.4016 13.5737 63.2781 13.6254 63.1317 13.6254C62.9853 13.6254 62.8647 13.5737 62.7613 13.4733C62.6608 13.3728 62.6091 13.2493 62.6091 13.1029C62.6091 12.9564 62.6608 12.8359 62.7613 12.7325C62.8618 12.632 62.9853 12.5803 63.1317 12.5803C63.2781 12.5803 63.3987 12.632 63.5021 12.7325C63.6026 12.8359 63.6542 12.9564 63.6542 13.1029C63.6542 13.2493 63.6026 13.3699 63.5021 13.4733ZM63.5021 18.4002H62.7613V14.4609H63.5021V18.4002Z" fill="white"/>
<path d="M65.2076 18.4029H64.4668V12.6462H65.2076V18.4029Z" fill="white"/>
<path d="M67.3123 18.5322C66.8931 18.5322 66.5457 18.4117 66.2643 18.1705C65.983 17.9293 65.8423 17.6106 65.8423 17.2144C65.8423 16.7866 66.0088 16.4478 66.3419 16.2066C66.6749 15.9625 67.0826 15.842 67.5707 15.842C68.0043 15.842 68.3603 15.9223 68.6388 16.0831V15.9712C68.6388 15.6812 68.5383 15.4515 68.3402 15.2763C68.1421 15.1012 67.898 15.0151 67.6081 15.0151C67.3927 15.0151 67.2003 15.0667 67.0252 15.1672C66.8501 15.2706 66.7323 15.4084 66.6663 15.5864L65.9916 15.2964C66.0835 15.061 66.2615 14.8428 66.5314 14.6418C66.7984 14.4408 67.1544 14.3403 67.5937 14.3403C68.0962 14.3403 68.5153 14.4868 68.8484 14.7825C69.1815 15.0782 69.348 15.4917 69.348 16.0286V18.4088H68.6417V17.8633H68.6101C68.3144 18.314 67.8837 18.538 67.3152 18.538L67.3123 18.5322ZM67.4329 17.8575C67.7373 17.8575 68.0158 17.7427 68.2656 17.5158C68.5153 17.289 68.6388 17.0191 68.6388 16.709C68.4292 16.5368 68.1163 16.4506 67.6971 16.4506C67.3382 16.4506 67.0683 16.5282 66.8845 16.6832C66.7036 16.8383 66.6118 17.022 66.6118 17.2287C66.6118 17.4211 66.695 17.5733 66.8615 17.6881C67.0281 17.8001 67.2176 17.8575 67.4329 17.8575Z" fill="white"/>
<path d="M72.2648 18.5321C71.9633 18.5321 71.6963 18.469 71.458 18.3398C71.2197 18.2106 71.0416 18.0498 70.9239 17.8574H70.8923V18.4029H70.186V12.6462H70.9268V14.4637L70.8952 15.0092H70.9268C71.0445 14.8168 71.2225 14.6561 71.4608 14.5269C71.6991 14.3977 71.969 14.3345 72.2676 14.3345C72.7758 14.3345 73.2151 14.5355 73.5855 14.9374C73.9559 15.3394 74.1396 15.839 74.1396 16.4333C74.1396 17.0277 73.9559 17.5272 73.5855 17.9292C73.2151 18.3312 72.7758 18.5321 72.2676 18.5321H72.2648ZM72.1442 17.8574C72.4858 17.8574 72.7816 17.7282 73.0285 17.4669C73.2754 17.2057 73.3989 16.864 73.3989 16.4333C73.3989 16.0026 73.2754 15.661 73.0285 15.3997C72.7816 15.1384 72.4858 15.0092 72.1442 15.0092C71.8025 15.0092 71.501 15.1384 71.257 15.394C71.0129 15.6524 70.8923 15.9969 70.8923 16.4304C70.8923 16.864 71.0129 17.2114 71.257 17.4669C71.501 17.7253 71.7968 17.8517 72.1442 17.8517V17.8574Z" fill="white"/>
<path d="M75.5125 18.4029H74.7717V12.6462H75.5125V18.4029Z" fill="white"/>
<path d="M78.1595 18.5324C77.5651 18.5324 77.0799 18.3343 76.7095 17.938C76.3363 17.5418 76.1497 17.0394 76.1497 16.4335C76.1497 15.8593 76.3305 15.3683 76.6923 14.9549C77.0541 14.5414 77.5163 14.3347 78.0791 14.3347C78.6418 14.3347 79.1299 14.5242 79.4831 14.9061C79.8362 15.2879 80.0085 15.7961 80.0085 16.4335L79.9999 16.5714H76.8876C76.9076 16.9676 77.0426 17.2805 77.2866 17.5131C77.5307 17.7428 77.8149 17.8576 78.1423 17.8576C78.6734 17.8576 79.0323 17.6337 79.2189 17.1829L79.8793 17.4557C79.7501 17.76 79.5376 18.0184 79.2448 18.2223C78.9491 18.429 78.5873 18.5324 78.1595 18.5324ZM79.2218 15.9598C79.2046 15.7358 79.1012 15.5205 78.9117 15.3167C78.7222 15.1128 78.438 15.0123 78.0647 15.0123C77.792 15.0123 77.5537 15.0984 77.3527 15.2707C77.1517 15.443 77.0139 15.6727 76.9392 15.9627H79.2218V15.9598Z" fill="white"/>
<path d="M83.2557 13.4733C83.1552 13.5737 83.0318 13.6254 82.8853 13.6254C82.7389 13.6254 82.6183 13.5737 82.515 13.4733C82.4116 13.3728 82.3628 13.2493 82.3628 13.1029C82.3628 12.9564 82.4145 12.8359 82.515 12.7325C82.6155 12.632 82.7389 12.5803 82.8853 12.5803C83.0318 12.5803 83.1524 12.632 83.2557 12.7325C83.3562 12.8359 83.4079 12.9564 83.4079 13.1029C83.4079 13.2493 83.3562 13.3699 83.2557 13.4733ZM83.2557 18.4002H82.515V14.4609H83.2557V18.4002Z" fill="white"/>
<path d="M84.9269 14.4636V15.0091H84.9585C85.0647 14.8225 85.2341 14.6617 85.4638 14.5297C85.6935 14.3976 85.9404 14.3315 86.2046 14.3315C86.6927 14.3315 87.0659 14.4808 87.3215 14.7823C87.5799 15.0809 87.7062 15.4858 87.7062 15.9882V18.4H86.9654V16.1002C86.9654 15.3709 86.641 15.0063 85.9921 15.0063C85.6878 15.0063 85.438 15.1269 85.2456 15.3709C85.0532 15.615 84.9556 15.8963 84.9556 16.2179V18.3971H84.2148V14.4579H84.9211L84.9269 14.4636Z" fill="white"/>
<path d="M92.0501 18.4661C91.6367 18.4661 91.3237 18.357 91.1055 18.1359C90.8873 17.9148 90.7811 17.6047 90.7811 17.2027V15.1355H90.0891V14.4608H90.7811V13.2549H91.5218V14.4608H92.4865V15.1355H91.5218V17.1453C91.5218 17.5731 91.6998 17.7885 92.053 17.7885C92.1879 17.7885 92.2999 17.7684 92.3918 17.7253L92.6502 18.3598C92.4894 18.4287 92.2913 18.4632 92.0559 18.4632L92.0501 18.4661Z" fill="white"/>
<path d="M93.9712 12.6464V14.4638L93.9396 15.0093H93.9712C94.0774 14.8227 94.2468 14.6619 94.4765 14.5299C94.7062 14.3978 94.9531 14.3317 95.2173 14.3317C95.7054 14.3317 96.0786 14.481 96.3341 14.7825C96.5925 15.0811 96.7189 15.486 96.7189 15.9884V18.4002H95.9781V16.1004C95.9781 15.3711 95.6537 15.0065 95.0048 15.0065C94.7005 15.0065 94.4507 15.1271 94.2583 15.3711C94.0659 15.6152 93.9683 15.8965 93.9683 16.2181V18.3973H93.2275V12.6406H93.9683L93.9712 12.6464Z" fill="white"/>
<path d="M99.3719 18.5324C98.7775 18.5324 98.2923 18.3343 97.9219 17.938C97.5487 17.5418 97.3621 17.0394 97.3621 16.4335C97.3621 15.8593 97.5429 15.3683 97.9047 14.9549C98.2665 14.5414 98.7287 14.3347 99.2915 14.3347C99.8542 14.3347 100.342 14.5242 100.695 14.9061C101.049 15.2879 101.221 15.7961 101.221 16.4335L101.212 16.5714H98.1C98.1201 16.9676 98.255 17.2805 98.499 17.5131C98.7431 17.7428 99.0273 17.8576 99.3547 17.8576C99.8858 17.8576 100.245 17.6337 100.431 17.1829L101.092 17.4557C100.963 17.76 100.75 18.0184 100.457 18.2223C100.161 18.429 99.7997 18.5324 99.3719 18.5324ZM100.434 15.9598C100.417 15.7358 100.314 15.5205 100.124 15.3167C99.9346 15.1128 99.6504 15.0123 99.2771 15.0123C99.0044 15.0123 98.7661 15.0984 98.5651 15.2707C98.3641 15.443 98.2263 15.6727 98.1516 15.9627H100.434V15.9598Z" fill="white"/>
<mask id="mask0_152_572" style="mask-type:luminance" maskUnits="userSpaceOnUse" x="9" y="7" width="33" height="29">
<path d="M9.6875 7.81714V32.9887C9.6875 34.1745 10.658 35.145 11.8438 35.145H39.1716C40.3574 35.145 41.3278 34.1745 41.3278 32.9887V7.81714H9.6875ZM29.1052 13.571H21.913C21.1176 13.571 20.4745 12.9278 20.4745 12.1325C20.4745 11.3372 21.1176 10.6941 21.913 10.6941H29.1052C29.9006 10.6941 30.5437 11.3372 30.5437 12.1325C30.5437 12.9278 29.9006 13.571 29.1052 13.571Z" fill="white"/>
</mask>
<g mask="url(#mask0_152_572)">
<path d="M9.6875 7.81714H41.3307V35.145H9.6875V7.81714Z" fill="#EEEEEE"/>
</g>
<mask id="mask1_152_572" style="mask-type:luminance" maskUnits="userSpaceOnUse" x="9" y="7" width="33" height="29">
<path d="M9.6875 7.81714V32.9887C9.6875 34.1745 10.658 35.145 11.8438 35.145H39.1716C40.3574 35.145 41.3278 34.1745 41.3278 32.9887V7.81714H9.6875ZM29.1052 13.571H21.913C21.1176 13.571 20.4745 12.9278 20.4745 12.1325C20.4745 11.3372 21.1176 10.6941 21.913 10.6941H29.1052C29.9006 10.6941 30.5437 11.3372 30.5437 12.1325C30.5437 12.9278 29.9006 13.571 29.1052 13.571Z" fill="white"/>
</mask>
<g mask="url(#mask1_152_572)">
<path d="M29.1054 10.6938H21.9131C21.1178 10.6938 20.4746 11.337 20.4746 12.1323C20.4746 12.9276 21.1178 13.5708 21.9131 13.5708H29.1054C29.9007 13.5708 30.5438 12.9276 30.5438 12.1323C30.5438 11.337 29.9007 10.6938 29.1054 10.6938Z" fill="white"/>
</g>
<mask id="mask2_152_572" style="mask-type:luminance" maskUnits="userSpaceOnUse" x="9" y="7" width="33" height="29">
<path d="M9.6875 7.81714V32.9887C9.6875 34.1745 10.658 35.145 11.8438 35.145H39.1716C40.3574 35.145 41.3278 34.1745 41.3278 32.9887V7.81714H9.6875ZM29.1052 13.571H21.913C21.1176 13.571 20.4745 12.9278 20.4745 12.1325C20.4745 11.3372 21.1176 10.6941 21.913 10.6941H29.1052C29.9006 10.6941 30.5437 11.3372 30.5437 12.1325C30.5437 12.9278 29.9006 13.571 29.1052 13.571Z" fill="white"/>
</mask>
<g mask="url(#mask2_152_572)">
<mask id="mask3_152_572" style="mask-type:luminance" maskUnits="userSpaceOnUse" x="11" y="19" width="29" height="28">
<mask id="mask4_152_572" style="mask-type:luminance" maskUnits="userSpaceOnUse" x="11" y="19" width="29" height="28">
<mask id="mask5_152_572" style="mask-type:luminance" maskUnits="userSpaceOnUse" x="11" y="19" width="29" height="28">
<mask id="mask6_152_572" style="mask-type:luminance" maskUnits="userSpaceOnUse" x="11" y="19" width="29" height="28">
<path d="M25.5103 46.6525C33.0567 46.6525 39.1743 40.535 39.1743 32.9886C39.1743 25.4422 33.0567 19.3247 25.5103 19.3247C17.964 19.3247 11.8464 25.4422 11.8464 32.9886C11.8464 40.535 17.964 46.6525 25.5103 46.6525Z" fill="white"/>
</mask>
<g mask="url(#mask6_152_572)">
<path d="M25.5103 46.6525C33.0567 46.6525 39.1743 40.535 39.1743 32.9886C39.1743 25.4422 33.0567 19.3247 25.5103 19.3247C17.964 19.3247 11.8464 25.4422 11.8464 32.9886C11.8464 40.535 17.964 46.6525 25.5103 46.6525Z" fill="white"/>
</g>
</mask>
<g mask="url(#mask5_152_572)">
<path d="M25.5103 46.6525C33.0567 46.6525 39.1743 40.535 39.1743 32.9886C39.1743 25.4422 33.0567 19.3247 25.5103 19.3247C17.964 19.3247 11.8464 25.4422 11.8464 32.9886C11.8464 40.535 17.964 46.6525 25.5103 46.6525Z" fill="white"/>
</g>
</mask>
<g mask="url(#mask4_152_572)">
<path d="M25.5103 46.6525C33.0567 46.6525 39.1743 40.535 39.1743 32.9886C39.1743 25.4422 33.0567 19.3247 25.5103 19.3247C17.964 19.3247 11.8464 25.4422 11.8464 32.9886C11.8464 40.535 17.964 46.6525 25.5103 46.6525Z" fill="white"/>
</g>
</mask>
<g mask="url(#mask3_152_572)">
<path d="M14.0173 19.3247V36.0952H20.1329L25.5135 26.7783H39.1774V19.3247H14.0173ZM14.0173 19.3247V36.0952H20.1329L25.5135 26.7783H39.1774V19.3247H14.0173Z" fill="#DB4437"/>
<path d="M11.8464 46.6525H24.8528L30.8909 40.6144V36.0952H20.1326L11.8464 21.8857V46.6525ZM11.8464 46.6525H24.8528L30.8909 40.6144V36.0952H20.1326L11.8464 21.8857V46.6525Z" fill="#0F9D58"/>
<path d="M25.5106 26.7754L30.8912 36.0923L24.856 46.6525H39.1774V26.7754H25.5135H25.5106ZM25.5106 26.7754L30.8912 36.0923L24.856 46.6525H39.1774V26.7754H25.5135H25.5106Z" fill="#FFCD40"/>
<path d="M25.5106 39.2018C28.942 39.2018 31.7238 36.4201 31.7238 32.9886C31.7238 29.5571 28.942 26.7754 25.5106 26.7754C22.0791 26.7754 19.2974 29.5571 19.2974 32.9886C19.2974 36.4201 22.0791 39.2018 25.5106 39.2018Z" fill="#F1F1F1"/>
<path d="M25.5105 37.9588C28.2554 37.9588 30.4805 35.7337 30.4805 32.9888C30.4805 30.2439 28.2554 28.0188 25.5105 28.0188C22.7657 28.0188 20.5405 30.2439 20.5405 32.9888C20.5405 35.7337 22.7657 37.9588 25.5105 37.9588Z" fill="#4285F4"/>
</g>
<mask id="mask7_152_572" style="mask-type:luminance" maskUnits="userSpaceOnUse" x="9" y="7" width="33" height="29">
<path d="M9.6875 7.81714V32.9887C9.6875 34.1745 10.658 35.145 11.8438 35.145H39.1716C40.3574 35.145 41.3278 34.1745 41.3278 32.9887V7.81714H9.6875ZM29.1052 13.571H21.913C21.1176 13.571 20.4745 12.9278 20.4745 12.1325C20.4745 11.3372 21.1176 10.6941 21.913 10.6941H29.1052C29.9006 10.6941 30.5437 11.3372 30.5437 12.1325C30.5437 12.9278 29.9006 13.571 29.1052 13.571Z" fill="white"/>
</mask>
<g mask="url(#mask7_152_572)">
<path d="M9.6875 7.81714H41.3307V21.481H9.6875V7.81714Z" fill="black" fill-opacity="0.1"/>
</g>
<path d="M9.6875 7.81714V32.9887C9.6875 34.1745 10.658 35.145 11.8438 35.145H39.1716C40.3574 35.145 41.3278 34.1745 41.3278 32.9887V7.81714H9.6875ZM29.1052 13.571H21.913C21.1176 13.571 20.4745 12.9278 20.4745 12.1325C20.4745 11.3372 21.1176 10.6941 21.913 10.6941H29.1052C29.9006 10.6941 30.5437 11.3372 30.5437 12.1325C30.5437 12.9278 29.9006 13.571 29.1052 13.571Z" fill="url(#paint0_radial_152_572)"/>
</g>
<defs>
<radialGradient id="paint0_radial_152_572" cx="0" cy="0" r="1" gradientUnits="userSpaceOnUse" gradientTransform="translate(9.59921 7.70014) scale(40.92 40.9199)">
<stop stop-color="white" stop-opacity="0.1"/>
<stop offset="1" stop-color="white" stop-opacity="0"/>
</radialGradient>
</defs>
</svg>
