<svg width="714" height="754" viewBox="0 0 714 754" fill="none" xmlns="http://www.w3.org/2000/svg">
<g opacity="0.55" filter="url(#filter0_f_85_4)">
<circle cx="357" cy="357" r="181" fill="#B1FA16" fill-opacity="0.51"/>
</g>
<path d="M610.44 411.929C610.292 414.809 610.179 417.938 610.128 421.295C609.219 418.142 607.985 415.218 606.529 412.513L610.44 411.929ZM610.697 442.636C611.397 452.784 612.793 464.044 615.306 476.087C621.703 506.747 631.246 523.029 643.496 550.456C670.537 611.021 697.046 670.382 676.063 694.339C666.35 705.434 649.175 705.816 619.199 706.482C588.453 707.176 557.214 699.755 557.458 696.28C557.561 694.804 563.357 694.332 565.243 693.85C574.835 691.412 580.241 664.057 575.481 587.273L639.428 591.643C638.903 583.925 636.711 573.24 628.996 564.774C615.956 550.49 598.595 555.642 585.66 544.679C577.504 537.774 570.177 523.739 573.552 492.484L573.72 490.389C577.266 488.165 580.801 485.601 584.208 482.751C584.812 483.31 585.487 483.791 586.233 484.176C592.242 487.281 600.516 483.188 604.706 475.015C607.877 468.835 607.814 462.098 604.998 457.834C607.603 452.975 609.576 447.876 610.697 442.636Z" fill="#B1FA16" stroke="#B1FA16" stroke-width="1.33342" stroke-miterlimit="22.9256"/>
<path d="M607.083 463.337C609.509 480.612 617.709 497.391 625.418 512.899C632.531 527.199 641.347 540.692 654.106 550.576C669.767 562.697 686.647 571.035 686.985 593.547C687.299 614.319 674.574 632.644 668.304 651.807C667.806 653.363 670.249 654.035 670.748 652.483C676.696 634.304 687.805 617.406 689.338 597.964C690.599 581.848 683.933 569.331 671.282 559.704C664.666 554.653 657.399 550.473 651.197 544.879C643.699 538.121 637.719 529.879 632.692 521.163C622.549 503.593 612.371 482.856 609.525 462.658C609.308 461.054 606.862 461.737 607.083 463.337Z" fill="#B1FA16" stroke="#B1FA16" stroke-width="1.33342" stroke-miterlimit="22.9256"/>
<path d="M452.138 617.16C450.726 631.506 461.215 644.291 475.566 645.701C489.911 647.117 502.692 636.625 504.104 622.278C505.516 607.921 495.029 595.149 480.675 593.736C466.331 592.324 453.553 602.803 452.138 617.16Z" fill="#FF9E94"/>
<path d="M477.995 647.073C477.092 647.073 476.169 647.023 475.256 646.933C460.362 645.489 449.429 632.354 450.9 617.647C451.526 611.36 454.4 605.464 458.991 601.069L460.486 601.095L460.462 602.571C456.225 606.622 453.58 612.06 452.998 617.866C451.653 631.417 461.723 643.529 475.469 644.864C483.44 645.628 491.065 642.727 496.452 636.888L497.948 636.815L498.015 638.29C492.791 643.954 485.623 647.073 477.995 647.073Z" fill="#190404"/>
<path d="M532.956 625.865C531.543 640.214 542.032 652.996 556.378 654.405C570.735 655.82 583.516 645.325 584.921 630.98C586.333 616.631 575.852 603.853 561.495 602.44C547.149 601.026 534.368 611.516 532.956 625.865Z" fill="#FF9E94"/>
<path d="M558.861 654.533C557.976 654.533 557.078 654.491 556.183 654.409C543.166 653.173 532.821 643.239 531.585 630.777L532.541 629.666L533.702 630.582C534.853 642.079 544.396 651.234 556.396 652.38C565.418 653.164 574.329 649.327 579.57 642.158L581.062 641.912L581.318 643.346C576.155 650.383 567.721 654.533 558.861 654.533Z" fill="#190404"/>
<path d="M453.254 578.449C456 578.637 458.745 578.822 461.49 579.018C520.911 583.048 580.332 587.092 639.756 591.122C639.229 583.443 637.034 572.809 629.308 564.385C616.249 550.171 598.863 555.297 585.909 544.388C577.741 537.516 570.403 523.55 573.783 492.448L573.951 490.363C577.502 488.149 581.042 485.598 584.454 482.762C585.059 483.319 585.736 483.797 586.483 484.181C592.5 487.271 600.786 483.197 604.982 475.064C608.158 468.915 608.095 462.211 605.275 457.967C611.19 447.006 613.858 434.809 610.674 422.549C605.371 402.604 587.059 391.616 579.544 387.75C578.749 387.398 577.774 386.952 576.715 386.513C576.715 386.513 572.562 384.755 568.394 383.795C553.633 380.108 542.662 384.138 542.662 384.138C533.91 387.479 527.901 394.597 523.656 401.545C522.775 402.948 522.064 404.27 521.361 405.582L521.089 406.199C520.378 407.604 519.758 408.835 519.149 410.061C518.438 411.647 517.818 413.138 517.285 414.375C515.608 418.145 514.904 420.79 512.159 426.06C507.295 435.546 504.379 437.133 501.55 443.107C497.924 450.67 498.007 457.431 498.185 466.126C498.272 467.62 498.72 486.084 505.88 493.112C508.355 495.571 511.278 497.24 511.278 497.24C513.301 498.374 515.428 499.166 517.546 499.696C518.685 499.999 523.159 500.958 529.505 501.33C529.118 505.29 528.576 508.869 527.91 512.109C524.615 528.02 518.26 535.718 512.293 539.765L511.624 540.202C498.634 548.481 483.054 543.276 470.031 550.163C468.013 551.223 466.065 552.581 464.192 554.313C456.288 561.639 454.032 571.876 453.254 578.449Z" stroke="#B1FA16" stroke-width="1.33342" stroke-miterlimit="22.9256"/>
<path d="M542.775 552.203C540.939 554.65 538.284 555.631 535.904 554.744C532.557 553.482 531.643 549.166 531.585 548.849L542.775 552.203Z" fill="#190404"/>
<path d="M527.855 558.498C527.105 558.955 525.946 559.62 524.504 560.167C519.687 562.016 515.862 561.156 513.201 560.49C503.576 558.114 494.765 554.926 491.798 553.822C498.758 554.962 505.717 556.094 512.677 557.223L527.855 558.498Z" fill="#190404"/>
<path d="M541.531 560.039C542.575 560.595 544.196 561.399 546.256 562.176C553.153 564.785 559.175 564.921 563.366 564.975C578.575 565.176 592.716 564.505 597.482 564.268C586.633 563.644 575.776 563.015 564.927 562.389L541.531 560.039Z" fill="#190404"/>
<path d="M571.599 454.355L570.591 453.619C570.508 453.325 568.39 446.431 561.594 444.707C557.065 443.59 553.252 445.436 552.185 446.037L551.285 446.111L550.663 445.482L548.992 440.726L549.647 439.435L550.975 440.071L552.259 443.704C554.302 442.773 557.896 441.647 562.113 442.732C570.062 444.749 572.515 452.714 572.615 453.047L571.901 454.313L571.599 454.355Z" fill="#B1FA16"/>
<path d="M528.053 434.461L527.008 433.462C526.991 433.153 526.615 425.848 520.431 422.556C516.469 420.455 512.514 421.26 511.01 421.701L510.133 421.56L509.681 420.803L509.205 415.697L510.141 414.568L511.278 415.508L511.655 419.415C513.835 418.958 517.63 418.708 521.416 420.728C528.638 424.576 529.081 433.015 529.098 433.382L528.086 434.461H528.053Z" fill="#B1FA16"/>
<path d="M582.511 450.625C582.336 448.476 581.556 442.502 576.766 437.102C570.474 430.015 561.96 429.181 560.182 429.038C560.745 428.514 561.458 427.951 562.351 427.444C564.476 426.212 566.594 425.861 568.019 425.758C571.359 426.384 573.746 427.631 575.133 428.498C579.013 430.915 580.973 434.001 582.223 435.962C583.492 437.975 584.056 439.482 584.324 440.325C584.594 441.178 584.993 442.426 585.044 443.842C585.141 446.915 583.517 449.369 582.511 450.625Z" fill="#B1FA16"/>
<path d="M566.403 423.271C565.526 423.508 564.278 423.928 562.928 424.703C560.569 426.071 558.773 427.988 558.95 428.244L562.721 426.361C563.934 425.642 564.948 424.943 566.636 424.402L567.642 424.137L566.403 423.271Z" fill="#B1FA16"/>
<path d="M533.663 415.849C533.37 416.815 532.994 417.602 532.611 418.298C531.944 416.815 528.79 409.545 520.395 405.524L520.688 404.911C521.448 403.604 522.214 402.289 523.166 400.891C524.884 401.678 526.979 402.642 528.888 404.217C530.233 405.355 532.227 407.184 533.754 410.159C534.046 411.475 534.329 413.57 533.663 415.849Z" fill="#B1FA16"/>
<path d="M535.311 411.742C535.329 412.575 535.284 413.776 534.954 415.162C534.366 417.577 533.144 419.631 532.893 419.538C532.608 419.423 533.338 416.571 533.554 415.738C533.882 414.48 534.231 413.433 534.257 411.803L534.249 410.838L535.311 411.742Z" fill="#B1FA16"/>
<path d="M527.855 454.349C526.83 453.056 525.478 452.283 524.038 451.63C522.57 451.04 521.032 450.571 519.151 450.63C520.175 451.939 521.528 452.712 522.958 453.357C524.436 453.947 525.981 454.41 527.855 454.349Z" fill="#B1FA16"/>
<path d="M509.274 461.992C508.991 462.631 509.592 463.673 510.75 464.873C510.227 463.545 510.102 462.543 510.359 462.335C510.658 462.085 511.297 462.801 513.842 463.874C516.162 464.854 516.461 464.609 517.927 465.256C520.347 466.32 520.314 467.32 523.779 469.95C526.622 472.111 527.898 472.379 527.783 472.904C527.75 473.045 527.635 473.179 527.451 473.301C528.726 473.54 530.042 473.746 531.436 473.963C533.74 474.33 535.049 474.389 535.281 473.864C535.656 473.02 532.819 471.234 529.646 468.356C526.497 465.524 524.324 462.827 523.009 461.015C522.983 461.015 521.665 460.58 520.812 460.046L520.082 459.564C518.746 458.596 518.822 458.297 518.209 458.104C516.925 457.903 514.28 459.329 514.28 459.329L512.671 460.089C510.501 461.131 509.406 461.656 509.274 461.992Z" fill="#B1FA16"/>
<path d="M535.308 473.331C535.64 474.952 523.887 482.586 515.684 477.496C508.748 473.198 508.529 462.372 509.819 461.834C510.71 461.475 511.875 466.153 516.696 469.613C524.838 475.447 535.011 471.872 535.308 473.331Z" fill="#B1FA16"/>
<path d="M533.065 475.492C531.05 475.492 529.399 474.864 528.43 474.377L527.855 472.732L529.194 472.034C530.386 472.609 532.776 473.489 535.52 472.558C536.713 472.168 537.831 471.475 538.848 470.518L540.288 470.75L540.097 472.512C538.874 473.678 537.509 474.52 536.056 475.004C535.003 475.356 533.992 475.492 533.065 475.492Z" fill="#B1FA16"/>
<mask id="path-22-inside-1_85_4" fill="white">
<path fill-rule="evenodd" clip-rule="evenodd" d="M598.839 741.059C594.309 745.327 587.247 750.684 577.655 753.001C568.886 755.129 562.933 753.518 554.89 751.341C551.611 750.454 547.985 749.473 543.679 748.612C528.471 745.563 518.397 746.735 508.805 747.851C498.511 749.049 488.772 750.181 473.838 745.963C463.861 743.145 456.265 739.269 451.752 736.698L452.305 702.449C451.557 703.213 450.766 703.916 449.934 704.552C438.341 713.426 420.758 708.084 417.285 706.953C413.558 702.312 409.983 697.227 406.697 691.644C381.897 649.627 386.628 603.505 391.31 579.223L394.834 576.783C395.069 568.141 395.613 559.861 396.377 551.995L366.086 522.874C361.489 516.935 354.215 507.457 346.524 497.197C344.759 494.825 341.624 490.564 342.89 488.775C343.78 487.519 346.584 487.885 348.282 488.412C352.113 489.619 354.267 492.92 354.846 493.808C354.869 493.843 354.889 493.875 354.907 493.902C357.291 497.584 364.448 504.339 385.725 517.775C389.336 517.744 392.943 517.709 396.548 517.673L396.549 517.673L396.561 517.673C398.03 517.659 399.499 517.644 400.968 517.63C401.339 514.964 402.302 510.925 405.15 507.065C411.023 499.085 422.202 495.65 424.442 498.289C425.427 499.447 424.39 501.404 422.602 504.777C420.969 507.858 418.709 512.122 416.793 518.037C414.446 525.309 413.723 531.642 413.467 535.837C413.636 539.737 413.982 544.705 414.69 550.329C415.196 554.361 415.79 558.179 416.461 561.839C424.116 581.438 431.766 601.041 439.412 620.645L439.529 620.273C437.69 591.272 461.683 545.995 466.674 543.998C470.573 542.438 474.053 542.825 478.485 543.317C482.371 543.749 486.99 544.262 493.266 543.615C503.295 542.588 511.138 539.259 515.927 536.81C515.607 536.75 510.876 535.783 509.092 531.388C507.664 527.856 508.747 523.621 511.822 520.957C514.848 518.2 519.291 515.133 524.572 515.285C528.796 515.413 531.12 517.537 533.756 519.947C536.235 522.214 538.99 524.733 543.864 526.083C555.811 529.391 568.088 522.232 570.262 520.957C572.611 519.584 574.444 518.191 575.727 517.118C576.666 517.51 580.554 519.252 582.639 523.707C585.066 528.89 583.138 533.722 582.818 534.493C585.952 536.74 590.87 540.009 597.385 542.894C606.877 547.103 613.476 547.961 618.969 548.675C624.02 549.331 628.135 549.866 632.705 552.771C650.105 563.853 648.506 593.642 648.356 595.918C647.172 613.864 637.836 626.12 634.043 630.602C628.733 647.259 623.426 663.914 618.118 680.569L618.114 680.582C611.689 700.742 605.265 720.901 598.839 741.059Z"/>
</mask>
<path fill-rule="evenodd" clip-rule="evenodd" d="M598.839 741.059C594.309 745.327 587.247 750.684 577.655 753.001C568.886 755.129 562.933 753.518 554.89 751.341C551.611 750.454 547.985 749.473 543.679 748.612C528.471 745.563 518.397 746.735 508.805 747.851C498.511 749.049 488.772 750.181 473.838 745.963C463.861 743.145 456.265 739.269 451.752 736.698L452.305 702.449C451.557 703.213 450.766 703.916 449.934 704.552C438.341 713.426 420.758 708.084 417.285 706.953C413.558 702.312 409.983 697.227 406.697 691.644C381.897 649.627 386.628 603.505 391.31 579.223L394.834 576.783C395.069 568.141 395.613 559.861 396.377 551.995L366.086 522.874C361.489 516.935 354.215 507.457 346.524 497.197C344.759 494.825 341.624 490.564 342.89 488.775C343.78 487.519 346.584 487.885 348.282 488.412C352.113 489.619 354.267 492.92 354.846 493.808C354.869 493.843 354.889 493.875 354.907 493.902C357.291 497.584 364.448 504.339 385.725 517.775C389.336 517.744 392.943 517.709 396.548 517.673L396.549 517.673L396.561 517.673C398.03 517.659 399.499 517.644 400.968 517.63C401.339 514.964 402.302 510.925 405.15 507.065C411.023 499.085 422.202 495.65 424.442 498.289C425.427 499.447 424.39 501.404 422.602 504.777C420.969 507.858 418.709 512.122 416.793 518.037C414.446 525.309 413.723 531.642 413.467 535.837C413.636 539.737 413.982 544.705 414.69 550.329C415.196 554.361 415.79 558.179 416.461 561.839C424.116 581.438 431.766 601.041 439.412 620.645L439.529 620.273C437.69 591.272 461.683 545.995 466.674 543.998C470.573 542.438 474.053 542.825 478.485 543.317C482.371 543.749 486.99 544.262 493.266 543.615C503.295 542.588 511.138 539.259 515.927 536.81C515.607 536.75 510.876 535.783 509.092 531.388C507.664 527.856 508.747 523.621 511.822 520.957C514.848 518.2 519.291 515.133 524.572 515.285C528.796 515.413 531.12 517.537 533.756 519.947C536.235 522.214 538.99 524.733 543.864 526.083C555.811 529.391 568.088 522.232 570.262 520.957C572.611 519.584 574.444 518.191 575.727 517.118C576.666 517.51 580.554 519.252 582.639 523.707C585.066 528.89 583.138 533.722 582.818 534.493C585.952 536.74 590.87 540.009 597.385 542.894C606.877 547.103 613.476 547.961 618.969 548.675C624.02 549.331 628.135 549.866 632.705 552.771C650.105 563.853 648.506 593.642 648.356 595.918C647.172 613.864 637.836 626.12 634.043 630.602C628.733 647.259 623.426 663.914 618.118 680.569L618.114 680.582C611.689 700.742 605.265 720.901 598.839 741.059Z" fill="black"/>
<path d="M577.655 753.001L577.186 751.057L577.184 751.058L577.655 753.001ZM598.839 741.059L600.21 742.515L600.587 742.16L600.744 741.667L598.839 741.059ZM554.89 751.341L554.367 753.272L554.367 753.272L554.89 751.341ZM543.679 748.612L543.286 750.573L543.287 750.574L543.679 748.612ZM508.805 747.851L509.036 749.838L509.036 749.838L508.805 747.851ZM473.838 745.963L474.382 744.038L474.382 744.038L473.838 745.963ZM451.752 736.698L449.753 736.666L449.733 737.849L450.762 738.436L451.752 736.698ZM452.305 702.449L454.305 702.481L454.386 697.468L450.877 701.049L452.305 702.449ZM449.934 704.552L448.718 702.964L448.718 702.964L449.934 704.552ZM417.285 706.953L415.726 708.206L416.099 708.67L416.666 708.855L417.285 706.953ZM406.697 691.644L408.421 690.629L408.42 690.627L406.697 691.644ZM391.31 579.223L390.171 577.579L389.501 578.044L389.346 578.845L391.31 579.223ZM394.834 576.783L395.973 578.427L396.806 577.85L396.833 576.837L394.834 576.783ZM396.377 551.995L398.368 552.189L398.462 551.225L397.763 550.553L396.377 551.995ZM366.086 522.874L364.504 524.098L364.594 524.214L364.7 524.316L366.086 522.874ZM346.524 497.197L344.919 498.391L344.924 498.397L346.524 497.197ZM342.89 488.775L341.258 487.619L341.257 487.62L342.89 488.775ZM348.282 488.412L348.883 486.504L348.874 486.501L348.282 488.412ZM354.846 493.808L353.171 494.901L353.171 494.901L354.846 493.808ZM354.907 493.902L356.586 492.815L356.582 492.808L356.577 492.801L354.907 493.902ZM385.725 517.775L384.657 519.466L385.154 519.78L385.742 519.775L385.725 517.775ZM396.548 517.673L396.533 515.673L396.528 515.673L396.548 517.673ZM396.549 517.673L396.564 519.673L396.569 519.673L396.549 517.673ZM396.561 517.673L396.542 515.673L396.541 515.673L396.561 517.673ZM400.968 517.63L400.987 519.63L402.711 519.614L402.949 517.906L400.968 517.63ZM405.15 507.065L406.76 508.252L406.761 508.25L405.15 507.065ZM424.442 498.289L422.917 499.583L422.918 499.585L424.442 498.289ZM422.602 504.777L420.835 503.841L420.835 503.841L422.602 504.777ZM416.793 518.037L414.89 517.42L414.89 517.423L416.793 518.037ZM413.467 535.837L411.471 535.716L411.465 535.82L411.469 535.924L413.467 535.837ZM414.69 550.329L416.674 550.08L416.674 550.08L414.69 550.329ZM416.461 561.839L414.493 562.199L414.528 562.388L414.598 562.566L416.461 561.839ZM439.412 620.645L437.549 621.372L439.616 626.672L441.32 621.244L439.412 620.645ZM439.529 620.273L441.437 620.873L441.548 620.518L441.525 620.147L439.529 620.273ZM466.674 543.998L465.931 542.141L465.931 542.141L466.674 543.998ZM478.485 543.317L478.705 541.329L478.705 541.329L478.485 543.317ZM493.266 543.615L493.063 541.626L493.062 541.626L493.266 543.615ZM515.927 536.81L516.838 538.591L522.05 535.926L516.297 534.845L515.927 536.81ZM509.092 531.388L507.238 532.138L507.239 532.14L509.092 531.388ZM511.822 520.957L513.132 522.469L513.151 522.452L513.17 522.435L511.822 520.957ZM524.572 515.285L524.633 513.286L524.63 513.286L524.572 515.285ZM533.756 519.947L532.406 521.423L532.406 521.423L533.756 519.947ZM543.864 526.083L543.33 528.01L543.33 528.01L543.864 526.083ZM570.262 520.957L569.253 519.23L569.25 519.232L570.262 520.957ZM575.727 517.118L576.498 515.272L575.377 514.804L574.444 515.583L575.727 517.118ZM582.639 523.707L580.828 524.555L580.828 524.555L582.639 523.707ZM582.818 534.493L580.971 533.725L580.361 535.193L581.652 536.119L582.818 534.493ZM597.385 542.894L598.196 541.066L598.195 541.065L597.385 542.894ZM618.969 548.675L618.712 550.658L618.712 550.658L618.969 548.675ZM632.705 552.771L633.779 551.084L633.778 551.083L632.705 552.771ZM648.356 595.918L646.361 595.786L646.361 595.786L648.356 595.918ZM634.043 630.602L632.516 629.31L632.258 629.615L632.137 629.995L634.043 630.602ZM618.118 680.569L616.212 679.962L616.211 679.965L618.118 680.569ZM618.114 680.582L620.02 681.189L620.021 681.186L618.114 680.582ZM578.125 754.945C588.182 752.516 595.545 746.91 600.21 742.515L597.467 739.603C593.073 743.743 586.311 748.853 577.186 751.057L578.125 754.945ZM554.367 753.272C562.418 755.45 568.815 757.204 578.127 754.945L577.184 751.058C568.957 753.053 563.449 751.585 555.412 749.411L554.367 753.272ZM543.287 750.574C547.52 751.419 551.087 752.384 554.367 753.272L555.412 749.411C552.135 748.524 548.45 747.526 544.071 746.651L543.287 750.574ZM509.036 749.838C518.576 748.728 528.395 747.588 543.286 750.573L544.073 746.652C528.547 743.539 518.218 744.742 508.574 745.864L509.036 749.838ZM473.295 747.887C488.618 752.216 498.678 751.042 509.036 749.838L508.574 745.864C498.343 747.055 488.925 748.147 474.382 744.038L473.295 747.887ZM450.762 738.436C455.364 741.058 463.113 745.012 473.295 747.887L474.382 744.038C464.608 741.277 457.165 737.48 452.742 734.96L450.762 738.436ZM450.305 702.417L449.753 736.666L453.752 736.73L454.305 702.481L450.305 702.417ZM451.149 706.141C452.06 705.444 452.922 704.677 453.734 703.849L450.877 701.049C450.192 701.748 449.472 702.388 448.718 702.964L451.149 706.141ZM416.666 708.855C418.465 709.441 423.918 711.119 430.448 711.501C436.947 711.882 444.808 710.995 451.15 706.141L448.718 702.964C443.467 706.984 436.74 707.863 430.682 707.508C424.654 707.155 419.578 705.597 417.904 705.051L416.666 708.855ZM404.974 692.658C408.312 698.33 411.942 703.495 415.726 708.206L418.844 705.701C415.173 701.13 411.655 696.123 408.421 690.629L404.974 692.658ZM389.346 578.845C384.636 603.274 379.797 650.003 404.975 692.661L408.42 690.627C383.997 649.25 388.621 603.736 393.274 579.602L389.346 578.845ZM393.696 575.139L390.171 577.579L392.448 580.868L395.973 578.427L393.696 575.139ZM394.387 551.802C393.618 559.711 393.071 568.037 392.835 576.729L396.833 576.837C397.067 568.244 397.608 560.011 398.368 552.189L394.387 551.802ZM364.7 524.316L394.991 553.437L397.763 550.553L367.472 521.432L364.7 524.316ZM344.924 498.397C352.622 508.667 359.903 518.153 364.504 524.098L367.667 521.65C363.075 515.716 355.807 506.247 348.124 495.998L344.924 498.397ZM341.257 487.62C340.477 488.723 340.524 489.992 340.718 490.92C340.917 491.877 341.345 492.844 341.806 493.709C342.734 495.447 344.05 497.222 344.919 498.391L348.129 496.004C347.233 494.8 346.1 493.258 345.335 491.826C344.95 491.105 344.721 490.523 344.634 490.104C344.54 489.656 344.671 489.721 344.523 489.93L341.257 487.62ZM348.874 486.501C347.889 486.196 346.559 485.925 345.284 485.925C344.179 485.925 342.317 486.124 341.258 487.619L344.522 489.931C344.421 490.074 344.338 490.065 344.484 490.017C344.634 489.969 344.897 489.925 345.282 489.925C346.056 489.925 346.978 490.101 347.69 490.322L348.874 486.501ZM356.521 492.716C355.937 491.82 353.451 487.944 348.883 486.504L347.681 490.319C350.775 491.295 352.596 494.02 353.171 494.901L356.521 492.716ZM356.577 492.801C356.562 492.779 356.545 492.752 356.521 492.716L353.171 494.901C353.193 494.935 353.216 494.971 353.237 495.002L356.577 492.801ZM386.792 516.084C376.189 509.388 369.151 504.386 364.486 500.624C359.8 496.844 357.607 494.392 356.586 492.815L353.228 494.988C354.591 497.094 357.168 499.86 361.975 503.737C366.804 507.632 373.983 512.726 384.657 519.466L386.792 516.084ZM396.528 515.673C392.923 515.709 389.318 515.744 385.708 515.775L385.742 519.775C389.355 519.744 392.963 519.709 396.568 519.673L396.528 515.673ZM396.533 515.673L396.533 515.673L396.563 519.673L396.564 519.673L396.533 515.673ZM396.541 515.673L396.529 515.673L396.569 519.673L396.581 519.673L396.541 515.673ZM400.949 515.63C399.48 515.644 398.011 515.659 396.542 515.673L396.581 519.673C398.05 519.659 399.519 519.644 400.987 519.63L400.949 515.63ZM403.541 505.877C400.423 510.103 399.385 514.503 398.987 517.354L402.949 517.906C403.294 515.426 404.18 511.748 406.76 508.252L403.541 505.877ZM425.966 496.994C424.766 495.58 422.791 495.345 421.204 495.427C419.47 495.518 417.459 496.019 415.414 496.838C411.327 498.476 406.736 501.536 403.539 505.879L406.761 508.25C409.437 504.613 413.372 501.966 416.902 500.551C418.667 499.844 420.237 499.483 421.412 499.422C422.735 499.353 422.998 499.678 422.917 499.583L425.966 496.994ZM424.369 505.714C425.23 504.089 426.031 502.59 426.455 501.347C426.868 500.133 427.179 498.42 425.965 496.993L422.918 499.585C422.69 499.316 422.974 499.16 422.668 500.057C422.373 500.925 421.762 502.092 420.835 503.841L424.369 505.714ZM418.696 518.653C420.555 512.914 422.744 508.779 424.369 505.714L420.835 503.841C419.193 506.938 416.864 511.329 414.89 517.42L418.696 518.653ZM415.464 535.959C415.713 531.872 416.416 525.716 418.696 518.651L414.89 517.423C412.475 524.902 411.733 531.412 411.471 535.716L415.464 535.959ZM416.674 550.08C415.975 544.519 415.632 539.607 415.466 535.751L411.469 535.924C411.64 539.868 411.99 544.891 412.706 550.579L416.674 550.08ZM418.428 561.478C417.764 557.855 417.175 554.074 416.674 550.08L412.705 550.578C413.216 554.647 413.816 558.503 414.493 562.199L418.428 561.478ZM441.275 619.918C433.629 600.314 425.979 580.711 418.324 561.111L414.598 562.566C422.253 582.166 429.903 601.768 437.549 621.372L441.275 619.918ZM437.621 619.674L437.504 620.046L441.32 621.244L441.437 620.873L437.621 619.674ZM465.931 542.141C465.23 542.422 464.608 542.956 464.114 543.449C463.578 543.984 463.004 544.664 462.408 545.448C461.212 547.02 459.828 549.139 458.344 551.668C455.371 556.732 451.923 563.565 448.697 571.233C442.277 586.492 436.583 605.418 437.533 620.4L441.525 620.147C440.636 606.127 446.019 587.914 452.384 572.785C455.55 565.259 458.921 558.586 461.793 553.692C463.232 551.242 464.527 549.27 465.591 547.87C466.125 547.168 466.577 546.642 466.939 546.281C467.344 545.877 467.495 545.824 467.417 545.855L465.931 542.141ZM478.705 541.329C474.335 540.844 470.362 540.368 465.931 542.141L467.417 545.855C470.784 544.508 473.77 544.806 478.264 545.305L478.705 541.329ZM493.062 541.626C487.01 542.249 482.569 541.758 478.705 541.329L478.264 545.305C482.173 545.739 486.97 546.274 493.471 545.605L493.062 541.626ZM515.017 535.029C510.36 537.41 502.763 540.632 493.063 541.626L493.47 545.605C503.828 544.544 511.915 541.107 516.838 538.591L515.017 535.029ZM507.239 532.14C508.355 534.889 510.384 536.532 512.092 537.475C513.79 538.413 515.279 538.723 515.558 538.776L516.297 534.845C516.256 534.837 515.219 534.633 514.026 533.974C512.842 533.32 511.614 532.282 510.945 530.636L507.239 532.14ZM510.513 519.445C506.837 522.63 505.468 527.759 507.238 532.138L510.946 530.638C509.861 527.953 510.658 524.612 513.132 522.469L510.513 519.445ZM524.63 513.286C518.547 513.11 513.604 516.627 510.475 519.479L513.17 522.435C516.091 519.773 520.034 517.155 524.515 517.284L524.63 513.286ZM535.105 518.471C532.485 516.076 529.67 513.439 524.633 513.286L524.511 517.284C527.923 517.388 529.754 518.999 532.406 521.423L535.105 518.471ZM544.398 524.156C540.016 522.942 537.559 520.715 535.105 518.471L532.406 521.423C534.91 523.713 537.965 526.524 543.33 528.01L544.398 524.156ZM569.25 519.232C568.203 519.846 564.743 521.865 560.123 523.332C555.483 524.806 549.853 525.666 544.397 524.155L543.33 528.01C549.822 529.808 556.304 528.742 561.334 527.145C566.382 525.541 570.148 523.343 571.274 522.682L569.25 519.232ZM574.444 515.583C573.227 516.602 571.485 517.925 569.253 519.23L571.271 522.684C573.737 521.242 575.662 519.78 577.011 518.652L574.444 515.583ZM584.451 522.859C582.043 517.715 577.574 515.722 576.498 515.272L574.956 518.963C575.758 519.298 579.065 520.789 580.828 524.555L584.451 522.859ZM584.664 535.261C585.03 534.382 587.256 528.85 584.451 522.859L580.828 524.555C582.877 528.931 581.247 533.061 580.971 533.725L584.664 535.261ZM598.195 541.065C591.849 538.255 587.054 535.069 583.983 532.868L581.652 536.119C584.85 538.411 589.89 541.763 596.575 544.723L598.195 541.065ZM619.227 546.691C613.796 545.985 607.423 545.157 598.196 541.066L596.574 544.722C606.331 549.048 613.156 549.936 618.712 550.658L619.227 546.691ZM633.778 551.083C628.791 547.913 624.26 547.346 619.227 546.691L618.712 550.658C623.779 551.317 627.48 551.819 631.632 554.459L633.778 551.083ZM650.352 596.05C650.432 594.836 650.879 586.627 649.076 577.269C647.287 567.983 643.187 557.076 633.779 551.084L631.631 554.458C639.623 559.549 643.424 569.077 645.148 578.025C646.858 586.901 646.431 594.724 646.361 595.786L650.352 596.05ZM635.569 631.894C639.471 627.284 649.127 614.625 650.352 596.05L646.361 595.786C645.218 613.103 636.201 624.956 632.516 629.31L635.569 631.894ZM620.023 681.177C625.331 664.522 630.639 647.866 635.948 631.21L632.137 629.995C626.828 646.651 621.52 663.307 616.212 679.962L620.023 681.177ZM620.021 681.186L620.024 681.174L616.211 679.965L616.208 679.977L620.021 681.186ZM600.744 741.667C607.171 721.509 613.595 701.349 620.02 681.189L616.208 679.974C609.784 700.135 603.36 720.294 596.933 740.452L600.744 741.667Z" fill="#B1FA16" mask="url(#path-22-inside-1_85_4)"/>
<path d="M618.633 418.241C620.353 421.806 621.773 425.468 622.709 429.166C624.134 434.807 622.445 439.715 619.825 444.689C617.674 448.767 615.069 452.632 610.947 454.907C615.519 446.933 620.467 434.522 617.955 420.465C617.786 419.518 617.584 418.583 617.356 417.659C617.785 417.86 618.21 418.055 618.633 418.241ZM609.848 456.755C610.143 457.356 610.873 457.789 611.649 457.409C616.079 455.203 619.083 451.316 621.43 447.088C624.067 442.342 626.372 437.193 625.764 431.649C625.305 427.486 623.647 423.396 621.826 419.53C622.543 419.791 623.249 420.03 623.943 420.245C628.694 426.718 634.735 431.224 642.611 433.516C646.153 434.539 650.821 435.901 654.481 434.803C657.905 433.761 659.269 430.218 659.576 426.971C660.363 418.694 654.66 411.796 648.465 407.035C647.638 406.399 646.797 405.78 645.944 405.175C645.688 402.42 644.927 399.723 643.695 397.462C637.849 386.693 619.16 381.701 598.889 390.253C583.947 378.392 563.34 373.113 547.354 377.625C534.032 381.384 521.061 392.756 523.092 398.809C525.507 406.034 549.096 404.86 570.15 402.453C579.639 420.149 584.435 433.054 587.071 442.564C588.343 447.17 590.734 456.857 598.84 461.108C601.349 462.434 603.765 462.88 605.454 463.058C606.408 461.843 608.046 459.68 609.848 456.755ZM646.014 408.333C650.711 411.787 654.978 416.016 656.53 421.675C657.529 425.304 657.631 432.055 652.58 432.588C649.13 432.946 644.992 431.656 641.74 430.574C636.077 428.685 631.716 425.482 628.06 421.272C633.702 422.324 638.335 421.603 641.365 419.126C644.299 416.732 645.799 412.641 646.014 408.333Z" fill="#B1FA16" stroke="#B1FA16" stroke-width="1.33342" stroke-miterlimit="22.9256"/>
<path d="M588.314 476.735L587.535 476.373L587.636 474.893L599.749 464.302L601.212 464.41L601.104 465.88L588.991 476.482L588.314 476.735Z" fill="black"/>
<path d="M595.202 469.275L594.166 468.336L593.752 462.909L594.706 461.815L595.825 462.752L596.239 468.174L595.287 469.275H595.202Z" fill="black"/>
<path d="M482.862 684.373L481.851 683.627L482.539 682.287L556.361 658.263L557.695 658.957L557.009 660.298L483.185 684.322L482.862 684.373Z" fill="#B1FA16"/>
<path d="M482.862 684.373L481.851 683.627L482.539 682.287L556.361 658.263L557.695 658.957L557.009 660.298L483.185 684.322L482.862 684.373Z" stroke="black"/>
<path d="M567.792 660.75L558.726 660.278L557.695 659.222L558.85 658.263L567.852 658.733L568.885 659.796L567.792 660.75Z" fill="#B1FA16"/>
<path d="M564.188 654.533H559.905L558.938 653.911L559.905 653.289H564.188L565.155 653.911L564.188 654.533Z" fill="#B1FA16"/>
<path d="M561.197 644.586L560.182 643.403C561.033 636.57 562.146 629.636 563.489 622.81C566.639 606.782 571.165 590.881 576.934 575.556L578.252 574.959L578.832 576.312C573.111 591.527 568.62 607.311 565.484 623.224C564.16 630.005 563.056 636.881 562.212 643.672L561.197 644.586Z" fill="#B1FA16"/>
<path d="M512.893 725.403C499.168 725.403 487.449 723.126 478.851 720.682L478.121 719.377L479.405 718.635C492.928 722.448 514.21 725.89 538.897 720.445C566.386 714.393 585.799 700.194 597.242 689.346L598.725 689.406L598.666 690.916C587.031 701.945 567.301 716.375 539.342 722.525C529.964 724.592 521.063 725.403 512.893 725.403Z" fill="#B1FA16"/>
<path d="M603.538 684.373C602.571 684.079 602.309 683.449 602.527 682.915C605.473 675.883 608.56 668.79 611.691 661.812C615.989 652.209 620.573 642.401 625.343 632.653L626.799 632.153L627.322 633.569C622.562 643.293 617.975 653.077 613.678 662.655C610.567 669.622 607.487 676.705 604.558 683.713L603.538 684.373Z" fill="#B1FA16"/>
<path d="M452.139 659.506L451.019 658.665L442.064 621.005L442.932 619.719L444.292 620.533L453.254 658.204L452.387 659.481L452.139 659.506Z" fill="#B1FA16"/>
<path d="M452.139 659.506L451.019 658.665L442.064 621.005L442.932 619.719L444.292 620.533L453.254 658.204L452.387 659.481L452.139 659.506Z" stroke="black"/>
<path d="M456.796 696.806C455.974 696.637 455.629 696.047 455.773 695.481L459.912 678.936L461.198 678.156L461.958 679.46L457.816 695.993L456.796 696.806Z" fill="#B1FA16"/>
<path d="M466.762 671.94L465.761 671.26C457.55 649.662 457.372 632.487 465.262 620.212C466.752 617.891 468.088 616.446 469.6 614.81C469.644 614.763 469.688 614.715 469.732 614.668C469.788 614.607 469.845 614.545 469.902 614.483C470.903 613.401 472.041 612.169 473.355 610.521C482.48 599.114 487.557 583.712 488.439 564.772L489.547 563.769L490.555 564.875C489.65 584.258 484.417 600.062 475.006 611.843C473.566 613.621 472.364 614.934 471.289 616.085C469.782 617.708 468.486 619.112 467.046 621.34C459.539 633.026 459.769 649.571 467.75 670.517L467.133 671.873L466.762 671.94Z" fill="#B1FA16"/>
<path d="M466.762 671.94L465.761 671.26C457.55 649.662 457.372 632.487 465.262 620.212C466.752 617.891 468.088 616.446 469.6 614.81C469.644 614.763 469.688 614.715 469.732 614.668C469.788 614.607 469.845 614.545 469.902 614.483C470.903 613.401 472.041 612.169 473.355 610.521C482.48 599.114 487.557 583.712 488.439 564.772L489.547 563.769L490.555 564.875C489.65 584.258 484.417 600.062 475.006 611.843C473.566 613.621 472.364 614.934 471.289 616.085C469.782 617.708 468.486 619.112 467.046 621.34C459.539 633.026 459.769 649.571 467.75 670.517L467.133 671.873L466.762 671.94Z" stroke="black"/>
<path d="M545.5 550.092C537.653 550.092 529.859 548.867 522.311 546.461L521.638 545.168L522.942 544.503C530.861 547.03 539.115 548.214 547.284 548.008C558.982 547.728 570.689 544.575 581.159 538.902L582.562 539.315L582.145 540.708C571.395 546.536 559.364 549.78 547.335 550.066L545.5 550.092Z" fill="#B1FA16"/>
<path d="M545.5 550.092C537.653 550.092 529.859 548.867 522.311 546.461L521.638 545.168L522.942 544.503C530.861 547.03 539.115 548.214 547.284 548.008C558.982 547.728 570.689 544.575 581.159 538.902L582.562 539.315L582.145 540.708C571.395 546.536 559.364 549.78 547.335 550.066L545.5 550.092Z" stroke="black"/>
<path d="M423.092 432.436C416.808 457.642 391.278 472.979 366.07 466.694C340.874 460.412 325.534 434.882 331.82 409.678C338.102 384.469 363.63 369.13 388.83 375.412C414.036 381.696 429.374 407.229 423.09 432.436H423.092Z" fill="#B1FA16"/>
<path d="M387.999 414.259C386.544 420.09 377.561 417.128 374.645 416.401L377.215 406.094C380.13 406.822 389.517 408.177 387.999 414.259ZM386.404 430.891C384.807 437.301 374.015 433.838 370.515 432.968L373.349 421.603C376.848 422.477 388.068 424.205 386.405 430.891H386.404ZM398.2 414.351C399.135 408.091 394.369 404.726 387.851 402.481L389.965 394L384.801 392.714L382.743 400.971C381.388 400.633 379.994 400.314 378.609 399.997L380.682 391.686L375.522 390.4L373.407 398.878C372.283 398.621 371.181 398.369 370.11 398.102L370.117 398.076L362.997 396.298L361.624 401.811L365.373 402.744C367.464 403.266 367.843 404.649 367.779 405.746L365.363 415.444L361.986 428.978C361.73 429.614 361.081 430.567 359.62 430.205L355.868 429.268L353.305 435.178L360.024 436.853C361.274 437.166 362.499 437.493 363.702 437.802L361.566 446.382L366.722 447.668L368.84 439.181C370.246 439.565 371.614 439.917 372.952 440.25L370.844 448.696L376.006 449.982L378.142 441.421C386.945 443.087 393.565 442.415 396.349 434.455C398.595 428.044 396.238 424.346 391.607 421.934C394.98 421.153 397.52 418.935 398.198 414.351H398.2Z" fill="black"/>
<path d="M387.425 225.98C413.409 225.98 434.473 247.045 434.473 273.03C434.473 299.013 413.409 320.079 387.425 320.079C361.44 320.079 340.375 299.013 340.375 273.03C340.375 247.045 361.44 225.98 387.425 225.98Z" fill="#B1FA16"/>
<path d="M375.251 267.975L382.375 260.876L383.876 259.373L387.436 255.813L399.559 267.975L406.616 260.876L387.436 241.663L368.193 260.876L375.251 267.975Z" fill="black"/>
<path d="M380.36 273.017L387.446 265.932L394.531 273.017L387.446 280.103L380.36 273.017Z" fill="black"/>
<path d="M399.559 278.099L387.432 290.226L383.175 285.968L382.39 285.184L375.251 278.099L368.193 285.156L387.436 304.368L406.616 285.156L399.559 278.099Z" fill="black"/>
<path d="M356.059 273.037L363.145 265.95L370.231 273.037L363.145 280.124L356.059 273.037Z" fill="black"/>
<path d="M404.621 273.034L411.707 265.947L418.793 273.034L411.707 280.119L404.621 273.034Z" fill="black"/>
<g filter="url(#filter1_f_85_4)">
<path d="M326.174 242.987C326.174 242.987 300.618 317.259 388.199 349.843C475.781 382.428 430.216 476.735 430.216 476.735" stroke="#B1FA16" stroke-width="1.33342" stroke-miterlimit="22.9256"/>
</g>
<g filter="url(#filter2_f_85_4)">
<path d="M455.657 252.933C455.657 252.933 473.41 330.204 379.046 350.394C284.682 370.584 320.784 470.518 320.784 470.518" stroke="#B1FA16" stroke-width="1.33342" stroke-miterlimit="22.9256"/>
</g>
<path d="M481.851 706.238C480.663 710.845 477.74 719.153 470.169 725.68C468.322 727.274 466.461 728.528 464.705 729.534C463.283 729.49 461.268 729.198 459.877 727.766C458.5 726.344 459.013 725.118 458.153 722.658C455.969 716.445 449.049 713.797 448.531 713.61C446.909 713.013 446.808 713.296 445.634 712.813C441.411 711.077 439.472 706.128 438.488 702.029C438.186 697.838 438.195 691.88 439.776 684.981C441.253 678.511 443.595 673.4 445.566 669.854C453.551 673.348 461.547 676.831 469.531 680.314C473.642 688.95 477.74 697.606 481.851 706.238Z" fill="black"/>
<defs>
<filter id="filter0_f_85_4" x="0" y="0" width="714" height="714" filterUnits="userSpaceOnUse" color-interpolation-filters="sRGB">
<feFlood flood-opacity="0" result="BackgroundImageFix"/>
<feBlend mode="normal" in="SourceGraphic" in2="BackgroundImageFix" result="shape"/>
<feGaussianBlur stdDeviation="88" result="effect1_foregroundBlur_85_4"/>
</filter>
<filter id="filter1_f_85_4" x="315.037" y="235.771" width="134.694" height="248.252" filterUnits="userSpaceOnUse" color-interpolation-filters="sRGB">
<feFlood flood-opacity="0" result="BackgroundImageFix"/>
<feBlend mode="normal" in="SourceGraphic" in2="BackgroundImageFix" result="shape"/>
<feGaussianBlur stdDeviation="3.5" result="effect1_foregroundBlur_85_4"/>
</filter>
<filter id="filter2_f_85_4" x="306.333" y="245.786" width="158.318" height="231.958" filterUnits="userSpaceOnUse" color-interpolation-filters="sRGB">
<feFlood flood-opacity="0" result="BackgroundImageFix"/>
<feBlend mode="normal" in="SourceGraphic" in2="BackgroundImageFix" result="shape"/>
<feGaussianBlur stdDeviation="3.5" result="effect1_foregroundBlur_85_4"/>
</filter>
</defs>
</svg>
