<svg width="187" height="257" viewBox="0 0 187 257" fill="none" xmlns="http://www.w3.org/2000/svg">
<path d="M30.181 137.732C23.5906 132.506 12.1738 123.452 13.0665 115.026C13.1716 114.041 13.4116 111.804 15.1725 110.553C21.7545 105.87 41.0928 121.078 43.5854 123.066C46.061 125.041 48.2433 126.999 50.1259 128.839C55.562 134.133 56.5598 142.339 51.4771 145.849C50.6724 146.399 49.7509 146.829 48.693 147.069C43.4467 148.248 38.1229 144.029 30.181 137.732Z" fill="#B1FA16"/>
<path d="M69.1511 209.214C73.4212 216.435 84.7243 233.188 106.189 242.116C114.842 245.708 122.843 247.085 129.068 247.56C132.774 250.395 136.476 253.229 140.181 256.055C155.721 246.036 171.26 236.014 186.803 225.991C182.883 222.215 178.962 218.44 175.038 214.663C177.134 200.665 178.65 178.662 172.861 152.787C168.324 132.518 160.812 116.627 154.562 105.723C151.871 105.87 149.186 106.018 146.498 106.161C120.713 140.512 94.932 174.864 69.1511 209.214Z" fill="#B1FA16"/>
<path d="M168.017 199.991L90.7431 232.191C85.3644 234.432 78.94 231.263 76.3752 225.109L3.45684 50.1171C0.892434 43.9626 3.16092 37.1579 8.53957 34.9167L25.4994 27.8494C27.086 31.0673 30.9544 32.553 34.3095 31.1546L64.9966 18.3676C68.3521 16.9692 70.0211 13.1765 68.8532 9.78398L85.8131 2.717C91.1838 0.478764 97.6211 3.65582 100.185 9.81041L173.104 184.802C175.669 190.957 173.387 197.753 168.017 199.991Z" fill="black" stroke="#B1FA16" stroke-width="3" stroke-miterlimit="10"/>
<path d="M52.6263 145.493C60.0516 149.444 72.9114 156.292 73.5524 164.743C73.6277 165.733 73.7959 167.974 72.2882 169.523C66.6586 175.309 44.8995 163.842 42.086 162.335C39.2937 160.836 36.8014 159.303 34.6108 157.833C28.3115 153.601 25.8476 145.714 30.2191 141.346C30.9092 140.655 31.7433 140.07 32.7366 139.645C37.6859 137.535 43.6783 140.728 52.6263 145.493Z" fill="#B1FA16"/>
<path d="M52.6263 164.524C60.0516 168.485 72.9114 175.331 73.5524 183.774C73.6277 184.768 73.7959 187.009 72.2882 188.555C66.6586 194.345 44.8995 182.877 42.086 181.369C39.2937 179.874 36.8014 178.337 34.6108 176.871C28.3115 172.64 25.8476 164.752 30.2191 160.385C30.9092 159.695 31.7433 159.104 32.7366 158.679C37.6859 156.57 43.6783 159.762 52.6263 164.524Z" fill="#B1FA16"/>
<path d="M49.8045 182.894C56.636 186.474 68.4648 192.68 68.7464 200.905C68.7762 201.869 68.8564 204.05 67.3786 205.618C61.8707 211.484 41.846 201.103 39.2604 199.734C36.6915 198.379 34.4045 196.977 32.4085 195.625C26.644 191.73 24.6264 184.12 28.9011 179.694C29.5746 178.994 30.3744 178.384 31.3306 177.933C36.0599 175.688 41.5727 178.577 49.8045 182.894Z" fill="#B1FA16"/>
<path d="M64.2616 171.983L64.0303 171.924L37.4961 158.629L37.2595 157.926L37.9629 157.69L64.4983 170.984L64.7333 171.689L64.2616 171.983Z" fill="#B1FA16"/>
<path d="M59.112 187.4L58.9057 187.357L35.8618 177.638L35.5837 176.947L36.275 176.67L59.3138 186.389L59.5965 187.079L59.112 187.4Z" fill="#B1FA16"/>
<path d="M154.562 105.723C151.939 103.71 149.316 101.693 146.692 99.6802C139.25 106.647 131.658 114.377 124.099 122.944C121.636 125.734 119.273 128.51 116.994 131.269C117.832 134.393 119.285 136.23 120.641 137.354C127.236 142.795 141.159 138.044 148.384 129.929C156.791 120.493 154.917 107.875 154.562 105.723Z" fill="#B1FA16"/>
<path d="M149.586 128.99L149.354 128.936L149.114 128.232L153.384 119.45L154.087 119.207L154.33 119.912L150.057 128.691L149.586 128.99Z" fill="#B1FA16"/>
<g filter="url(#filter0_f_52_542)">
<path d="M140.416 26.3916L36.2248 69.1827C33.0088 70.5035 31.4918 74.2288 32.8366 77.5033L50.1679 119.703C51.5127 122.977 55.2101 124.561 58.4262 123.24L162.618 80.4492C165.834 79.1284 167.351 75.4031 166.006 72.1286L148.674 29.929C147.33 26.6545 143.632 25.0708 140.416 26.3916Z" fill="#B1FA16"/>
</g>
<path d="M136.397 23.1244L32.2052 65.9155C28.9892 67.2364 27.4722 70.9616 28.8171 74.2362L46.1483 116.436C47.4931 119.71 51.1905 121.294 54.4066 119.973L158.598 77.1821C161.814 75.8613 163.331 72.1359 161.986 68.8614L144.655 26.6619C143.31 23.3874 139.613 21.8036 136.397 23.1244Z" fill="black" stroke="#B1FA16" stroke-width="3" stroke-miterlimit="22.9256"/>
<path d="M90.3252 79.1314C91.8951 90.2992 84.1132 100.625 72.9448 102.195C61.7814 103.764 51.4549 95.9827 49.8858 84.8152C48.3143 73.6471 56.0948 63.3208 67.2601 61.7509C78.4278 60.181 88.7543 67.9638 90.3243 79.1318L90.3252 79.1314Z" fill="#B1FA16"/>
<path d="M90.6212 59.1748L136.461 40.6527" stroke="#B1FA16" stroke-width="3" stroke-miterlimit="22.9256" stroke-linecap="round"/>
<path d="M95.6604 71.6468L141.501 53.1247" stroke="#B1FA16" stroke-width="3" stroke-miterlimit="22.9256" stroke-linecap="round"/>
<path d="M100.7 84.1185L146.54 65.5964" stroke="#B1FA16" stroke-width="3" stroke-miterlimit="22.9256" stroke-linecap="round"/>
<path d="M80.1584 79.5795C80.4145 79.4761 80.5381 79.1847 80.4347 78.9286L79.4179 76.4123C79.3683 76.2893 79.2718 76.1912 79.1497 76.1393C79.0276 76.0875 78.89 76.0863 78.767 76.136L71.2977 79.154L68.3314 71.8127C68.2817 71.6897 68.1852 71.5916 68.0632 71.5397C67.9411 71.4879 67.8034 71.4867 67.6805 71.5364L64.9935 72.6221C64.8706 72.6718 64.7724 72.7683 64.7206 72.8903C64.6688 73.0124 64.6676 73.15 64.7173 73.273L67.6836 80.6144L60.2143 83.6324C59.9583 83.7358 59.8346 84.0273 59.938 84.2833L60.9548 86.7996C61.0045 86.9226 61.1009 87.0208 61.223 87.0726C61.3451 87.1244 61.4827 87.1256 61.6057 87.0759L69.075 84.0579L72.0241 91.3566C72.0738 91.4795 72.1703 91.5777 72.2923 91.6295C72.4144 91.6813 72.552 91.6825 72.675 91.6329L75.3619 90.5472C75.618 90.4437 75.7417 90.1523 75.6382 89.8963L72.6891 82.5976L80.1584 79.5795Z" fill="black" stroke="black" stroke-linejoin="round"/>
<defs>
<filter id="filter0_f_52_542" x="21.3464" y="14.9257" width="156.15" height="119.781" filterUnits="userSpaceOnUse" color-interpolation-filters="sRGB">
<feFlood flood-opacity="0" result="BackgroundImageFix"/>
<feBlend mode="normal" in="SourceGraphic" in2="BackgroundImageFix" result="shape"/>
<feGaussianBlur stdDeviation="5.5" result="effect1_foregroundBlur_52_542"/>
</filter>
</defs>
</svg>
