<svg width="200" height="257" viewBox="0 0 200 257" fill="none" xmlns="http://www.w3.org/2000/svg">
<path d="M42.5583 137.732C35.968 132.506 24.5512 123.452 25.4439 115.026C25.5489 114.041 25.789 111.804 27.5499 110.553C34.1319 105.87 53.4702 121.078 55.9628 123.066C58.4384 125.041 60.6207 126.999 62.5033 128.839C67.9393 134.133 68.9371 142.339 63.8544 145.849C63.0498 146.399 62.1283 146.829 61.0704 147.069C55.8241 148.248 50.5003 144.029 42.5583 137.732Z" fill="#B1FA16"/>
<path d="M81.5285 209.214C85.7986 216.435 97.1016 233.188 118.566 242.116C127.22 245.708 135.221 247.085 141.445 247.56C145.152 250.395 148.853 253.229 152.559 256.055C168.099 246.036 183.637 236.014 199.181 225.991C195.26 222.215 191.339 218.44 187.415 214.663C189.511 200.665 191.027 178.662 185.238 152.787C180.702 132.518 173.19 116.627 166.939 105.723C164.249 105.87 161.563 106.018 158.876 106.161C133.09 140.512 107.309 174.864 81.5285 209.214Z" fill="#B1FA16"/>
<path d="M180.394 199.991L103.12 232.191C97.7418 234.432 91.3174 231.263 88.7526 225.109L15.8342 50.1171C13.2698 43.9626 15.5383 37.1579 20.9169 34.9167L37.8768 27.8494C39.4634 31.0673 43.3318 32.553 46.6869 31.1546L77.374 18.3676C80.7295 16.9692 82.3985 13.1765 81.2306 9.78398L98.1905 2.717C103.561 0.478764 109.998 3.65582 112.563 9.81041L185.482 184.802C188.046 190.957 185.765 197.753 180.394 199.991Z" fill="black" stroke="#B1FA16" stroke-width="3" stroke-miterlimit="10"/>
<path d="M65.0037 145.493C72.429 149.444 85.2888 156.292 85.9298 164.743C86.005 165.733 86.1733 167.974 84.6656 169.523C79.036 175.309 57.2769 163.842 54.4634 162.335C51.6711 160.836 49.1788 159.303 46.9882 157.833C40.6889 153.601 38.225 145.714 42.5964 141.346C43.2866 140.655 44.1207 140.07 45.114 139.645C50.0632 137.535 56.0557 140.728 65.0037 145.493Z" fill="#B1FA16"/>
<path d="M65.0037 164.524C72.429 168.485 85.2888 175.331 85.9298 183.774C86.005 184.768 86.1733 187.009 84.6656 188.555C79.036 194.345 57.2769 182.877 54.4634 181.369C51.6711 179.874 49.1788 178.337 46.9882 176.871C40.6889 172.64 38.225 164.752 42.5964 160.385C43.2866 159.695 44.1207 159.104 45.114 158.679C50.0632 156.57 56.0557 159.762 65.0037 164.524Z" fill="#B1FA16"/>
<path d="M62.1819 182.894C69.0134 186.474 80.8422 192.68 81.1237 200.905C81.1536 201.869 81.2337 204.05 79.756 205.618C74.248 211.484 54.2234 201.103 51.6378 199.734C49.0689 198.379 46.7818 196.977 44.7859 195.625C39.0213 191.73 37.0038 184.12 41.2784 179.694C41.952 178.994 42.7517 178.384 43.708 177.933C48.4373 175.688 53.9501 178.577 62.1819 182.894Z" fill="#B1FA16"/>
<path d="M76.639 171.983L76.4077 171.924L49.8735 158.629L49.6369 157.926L50.3403 157.69L76.8756 170.984L77.1107 171.689L76.639 171.983Z" fill="#B1FA16"/>
<path d="M71.4894 187.4L71.283 187.357L48.2392 177.638L47.9611 176.947L48.6524 176.67L71.6912 186.389L71.9739 187.079L71.4894 187.4Z" fill="#B1FA16"/>
<path d="M166.939 105.723C164.317 103.71 161.693 101.693 159.069 99.6802C151.627 106.647 144.035 114.377 136.477 122.944C134.013 125.734 131.651 128.51 129.372 131.269C130.21 134.393 131.662 136.23 133.019 137.354C139.614 142.795 153.536 138.044 160.762 129.929C169.168 120.493 167.294 107.875 166.939 105.723Z" fill="#B1FA16"/>
<path d="M161.963 128.99L161.731 128.936L161.491 128.232L165.761 119.45L166.464 119.207L166.708 119.912L162.434 128.691L161.963 128.99Z" fill="#B1FA16"/>
<g filter="url(#filter0_f_52_570)">
<path d="M151.29 13.7129L72.498 46.0724C70.0659 47.0712 68.9837 50.0462 70.0807 52.7173L84.218 87.1402C85.315 89.8112 88.1759 91.1669 90.608 90.1681L169.4 57.8086C171.832 56.8097 172.914 53.8346 171.817 51.1635L157.68 16.7407C156.583 14.0696 153.722 12.714 151.29 13.7129Z" fill="#B1FA16"/>
</g>
<g filter="url(#filter1_f_52_570)">
<path d="M95.4659 94.0788L14.3375 127.398C11.8333 128.427 10.7265 131.508 11.8655 134.282L26.544 170.022C27.683 172.795 30.6364 174.21 33.1406 173.181L114.269 139.862C116.773 138.834 117.88 135.752 116.741 132.978L102.062 97.2382C100.923 94.4648 97.9701 93.0504 95.4659 94.0788Z" fill="#B1FA16"/>
</g>
<path d="M145.295 12.859L64.3055 46.1212C61.8056 47.1479 60.6264 50.0435 61.6718 52.5889L75.1436 85.3912C76.189 87.9365 79.063 89.1677 81.5629 88.141L162.552 54.8788C165.052 53.8521 166.231 50.9564 165.186 48.411L151.714 15.6087C150.669 13.0634 147.795 11.8323 145.295 12.859Z" fill="black" stroke="#B1FA16" stroke-width="3" stroke-miterlimit="22.9256"/>
<path d="M8.34599 128.686L89.627 96.1428C92.1359 95.1383 94.9989 96.3948 96.0217 98.9493L109.202 131.87C110.225 134.424 109.02 137.309 106.511 138.314L25.2304 170.857C22.7215 171.862 19.8585 170.605 18.8358 168.051L5.6551 135.13C4.63233 132.576 5.8371 129.691 8.34599 128.686Z" fill="black" stroke="#B1FA16" stroke-width="3" stroke-miterlimit="22.9256"/>
<path d="M109.713 40.8815L145.345 26.484" stroke="#B1FA16" stroke-width="3" stroke-miterlimit="22.9256" stroke-linecap="round"/>
<path d="M113.63 50.5762L149.262 36.1787" stroke="#B1FA16" stroke-width="3" stroke-miterlimit="22.9256" stroke-linecap="round"/>
<path d="M117.547 60.2706L153.179 45.8731" stroke="#B1FA16" stroke-width="3" stroke-miterlimit="22.9256" stroke-linecap="round"/>
<path d="M53.3956 124.01L17.7999 138.498" stroke="#B1FA16" stroke-width="3" stroke-miterlimit="22.9256" stroke-linecap="round"/>
<path d="M57.3375 133.695L21.7417 148.182" stroke="#B1FA16" stroke-width="3" stroke-miterlimit="22.9256" stroke-linecap="round"/>
<path d="M61.2791 143.379L25.6833 157.867" stroke="#B1FA16" stroke-width="3" stroke-miterlimit="22.9256" stroke-linecap="round"/>
<path d="M72.7013 109.308C81.4949 105.824 91.4475 110.129 94.9312 118.922C98.4147 127.716 94.1103 137.669 85.3167 141.152C76.5231 144.636 66.57 140.331 63.0865 131.538C59.6028 122.744 63.9077 112.791 72.7013 109.308Z" fill="#B1FA16"/>
<path d="M74.2114 125.151L75.6706 121.794L75.9772 121.084L76.7046 119.402L82.4378 121.892L83.8744 118.544L74.8075 114.613L70.8712 123.695L74.2114 125.151Z" fill="black"/>
<path d="M76.6164 126.173L78.0646 122.825L81.4124 124.273L79.9645 127.621L76.6164 126.173Z" fill="black"/>
<path d="M83.7951 125.319L81.317 131.048L79.3052 130.178L78.9347 130.018L75.5686 128.577L74.1264 131.912L83.2141 135.834L87.1295 126.761L83.7951 125.319Z" fill="black"/>
<path d="M68.3952 129.438L69.8432 126.089L73.1912 127.538L71.7433 130.886L68.3952 129.438Z" fill="black"/>
<path d="M84.8291 122.926L86.2771 119.577L89.6254 121.026L88.1772 124.374L84.8291 122.926Z" fill="black"/>
<path fill-rule="evenodd" clip-rule="evenodd" d="M84.6476 43.4409C93.4119 39.8836 103.4 44.1046 106.958 52.8689C110.515 61.6327 106.294 71.6216 97.5296 75.1789C88.7658 78.736 78.7769 74.5146 75.2198 65.7508C71.6625 56.9865 75.8838 46.998 84.6476 43.4409Z" fill="#B1FA16"/>
<path d="M99.1068 56.3097L90.3225 56.0048L86.7519 47.2077L99.1068 56.3097Z" fill="black"/>
<path d="M86.7518 47.2077L84.2346 62.3461L90.3225 56.0048L86.7518 47.2077Z" fill="black"/>
<path d="M96.4112 71.006L93.9851 65.0286L99.6737 57.6918L96.4112 71.006Z" fill="black"/>
<path d="M96.4112 71.006L93.9845 65.0273L84.7964 63.7303L96.4112 71.006Z" fill="black"/>
<path fill-rule="evenodd" clip-rule="evenodd" d="M93.4234 63.6448L90.3233 56.0069L99.1068 56.3097L93.4234 63.6448ZM91.3463 56.7199L93.6099 62.2969L97.7597 56.9412L91.3463 56.7199Z" fill="black"/>
<path fill-rule="evenodd" clip-rule="evenodd" d="M93.4234 63.6448L84.2346 62.3461L90.3233 56.0069L93.4234 63.6448ZM85.641 61.86L92.3503 62.8081L90.0867 57.2311L85.641 61.86Z" fill="black"/>
<defs>
<filter id="filter0_f_52_570" x="58.6522" y="2.3844" width="124.593" height="99.1121" filterUnits="userSpaceOnUse" color-interpolation-filters="sRGB">
<feFlood flood-opacity="0" result="BackgroundImageFix"/>
<feBlend mode="normal" in="SourceGraphic" in2="BackgroundImageFix" result="shape"/>
<feGaussianBlur stdDeviation="5.5" result="effect1_foregroundBlur_52_570"/>
</filter>
<filter id="filter1_f_52_570" x="0.417358" y="82.7432" width="127.772" height="101.774" filterUnits="userSpaceOnUse" color-interpolation-filters="sRGB">
<feFlood flood-opacity="0" result="BackgroundImageFix"/>
<feBlend mode="normal" in="SourceGraphic" in2="BackgroundImageFix" result="shape"/>
<feGaussianBlur stdDeviation="5.5" result="effect1_foregroundBlur_52_570"/>
</filter>
</defs>
</svg>
