<svg width="186" height="255" viewBox="0 0 186 255" fill="none" xmlns="http://www.w3.org/2000/svg">
<path d="M28.7794 135.732C22.189 130.506 10.7722 121.452 11.6649 113.026C11.77 112.041 12.01 109.804 13.7709 108.553C20.3529 103.87 39.6912 119.078 42.1838 121.066C44.6594 123.041 46.8417 124.999 48.7243 126.839C54.1604 132.133 55.1581 140.339 50.0754 143.849C49.2708 144.399 48.3493 144.829 47.2914 145.069C42.0451 146.248 36.7213 142.029 28.7794 135.732Z" fill="#B1FA16"/>
<path d="M67.7495 207.214C72.0196 214.435 83.3226 231.188 104.787 240.116C113.441 243.708 121.442 245.085 127.666 245.56C131.373 248.395 135.074 251.229 138.78 254.055C154.32 244.036 169.858 234.014 185.402 223.991C181.481 220.215 177.56 216.44 173.636 212.663C175.732 198.665 177.248 176.662 171.459 150.787C166.923 130.518 159.411 114.627 153.16 103.723C150.47 103.87 147.784 104.018 145.097 104.161C119.311 138.512 93.5304 172.864 67.7495 207.214Z" fill="#B1FA16"/>
<path d="M167.615 199.991L90.3415 232.191C84.9628 234.432 78.5384 231.263 75.9736 225.109L3.05523 50.1171C0.490823 43.9626 2.75931 37.1579 8.13796 34.9167L25.0978 27.8494C26.6844 31.0673 30.5528 32.553 33.9079 31.1546L64.595 18.3676C67.9505 16.9692 69.6195 13.1765 68.4516 9.78398L85.4115 2.717C90.7822 0.478764 97.2195 3.65582 99.7839 9.81041L172.703 184.802C175.267 190.957 172.986 197.753 167.615 199.991Z" fill="black" stroke="#B1FA16" stroke-width="3" stroke-miterlimit="10"/>
<path d="M51.2248 143.493C58.65 147.444 71.5099 154.292 72.1509 162.743C72.2261 163.733 72.3943 165.974 70.8867 167.523C65.2571 173.309 43.498 161.842 40.6845 160.335C37.8922 158.836 35.3999 157.303 33.2093 155.833C26.9099 151.601 24.4461 143.714 28.8175 139.346C29.5076 138.655 30.3418 138.07 31.335 137.645C36.2843 135.535 42.2768 138.728 51.2248 143.493Z" fill="#B1FA16"/>
<path d="M51.2248 162.524C58.65 166.485 71.5099 173.331 72.1509 181.774C72.2261 182.768 72.3943 185.009 70.8867 186.555C65.2571 192.345 43.498 180.877 40.6845 179.369C37.8922 177.874 35.3999 176.337 33.2093 174.871C26.9099 170.64 24.4461 162.752 28.8175 158.385C29.5076 157.695 30.3418 157.104 31.335 156.679C36.2843 154.57 42.2768 157.762 51.2248 162.524Z" fill="#B1FA16"/>
<path d="M48.4029 180.894C55.2344 184.474 67.0632 190.68 67.3447 198.905C67.3746 199.869 67.4548 202.05 65.977 203.618C60.4691 209.484 40.4444 199.103 37.8588 197.734C35.2899 196.379 33.0028 194.977 31.0069 193.625C25.2423 189.73 23.2248 182.12 27.4994 177.694C28.173 176.994 28.9728 176.384 29.929 175.933C34.6583 173.688 40.1711 176.577 48.4029 180.894Z" fill="#B1FA16"/>
<path d="M62.86 169.983L62.6287 169.924L36.0945 156.629L35.8579 155.926L36.5613 155.69L63.0966 168.984L63.3317 169.689L62.86 169.983Z" fill="#B1FA16"/>
<path d="M57.7104 185.4L57.5041 185.357L34.4603 175.638L34.1821 174.947L34.8734 174.67L57.9122 184.389L58.195 185.079L57.7104 185.4Z" fill="#B1FA16"/>
<path d="M153.16 103.723C150.538 101.71 147.914 99.6928 145.29 97.6802C137.848 104.647 130.256 112.377 122.698 120.944C120.234 123.734 117.872 126.51 115.593 129.269C116.431 132.393 117.883 134.23 119.24 135.354C125.835 140.795 139.757 136.044 146.983 127.929C155.389 118.493 153.515 105.875 153.16 103.723Z" fill="#B1FA16"/>
<path d="M148.184 126.99L147.952 126.936L147.712 126.232L151.982 117.45L152.685 117.207L152.929 117.912L148.655 126.691L148.184 126.99Z" fill="#B1FA16"/>
<g filter="url(#filter0_f_52_480)">
<circle cx="67.8883" cy="65.3058" r="13.9316" transform="rotate(-22.622 67.8883 65.3058)" stroke="#B1FA16"/>
</g>
<circle cx="67.7996" cy="65.5509" r="21.5636" transform="rotate(-22.622 67.7996 65.5509)" stroke="#B1FA16" stroke-width="3"/>
<path d="M65.6086 109.803C65.4138 109.881 65.3197 110.103 65.3994 110.301L69.3593 120.163L60.3388 112.147C60.1225 111.956 59.7299 112.114 59.7053 112.401L58.7369 124.428L54.777 114.567C54.6973 114.368 54.476 114.274 54.281 114.352C54.0834 114.431 53.9892 114.653 54.0689 114.851L58.6329 126.217C58.6998 126.384 58.8723 126.481 59.0448 126.455C59.2187 126.432 59.3514 126.282 59.3682 126.108L60.4067 113.228L70.0652 121.813C70.1738 121.91 70.3271 121.935 70.4589 121.882C70.4877 121.87 70.5124 121.857 70.5386 121.84C70.683 121.735 70.7383 121.55 70.6713 121.383L66.1074 110.017C66.0277 109.819 65.8065 109.724 65.6086 109.803ZM81.9211 116.682L76.8124 112.14C76.8084 112.139 76.8033 112.134 76.8021 112.131L71.6894 107.589C71.4731 107.398 71.0805 107.556 71.056 107.843L70.5077 114.659C70.5089 114.662 70.5083 114.669 70.5066 114.673L69.9572 121.486C69.9388 121.697 70.0958 121.881 70.3064 121.9C70.5172 121.919 70.7034 121.761 70.7188 121.55L71.2486 114.962L76.4768 112.863L81.4158 117.255C81.5284 117.353 81.6834 117.375 81.8124 117.323C81.867 117.301 81.914 117.269 81.9551 117.222C82.0953 117.066 82.0804 116.821 81.9211 116.682ZM71.3189 114.109L71.7574 108.67L75.8373 112.298L71.32 114.112L71.3189 114.109ZM92.8949 112.048L82.1378 116.367L83.1881 103.342C83.2037 103.132 83.0465 102.948 82.8359 102.929C82.6253 102.91 82.4432 103.07 82.4265 103.277L81.325 116.921C81.3154 117.055 81.3733 117.182 81.4778 117.26C81.5866 117.34 81.7264 117.357 81.8469 117.309L93.1773 112.759C93.3751 112.68 93.4693 112.458 93.3897 112.26C93.3111 112.064 93.0899 111.969 92.8949 112.048ZM98.7603 109.692L90.7366 112.914L91.7869 99.8889C91.8025 99.6789 91.6453 99.4949 91.4347 99.476C91.2241 99.4571 91.042 99.6171 91.0253 99.8241L89.9238 113.468C89.9142 113.602 89.9721 113.73 90.0766 113.807C90.1848 113.888 90.3252 113.905 90.4456 113.856L99.0427 110.404C99.2405 110.325 99.3347 110.103 99.2551 109.905C99.1765 109.709 98.9552 109.614 98.7603 109.692ZM110.486 105.211L105.378 100.67C105.374 100.668 105.369 100.664 105.367 100.661L100.255 96.118C100.038 95.9276 99.6458 96.0852 99.6213 96.3723L99.073 103.188C99.0742 103.191 99.0736 103.198 99.0719 103.202L98.5225 110.015C98.5041 110.226 98.6611 110.41 98.8717 110.429C99.0825 110.448 99.2687 110.29 99.2841 110.08L99.8139 103.492L105.042 101.392L109.981 105.784C110.094 105.883 110.249 105.904 110.378 105.852C110.432 105.83 110.479 105.798 110.52 105.752C110.661 105.595 110.646 105.351 110.486 105.211ZM99.8842 102.639L100.323 97.1993L104.403 100.828L99.8853 102.642L99.8842 102.639ZM111.217 98.502L111.753 91.8711C111.769 91.6612 111.612 91.4772 111.401 91.4583C111.191 91.4393 111.009 91.5993 110.992 91.8064L110.503 97.867L105.959 93.8275C105.803 93.6895 105.561 93.6999 105.422 93.8592C105.283 94.0186 105.297 94.2601 105.453 94.401L110.426 98.8197L109.89 105.45C109.875 105.66 110.032 105.844 110.242 105.863C110.453 105.882 110.636 105.725 110.652 105.515L111.14 99.4544L115.685 103.494C115.798 103.592 115.95 103.615 116.082 103.562C116.133 103.541 116.183 103.508 116.224 103.461C116.363 103.302 116.347 103.061 116.19 102.92L111.217 98.502Z" fill="white"/>
<g filter="url(#filter1_f_52_480)">
<circle cx="111.594" cy="173.594" r="18" transform="rotate(-22.9489 111.594 173.594)" fill="#B1FA16" fill-opacity="0.15"/>
</g>
<g filter="url(#filter2_bd_52_480)">
<circle cx="111.594" cy="166.683" r="18" transform="rotate(-22.9489 111.594 166.683)" fill="#B1FA16" fill-opacity="0.15" shape-rendering="crispEdges"/>
<circle cx="111.594" cy="166.683" r="17.5" transform="rotate(-22.9489 111.594 166.683)" stroke="white" shape-rendering="crispEdges"/>
</g>
<g filter="url(#filter3_f_52_480)">
<path d="M103.992 170.847C103.299 170.543 102.978 169.734 103.282 169.041C103.843 167.75 108.787 168.219 110.313 168.181C110.636 156.556 126.264 144.454 123.616 150.202C120.917 153.549 118.721 157.313 117.173 161.324C115.682 165.191 114.802 169.267 114.66 173.421C114.654 173.587 114.621 173.764 114.548 173.925C114.244 174.618 113.435 174.939 112.742 174.635L103.996 170.856L103.992 170.847Z" fill="#B1FA16"/>
</g>
<path d="M103.992 170.847C103.299 170.543 102.978 169.734 103.282 169.041C103.843 167.75 108.787 168.219 110.313 168.181C110.636 156.556 126.264 144.454 123.616 150.202C120.917 153.549 118.721 157.313 117.173 161.324C115.682 165.191 114.802 169.267 114.66 173.421C114.654 173.587 114.621 173.764 114.548 173.925C114.244 174.618 113.435 174.939 112.742 174.635L103.996 170.856L103.992 170.847Z" fill="#B1FA16"/>
<defs>
<filter id="filter0_f_52_480" x="49.4529" y="46.8704" width="36.8708" height="36.8708" filterUnits="userSpaceOnUse" color-interpolation-filters="sRGB">
<feFlood flood-opacity="0" result="BackgroundImageFix"/>
<feBlend mode="normal" in="SourceGraphic" in2="BackgroundImageFix" result="shape"/>
<feGaussianBlur stdDeviation="2" result="effect1_foregroundBlur_52_480"/>
</filter>
<filter id="filter1_f_52_480" x="87.5891" y="149.589" width="48.0093" height="48.0093" filterUnits="userSpaceOnUse" color-interpolation-filters="sRGB">
<feFlood flood-opacity="0" result="BackgroundImageFix"/>
<feBlend mode="normal" in="SourceGraphic" in2="BackgroundImageFix" result="shape"/>
<feGaussianBlur stdDeviation="3" result="effect1_foregroundBlur_52_480"/>
</filter>
<filter id="filter2_bd_52_480" x="63.5891" y="128.678" width="96.0093" height="96.0093" filterUnits="userSpaceOnUse" color-interpolation-filters="sRGB">
<feFlood flood-opacity="0" result="BackgroundImageFix"/>
<feGaussianBlur in="BackgroundImageFix" stdDeviation="7.5"/>
<feComposite in2="SourceAlpha" operator="in" result="effect1_backgroundBlur_52_480"/>
<feColorMatrix in="SourceAlpha" type="matrix" values="0 0 0 0 0 0 0 0 0 0 0 0 0 0 0 0 0 0 127 0" result="hardAlpha"/>
<feOffset dy="10"/>
<feGaussianBlur stdDeviation="15"/>
<feComposite in2="hardAlpha" operator="out"/>
<feColorMatrix type="matrix" values="0 0 0 0 0 0 0 0 0 0 0 0 0 0 0 0 0 0 0.08 0"/>
<feBlend mode="normal" in2="effect1_backgroundBlur_52_480" result="effect2_dropShadow_52_480"/>
<feBlend mode="normal" in="SourceGraphic" in2="effect2_dropShadow_52_480" result="shape"/>
</filter>
<filter id="filter3_f_52_480" x="91.1672" y="136.726" width="44.7505" height="50.0243" filterUnits="userSpaceOnUse" color-interpolation-filters="sRGB">
<feFlood flood-opacity="0" result="BackgroundImageFix"/>
<feBlend mode="normal" in="SourceGraphic" in2="BackgroundImageFix" result="shape"/>
<feGaussianBlur stdDeviation="6" result="effect1_foregroundBlur_52_480"/>
</filter>
</defs>
</svg>
