<svg width="144" height="43" viewBox="0 0 144 43" fill="none" xmlns="http://www.w3.org/2000/svg">
<path d="M138.667 42.7357H5.33334C2.40004 42.7357 0 40.3318 0 37.3937V5.34198C0 2.40388 2.39999 0 5.33334 0H138.667C141.6 0 144 2.40388 144 5.34198V37.3937C144 40.3318 141.6 42.7357 138.667 42.7357Z" fill="black"/>
<path d="M51.3557 10.8293C51.3557 11.7244 51.091 12.4372 50.561 12.9689C49.9589 13.6012 49.1743 13.9176 48.2097 13.9176C47.286 13.9176 46.5006 13.5971 45.8547 12.9552C45.2077 12.3137 44.8848 11.5183 44.8848 10.5692C44.8848 9.61978 45.2077 8.82482 45.8547 8.18285C46.5006 7.54145 47.286 7.22046 48.2097 7.22046C48.668 7.22046 49.1069 7.31025 49.5235 7.4893C49.9401 7.66879 50.2743 7.90704 50.5244 8.20541L49.9618 8.76922C49.5381 8.26217 48.9548 8.00884 48.2097 8.00884C47.536 8.00884 46.9535 8.24594 46.4619 8.72043C45.9701 9.19541 45.7243 9.81136 45.7243 10.5692C45.7243 11.3272 45.9701 11.9431 46.4619 12.4181C46.9535 12.8926 47.536 13.1297 48.2097 13.1297C48.9244 13.1297 49.5202 12.8913 49.9972 12.4139C50.3069 12.1029 50.4859 11.6706 50.5339 11.1155H48.2096V10.3455H51.311C51.341 10.513 51.3556 10.6736 51.3556 10.8293" fill="white"/>
<path d="M51.3556 10.8292H51.2489C51.248 11.7039 50.9929 12.3833 50.4854 12.8933L50.4843 12.8942L50.4838 12.895C49.9009 13.5055 49.1516 13.8094 48.2095 13.8107C47.3105 13.8094 46.5579 13.5022 45.9296 12.8795C45.3026 12.2556 44.9925 11.4939 44.9913 10.5691C44.9925 9.64393 45.3026 8.88268 45.9296 8.25919C46.5579 7.63609 47.3105 7.32849 48.2095 7.3272C48.6542 7.3272 49.0775 7.41411 49.4813 7.58725C49.8854 7.76174 50.2047 7.9904 50.4425 8.27427L50.5242 8.20532L50.4488 8.12979L49.8863 8.69398L49.9617 8.76912L50.0438 8.70075C49.6004 8.16858 48.978 7.90032 48.2096 7.9019C47.5109 7.90104 46.8963 8.15111 46.3879 8.64361C45.8746 9.13769 45.6167 9.78831 45.6176 10.5691C45.6167 11.35 45.8746 12.0006 46.3879 12.4947C46.8963 12.9872 47.5109 13.2373 48.2095 13.2364C48.9479 13.2377 49.5771 12.9868 50.0725 12.4894C50.4034 12.1571 50.5909 11.6969 50.6401 11.1246L50.65 11.0086H48.3162V10.4523H51.3109V10.3454L51.2058 10.3642C51.235 10.5262 51.2489 10.6802 51.2489 10.8292H51.4622C51.4622 10.6668 51.4471 10.4999 51.4159 10.3263L51.4001 10.2386H48.103V11.2223H50.5338V11.1154L50.4276 11.1063C50.3805 11.6438 50.2096 12.0487 49.9217 12.3384C49.4634 12.7957 48.9009 13.0214 48.2096 13.0227C47.5609 13.0219 47.0105 12.7982 46.5359 12.3412C46.0659 11.8858 45.8321 11.3045 45.8309 10.5691C45.8321 9.83378 46.0659 9.25245 46.5359 8.79712C47.0105 8.34015 47.5608 8.11644 48.2096 8.11558C48.9309 8.1173 49.4755 8.35599 49.8801 8.83802L49.9551 8.92733L50.5997 8.28089L50.6688 8.21165L50.6059 8.13685C50.3438 7.82392 49.9946 7.57554 49.5655 7.39116C49.1355 7.2062 48.6817 7.11353 48.2096 7.11353C47.2613 7.11271 46.443 7.44657 45.7792 8.10727C45.113 8.76667 44.7772 9.59553 44.7781 10.5691C44.7772 11.5423 45.113 12.3717 45.7796 13.0315C46.443 13.6917 47.2613 14.0252 48.2096 14.0243C49.1971 14.0252 50.0163 13.6967 50.638 13.0427L50.5608 12.9689L50.6363 13.0444C51.1888 12.4914 51.4629 11.7444 51.4622 10.8292H51.3556ZM56.2721 8.15149H53.3575V10.184H55.9859V10.9543H53.3575V12.9868H56.2721V13.7743H52.5359V7.36398H56.2721V8.15149Z" fill="white"/>
<path d="M56.2723 8.15167V8.04484H53.2511V10.291H55.8795V10.8473L53.2511 10.8476V13.0938H56.1656V13.6677H52.6428V7.471H56.1656V8.15167H56.2723H56.379V7.25732H52.4294V13.8813H56.379V12.8802H53.4644V11.0613H56.0928V10.0774H53.4644V8.25851H56.379V8.15167H56.2723ZM59.7402 13.7745H58.9173V8.15162H57.1298V7.36411H61.5278V8.15162H59.7402V13.7745" fill="white"/>
<path d="M59.7403 13.7745V13.6677H59.024V8.04484H57.2365V7.47104H61.4211V8.04484H59.6336V13.7745H59.7403H59.847V8.25851H61.6345V7.25732H57.0232V8.25846H58.8107V13.8813H59.847V13.7745H59.7403M64.7099 13.7745V7.36411H65.532V13.7745H64.7099" fill="white"/>
<path d="M64.7099 13.7745H64.8166V7.471H65.4253V13.6677H64.7099V13.7745V13.8813H65.6386V7.25732H64.6033V13.8813H64.7099V13.7745M69.1799 13.7745H68.357V8.15162H66.5695V7.36411H70.9674V8.15162H69.1799V13.7745" fill="white"/>
<path d="M69.1799 13.7745V13.6676H68.4636V8.04475H66.6762V7.47096H70.8607V8.04475H69.0732V13.7744H69.1799H69.2866V8.25842H71.0741V7.25724H66.4629V8.25838H68.2503V13.8812H69.2866V13.7744H69.1799M75.2074 12.4094C75.6811 12.8897 76.2608 13.1296 76.9462 13.1296C77.6316 13.1296 78.2116 12.8897 78.6845 12.4094C79.1587 11.929 79.3962 11.315 79.3962 10.5692C79.3962 9.82356 79.1587 9.20953 78.6845 8.72917C78.2116 8.24882 77.6316 8.00884 76.9462 8.00884C76.2608 8.00884 75.6811 8.24882 75.2074 8.72917C74.7345 9.20953 74.497 9.82351 74.497 10.5692C74.497 11.315 74.7345 11.929 75.2074 12.4094ZM79.2928 12.946C78.6636 13.5941 77.8812 13.9176 76.9462 13.9176C76.0103 13.9176 75.2282 13.5941 74.6004 12.946C73.9707 12.2986 73.6574 11.5062 73.6574 10.5692C73.6574 9.63226 73.9707 8.83971 74.6004 8.1925C75.2282 7.54428 76.0103 7.22046 76.9462 7.22046C77.8762 7.22046 78.6566 7.54601 79.2887 8.19667C79.9199 8.84729 80.2358 9.63812 80.2358 10.5692C80.2358 11.5062 79.9207 12.2986 79.2928 12.946Z" fill="white"/>
<path d="M75.2074 12.4093L75.1316 12.4844C75.6229 12.9839 76.2358 13.2377 76.9462 13.2364C77.6562 13.2377 78.2699 12.9839 78.7604 12.4844C79.2549 11.9843 79.5036 11.3375 79.5029 10.5692C79.5036 9.80089 79.2549 9.15397 78.7604 8.65393C78.2699 8.15437 77.6562 7.90066 76.9462 7.9019C76.2358 7.90066 75.6229 8.15437 75.1316 8.65393C74.6383 9.15397 74.389 9.80089 74.3903 10.5692C74.389 11.3374 74.6383 11.9843 75.1316 12.4844L75.2074 12.4093L75.2833 12.3341C74.8308 11.8729 74.6045 11.2928 74.6037 10.5692C74.6045 9.84555 74.8308 9.26542 75.2833 8.80417C75.7399 8.34308 76.2853 8.11687 76.9462 8.11562C77.6066 8.11687 78.1532 8.34308 78.6087 8.80417C79.062 9.26542 79.2883 9.84555 79.2891 10.5692C79.2883 11.2928 79.062 11.8729 78.6087 12.3341C78.1532 12.7953 77.6066 13.0214 76.9462 13.0227C76.2853 13.0214 75.7399 12.7953 75.2833 12.3341L75.2074 12.4093ZM79.2928 12.9459L79.2166 12.8717C78.605 13.4993 77.857 13.8094 76.9462 13.8107C76.0349 13.8094 75.287 13.4993 74.6765 12.8717C74.0662 12.2418 73.765 11.4823 73.7641 10.5692C73.765 9.65598 74.0662 8.89646 74.6765 8.26668C75.287 7.63897 76.0349 7.3285 76.9462 7.32725C77.8512 7.3285 78.5974 7.64026 79.2124 8.27124C79.8249 8.90395 80.1278 9.66227 80.1291 10.5692C80.1278 11.4823 79.8258 12.2418 79.2166 12.8717L79.2928 12.9459L79.3696 13.0201C80.0161 12.355 80.3432 11.5299 80.3425 10.5692C80.3432 9.61392 80.0149 8.79049 79.3653 8.12235C78.7153 7.45156 77.9012 7.11238 76.9462 7.11353C75.9862 7.11238 75.1695 7.44998 74.5237 8.11817V8.11769C73.8758 8.78334 73.5499 9.60845 73.5508 10.5692C73.5499 11.5299 73.8758 12.355 74.5237 13.0206L74.5266 13.0236L74.5237 13.0201C75.1695 13.6883 75.9862 14.0252 76.9462 14.0243C77.9057 14.0252 78.7224 13.6883 79.3696 13.0201L79.2928 12.9459ZM81.3899 13.7744V7.36393H82.3908L85.5012 12.3507H85.5366L85.5012 11.1154V7.36393H86.3241V13.7743H85.4657L82.2116 8.5458H82.1762L82.2116 9.78159V13.7743H81.3899" fill="white"/>
<path d="M81.3898 13.7746H81.4965V7.471H82.3315L85.4419 12.4578H85.646L85.6077 11.114V7.47104H86.2173V13.6677H85.5249L82.2707 8.43919H82.0665L82.1048 9.78355V13.6677H81.3898V13.7745V13.8813H82.3181V9.78014L82.2828 8.54315L82.1761 8.54603V8.65286H82.2115V8.54603L82.121 8.60283L85.4065 13.8813H86.4307V7.25732H85.3944V11.1169L85.4298 12.3538L85.5365 12.351V12.2441H85.5011V12.351L85.5915 12.2943L82.4498 7.25732H81.2832V13.8813H81.3898V13.7745M114.841 31.9372H116.832V18.581H114.841L114.841 31.9372ZM132.769 23.3922L130.487 29.1828H130.419L128.051 23.3922H125.907L129.458 31.4856L127.433 35.9875H129.51L134.982 23.3922L132.769 23.3922ZM121.481 30.4202C120.828 30.4202 119.92 30.0938 119.92 29.2859C119.92 28.255 121.052 27.8598 122.029 27.8598C122.905 27.8598 123.316 28.0488 123.848 28.3068C123.693 29.5438 122.63 30.4202 121.481 30.4202ZM121.721 23.1C120.28 23.1 118.788 23.736 118.17 25.145L119.937 25.8837C120.314 25.145 121.017 24.9042 121.755 24.9042C122.785 24.9042 123.831 25.5231 123.848 26.6228V26.7601C123.488 26.5539 122.716 26.2447 121.772 26.2447C119.868 26.2447 117.929 27.2926 117.929 29.2516C117.929 31.0387 119.491 32.1901 121.24 32.1901C122.579 32.1901 123.316 31.5887 123.78 30.8843H123.848V31.9151H125.769V26.7943C125.769 24.4234 124.003 23.1 121.721 23.1ZM109.42 25.0181H106.589V20.4399H109.42C110.908 20.4399 111.753 21.6739 111.753 22.7289C111.753 23.764 110.908 25.0181 109.42 25.0181ZM109.369 18.581H104.6V31.9372H106.589V26.8769H109.369C111.575 26.8769 113.744 25.2772 113.744 22.7289C113.744 20.1807 111.575 18.581 109.369 18.581ZM83.3627 30.4226C81.9877 30.4226 80.8365 29.2695 80.8365 27.6857C80.8365 26.0853 81.9877 24.9146 83.3627 24.9146C84.7203 24.9146 85.7857 26.0853 85.7857 27.6857C85.7857 29.2695 84.7202 30.4226 83.3627 30.4226ZM85.6482 24.1401H85.5794C85.1328 23.6066 84.2731 23.1247 83.1907 23.1247C80.9223 23.1247 78.8432 25.1212 78.8432 27.6857C78.8432 30.2332 80.9223 32.2126 83.1907 32.2126C84.2731 32.2126 85.1328 31.7306 85.5794 31.1801H85.6482V31.8341C85.6482 33.5728 84.7203 34.5022 83.2253 34.5022C82.0052 34.5022 81.249 33.6241 80.9394 32.8841L79.2041 33.607C79.7024 34.8118 81.0256 36.2922 83.2253 36.2922C85.5623 36.2922 87.5386 34.9149 87.5386 31.5587V23.4001H85.6482V24.1401ZM88.9132 31.9372H90.9065V18.5805H88.9132V31.9372ZM93.8452 27.5309C93.7936 25.7751 95.2027 24.8803 96.2165 24.8803C97.0075 24.8803 97.6774 25.276 97.9003 25.8445L93.8452 27.5309ZM100.032 26.0164C99.6539 25.0005 98.5019 23.1247 96.1477 23.1247C93.8107 23.1247 91.869 24.9663 91.869 27.6686C91.869 30.2161 93.7936 32.2126 96.3711 32.2126C98.4507 32.2126 99.6539 30.9389 100.152 30.1989L98.6054 29.166C98.0902 29.9235 97.3852 30.4226 96.3711 30.4226C95.3573 30.4226 94.6357 29.9578 94.1714 29.0458L100.237 26.5326L100.032 26.0164ZM51.7028 24.5189V26.4466H56.3081C56.1706 27.5309 55.8097 28.3226 55.2598 28.8735C54.5898 29.545 53.5415 30.2849 51.7027 30.2849C48.8672 30.2849 46.6506 27.9958 46.6506 25.1558C46.6506 22.3158 48.8672 20.0263 51.7028 20.0263C53.2323 20.0263 54.349 20.6289 55.1739 21.4034L56.5315 20.0438C55.3802 18.942 53.8506 18.0986 51.7028 18.0986C47.819 18.0986 44.554 21.2658 44.554 25.1558C44.554 29.0458 47.819 32.2126 51.7028 32.2126C53.7994 32.2126 55.3802 31.5245 56.6173 30.2332C57.889 28.9595 58.2844 27.1695 58.2844 25.7238C58.2844 25.276 58.2502 24.8632 58.1811 24.5189H51.7028ZM63.5203 30.4226C62.1452 30.4226 60.9594 29.2866 60.9594 27.6686C60.9594 26.0334 62.1452 24.9146 63.5203 24.9146C64.8948 24.9146 66.0806 26.0334 66.0806 27.6686C66.0806 29.2866 64.8948 30.4226 63.5203 30.4226ZM63.5203 23.1247C61.011 23.1247 58.966 25.0351 58.966 27.6686C58.966 30.2849 61.011 32.2126 63.5203 32.2126C66.029 32.2126 68.074 30.2849 68.074 27.6686C68.074 25.0351 66.029 23.1247 63.5203 23.1247ZM73.4543 30.4226C72.0799 30.4226 70.8939 29.2866 70.8939 27.6686C70.8939 26.0334 72.0799 24.9146 73.4544 24.9146C74.829 24.9146 76.0148 26.0334 76.0148 27.6686C76.0148 29.2866 74.8289 30.4226 73.4543 30.4226ZM73.4543 23.1247C70.9452 23.1247 68.9007 25.0351 68.9007 27.6686C68.9007 30.2849 70.9452 32.2126 73.4544 32.2126C75.9632 32.2126 78.0082 30.2849 78.0082 27.6686C78.0082 25.0351 75.9631 23.1247 73.4543 23.1247Z" fill="white"/>
<path d="M10.2689 8.13173C9.91094 8.45522 9.69727 8.99477 9.69727 9.71098V9.54907V33.1831V33.0274C9.69727 33.6888 9.88054 34.1996 10.1909 34.5286L10.2701 34.6045V34.6049C10.5214 34.832 10.8435 34.9525 11.2127 34.9521C11.5734 34.9521 11.9793 34.8369 12.4077 34.5937L27.8906 25.7824L33.2088 22.7554C33.8843 22.3711 34.2635 21.8752 34.3268 21.3702V21.3681C34.2635 20.862 33.8843 20.3665 33.2089 19.9822L27.8901 16.9556L12.4077 8.14422C11.9785 7.90053 11.5723 7.78491 11.2106 7.78491C10.8418 7.78491 10.5201 7.9051 10.269 8.13173H10.2689Z" fill="#00C1FF"/>
<path d="M10.2702 34.6047L10.1909 34.5288C9.88054 34.1999 9.69727 33.689 9.69727 33.0276V33.1833V9.55512V9.71117C9.69727 8.99496 9.91094 8.45541 10.2689 8.13193L23.4847 21.3688L10.2702 34.6047Z" fill="url(#paint0_linear_152_680)"/>
<path d="M27.8907 25.7825L23.4849 21.3687L27.8903 16.9557L33.209 19.9823C33.8844 20.3667 34.2636 20.8621 34.327 21.3683V21.3703C34.2636 21.8754 33.8844 22.3712 33.209 22.7555L27.8908 25.7824" fill="url(#paint1_linear_152_680)"/>
<path d="M11.2127 34.9524C10.8436 34.9527 10.5214 34.8321 10.2703 34.6051V34.6048L23.4848 21.3688L27.8906 25.7825L12.4077 34.5939C11.9793 34.8372 11.5735 34.9524 11.2127 34.9524Z" fill="url(#paint2_linear_152_680)"/>
<path d="M23.4849 21.3687L10.269 8.13181C10.5203 7.90518 10.842 7.78499 11.2107 7.78499C11.5724 7.78499 11.9786 7.90057 12.4078 8.1443L27.8903 16.9556L23.4849 21.3687" fill="url(#paint3_linear_152_680)"/>
<path d="M11.2133 35.1089C10.8441 35.1089 10.5216 34.9883 10.2703 34.7613L10.2699 34.7616C10.2689 34.7606 10.2678 34.7596 10.2666 34.7588L10.1979 34.6915C10.1957 34.6894 10.1937 34.687 10.1912 34.6845L10.2704 34.6051C10.5216 34.8322 10.8437 34.9528 11.2129 34.9524C11.5736 34.9524 11.9795 34.8372 12.4079 34.5939L27.8908 25.7826L27.99 25.882L27.8895 25.9391L12.4078 34.75C12.0175 34.9716 11.6461 35.0872 11.3108 35.1064C11.2783 35.108 11.2458 35.1089 11.2133 35.1089Z" fill="url(#paint4_linear_152_680)"/>
<path d="M10.1909 34.6843C9.88054 34.3554 9.69727 33.845 9.69727 33.1832V33.0275C9.69727 33.6889 9.88054 34.1997 10.1909 34.5287L10.2701 34.6046L10.1909 34.6843Z" fill="url(#paint5_linear_152_680)"/>
<path d="M27.9898 25.8818L27.8906 25.7824L33.2089 22.7555C33.8843 22.3712 34.2635 21.8753 34.3269 21.3703C34.3269 21.5556 34.2856 21.7409 34.2036 21.9213C34.0381 22.2848 33.7065 22.6282 33.2089 22.9116L27.9898 25.8818" fill="url(#paint6_linear_152_680)"/>
<path d="M34.3268 21.3682C34.2635 20.8619 33.8843 20.3665 33.2089 19.9821L27.8901 16.9556L27.9893 16.8562H27.9898L33.2089 19.8265C33.9535 20.2505 34.3264 20.8093 34.3268 21.3682Z" fill="url(#paint7_linear_152_680)"/>
<path d="M9.69727 9.71118V9.54793C9.69727 9.48906 9.69885 9.43149 9.70188 9.3756V9.37305C9.70188 9.37228 9.70188 9.37147 9.70216 9.3706V9.36431C9.73429 8.7946 9.91094 8.35021 10.1909 8.05347L10.2689 8.13188C9.91094 8.45542 9.69727 8.99497 9.69727 9.71118Z" fill="url(#paint8_linear_152_680)"/>
<path d="M27.8901 16.9558L12.4076 8.14438C11.9784 7.90069 11.5722 7.78512 11.2105 7.78512C10.8418 7.78512 10.5201 7.9053 10.2689 8.13194L10.1909 8.05348C10.2153 8.02766 10.2406 8.00275 10.2668 7.97882C10.2676 7.97795 10.2689 7.97709 10.2697 7.97627C10.5189 7.75136 10.8372 7.63118 11.2027 7.62902H11.2105C11.5722 7.62902 11.9784 7.74464 12.4076 7.98842L27.9897 16.8561L27.9893 16.8564L27.8901 16.9558Z" fill="url(#paint9_linear_152_680)"/>
<defs>
<linearGradient id="paint0_linear_152_680" x1="18.143" y1="9.30539" x2="6.7539" y2="20.7128" gradientUnits="userSpaceOnUse">
<stop stop-color="#00A0FF"/>
<stop offset="0.00657" stop-color="#00A1FF"/>
<stop offset="0.2601" stop-color="#00BEFF"/>
<stop offset="0.5122" stop-color="#00D2FF"/>
<stop offset="0.7604" stop-color="#00DFFF"/>
<stop offset="1" stop-color="#00E3FF"/>
</linearGradient>
<linearGradient id="paint1_linear_152_680" x1="35.1499" y1="21.2925" x2="9.33977" y2="21.2925" gradientUnits="userSpaceOnUse">
<stop stop-color="#FFE000"/>
<stop offset="0.4087" stop-color="#FFBD00"/>
<stop offset="0.7754" stop-color="#FFA500"/>
<stop offset="1" stop-color="#FF9C00"/>
</linearGradient>
<linearGradient id="paint2_linear_152_680" x1="25.5515" y1="25.5652" x2="6.25189" y2="44.7547" gradientUnits="userSpaceOnUse">
<stop stop-color="#FF3A44"/>
<stop offset="1" stop-color="#C31162"/>
</linearGradient>
<linearGradient id="paint3_linear_152_680" x1="6.86295" y1="6.16939" x2="15.4644" y2="14.7349" gradientUnits="userSpaceOnUse">
<stop stop-color="#32A071"/>
<stop offset="0.0685" stop-color="#2DA771"/>
<stop offset="0.4762" stop-color="#15CF74"/>
<stop offset="0.8009" stop-color="#06E775"/>
<stop offset="1" stop-color="#00F076"/>
</linearGradient>
<linearGradient id="paint4_linear_152_680" x1="25.542" y1="28.6269" x2="10.0859" y2="44.108" gradientUnits="userSpaceOnUse">
<stop stop-color="#CC2E36"/>
<stop offset="1" stop-color="#9C0E4E"/>
</linearGradient>
<linearGradient id="paint5_linear_152_680" x1="11.4578" y1="9.30524" x2="1.4242" y2="19.3552" gradientUnits="userSpaceOnUse">
<stop stop-color="#008DE0"/>
<stop offset="0.00657" stop-color="#008DE0"/>
<stop offset="0.2601" stop-color="#00A7E0"/>
<stop offset="0.5122" stop-color="#00B8E0"/>
<stop offset="0.7604" stop-color="#00C4E0"/>
<stop offset="1" stop-color="#00C7E0"/>
</linearGradient>
<linearGradient id="paint6_linear_152_680" x1="35.1498" y1="21.3693" x2="9.33966" y2="21.3693" gradientUnits="userSpaceOnUse">
<stop stop-color="#E0C500"/>
<stop offset="0.4087" stop-color="#E0A600"/>
<stop offset="0.7754" stop-color="#E09100"/>
<stop offset="1" stop-color="#E08900"/>
</linearGradient>
<linearGradient id="paint7_linear_152_680" x1="35.1498" y1="21.3692" x2="9.33968" y2="21.3692" gradientUnits="userSpaceOnUse">
<stop stop-color="#FFE840"/>
<stop offset="0.4087" stop-color="#FFCE40"/>
<stop offset="0.7754" stop-color="#FFBC40"/>
<stop offset="1" stop-color="#FFB540"/>
</linearGradient>
<linearGradient id="paint8_linear_152_680" x1="11.4469" y1="9.32355" x2="1.78279" y2="18.5839" gradientUnits="userSpaceOnUse">
<stop stop-color="#40B8FF"/>
<stop offset="0.00657" stop-color="#40B9FF"/>
<stop offset="0.2601" stop-color="#40CEFF"/>
<stop offset="0.5122" stop-color="#40DDFF"/>
<stop offset="0.7604" stop-color="#40E7FF"/>
<stop offset="1" stop-color="#40EAFF"/>
</linearGradient>
<linearGradient id="paint9_linear_152_680" x1="6.8435" y1="8.96886" x2="13.7453" y2="15.8819" gradientUnits="userSpaceOnUse">
<stop stop-color="#65B895"/>
<stop offset="0.0685" stop-color="#62BD95"/>
<stop offset="0.4762" stop-color="#50DB97"/>
<stop offset="0.8009" stop-color="#44ED98"/>
<stop offset="1" stop-color="#40F498"/>
</linearGradient>
</defs>
</svg>
