<svg width="325" height="410" viewBox="0 0 325 410" fill="none" xmlns="http://www.w3.org/2000/svg">
<g opacity="0.4" filter="url(#filter0_f_56_634)">
<path d="M267.65 65H100.35C95.1862 65 91 69.174 91 74.3228V140.677C91 145.826 95.1862 150 100.35 150H267.65C272.814 150 277 145.826 277 140.677V74.3228C277 69.174 272.814 65 267.65 65Z" fill="#B1FA16"/>
</g>
<g opacity="0.4" filter="url(#filter1_f_56_634)">
<path d="M207.65 169H40.3503C35.1862 169 31 173.174 31 178.323V244.677C31 249.826 35.1862 254 40.3503 254H207.65C212.814 254 217 249.826 217 244.677V178.323C217 173.174 212.814 169 207.65 169Z" fill="#B1FA16"/>
</g>
<g opacity="0.4" filter="url(#filter2_f_56_634)">
<path d="M271.65 278H104.35C99.1862 278 95 282.174 95 287.323V353.677C95 358.826 99.1862 363 104.35 363H271.65C276.814 363 281 358.826 281 353.677V287.323C281 282.174 276.814 278 271.65 278Z" fill="#B1FA16"/>
</g>
<path d="M302.987 408H144.013C132.947 408 124 397.749 124 385.083V24.9412C124 12.2749 132.947 2 144.013 2H178.904C179.335 8.80222 185.031 14.2337 191.934 14.2337H255.066C261.969 14.2337 267.665 8.80222 268.096 2H302.987C314.037 2 323 12.2749 323 24.9412V385.083C323 397.749 314.037 408 302.987 408Z" stroke="#B1FA16" stroke-width="3" stroke-miterlimit="10"/>
<path d="M278.65 58H111.35C106.186 58 102 62.174 102 67.3228V133.677C102 138.826 106.186 143 111.35 143H278.65C283.814 143 288 138.826 288 133.677V67.3228C288 62.174 283.814 58 278.65 58Z" fill="black" stroke="#B1FA16" stroke-width="3" stroke-miterlimit="22.9256"/>
<path d="M212.65 164H45.3503C40.1862 164 36 168.174 36 173.323V239.677C36 244.826 40.1862 249 45.3503 249H212.65C217.814 249 222 244.826 222 239.677V173.323C222 168.174 217.814 164 212.65 164Z" fill="black" stroke="#B1FA16" stroke-width="3" stroke-miterlimit="22.9256"/>
<path d="M278.65 271H111.35C106.186 271 102 275.223 102 280.432V347.568C102 352.777 106.186 357 111.35 357H278.65C283.814 357 288 352.777 288 347.568V280.432C288 275.223 283.814 271 278.65 271Z" fill="black" stroke="#B1FA16" stroke-width="3" stroke-miterlimit="22.9256"/>
<path d="M184.454 107.889C180.371 124.266 163.783 134.231 147.406 130.148C131.035 126.066 121.069 109.479 125.153 93.1027C129.234 76.7243 145.82 66.7578 162.193 70.8394C178.57 74.9225 188.536 91.512 184.453 107.889H184.454Z" fill="#B1FA16"/>
<path d="M161.654 96.0795C160.708 99.8676 154.871 97.9435 152.977 97.4708L154.647 90.7743C156.541 91.247 162.639 92.1276 161.654 96.0795ZM160.617 106.886C159.579 111.05 152.568 108.8 150.293 108.235L152.135 100.851C154.408 101.419 161.698 102.542 160.618 106.886H160.617ZM168.281 96.1392C168.889 92.0719 165.792 89.8853 161.557 88.4269L162.931 82.9165L159.576 82.0807L158.238 87.4456C157.358 87.226 156.452 87.0188 155.552 86.8126L156.899 81.4132L153.547 80.5774L152.173 86.0859C151.442 85.9186 150.726 85.7553 150.03 85.5816L150.035 85.5649L145.409 84.4094L144.517 87.9918L146.953 88.5976C148.311 88.9366 148.558 89.8355 148.516 90.5479L146.946 96.8492L144.752 105.643C144.585 106.055 144.164 106.675 143.215 106.44L140.777 105.831L139.112 109.671L143.477 110.759C144.289 110.962 145.085 111.175 145.867 111.376L144.479 116.95L147.829 117.786L149.205 112.272C150.119 112.521 151.008 112.75 151.877 112.966L150.507 118.454L153.861 119.29L155.249 113.727C160.968 114.809 165.27 114.373 167.079 109.201C168.538 105.036 167.007 102.633 163.998 101.066C166.189 100.558 167.839 99.1172 168.28 96.1392H168.281Z" fill="black"/>
<path fill-rule="evenodd" clip-rule="evenodd" d="M154.803 281.797C171.686 281.797 185.372 295.483 185.372 312.366C185.372 329.248 171.686 342.935 154.803 342.935C137.921 342.935 124.234 329.248 124.234 312.366C124.234 295.483 137.921 281.797 154.803 281.797Z" fill="#B1FA16"/>
<path d="M170.078 312.787L155.754 306.386V289.439L170.078 312.787Z" fill="black"/>
<path d="M155.754 289.439L141.429 312.787L155.754 306.386V289.439Z" fill="black"/>
<path d="M155.754 335.283V323.768L170.088 315.453L155.754 335.283Z" fill="black"/>
<path d="M155.754 335.283V323.766L141.429 315.453L155.754 335.283Z" fill="black"/>
<path fill-rule="evenodd" clip-rule="evenodd" d="M155.754 321.103V306.389L170.078 312.786L155.754 321.103ZM156.968 308.255V318.998L167.426 312.927L156.968 308.255Z" fill="black"/>
<path fill-rule="evenodd" clip-rule="evenodd" d="M155.754 321.103L141.429 312.786L155.754 306.389V321.103ZM144.081 312.927L154.541 318.998V308.255L144.081 312.927Z" fill="black"/>
<path d="M86.6893 175.86C103.572 175.86 117.258 189.546 117.258 206.43C117.258 223.312 103.572 236.999 86.6893 236.999C69.8067 236.999 56.1201 223.312 56.1201 206.43C56.1201 189.546 69.8067 175.86 86.6893 175.86Z" fill="#B1FA16"/>
<path d="M78.7796 203.145L83.4084 198.533L84.3838 197.556L86.6967 195.243L94.5733 203.145L99.1587 198.533L86.6967 186.049L74.1942 198.533L78.7796 203.145Z" fill="black"/>
<path d="M82.0989 206.421L86.703 201.818L91.3067 206.421L86.703 211.025L82.0989 206.421Z" fill="black"/>
<path d="M94.5733 209.723L86.6942 217.602L83.9279 214.836L83.4182 214.326L78.7796 209.723L74.1942 214.308L86.6967 226.79L99.1587 214.308L94.5733 209.723Z" fill="black"/>
<path d="M66.3102 206.434L70.9143 201.83L75.5179 206.434L70.9143 211.039L66.3102 206.434Z" fill="black"/>
<path d="M97.8621 206.432L102.466 201.827L107.07 206.432L102.466 211.035L97.8621 206.432Z" fill="black"/>
<path d="M128.319 186.299H202.313" stroke="#B1FA16" stroke-width="3" stroke-miterlimit="22.9256" stroke-linecap="round"/>
<path d="M128.319 206.43H202.313" stroke="#B1FA16" stroke-width="3" stroke-miterlimit="22.9256" stroke-linecap="round"/>
<path d="M128.319 226.562H202.313" stroke="#B1FA16" stroke-width="3" stroke-miterlimit="22.9256" stroke-linecap="round"/>
<path d="M196.054 80.3628H270.048" stroke="#B1FA16" stroke-width="3" stroke-miterlimit="22.9256" stroke-linecap="round"/>
<path d="M196.054 100.494H270.048" stroke="#B1FA16" stroke-width="3" stroke-miterlimit="22.9256" stroke-linecap="round"/>
<path d="M196.054 120.626H270.048" stroke="#B1FA16" stroke-width="3" stroke-miterlimit="22.9256" stroke-linecap="round"/>
<path d="M196.054 293.825H270.048" stroke="#B1FA16" stroke-width="3" stroke-miterlimit="22.9256" stroke-linecap="round"/>
<path d="M196.054 313.957H270.048" stroke="#B1FA16" stroke-width="3" stroke-miterlimit="22.9256" stroke-linecap="round"/>
<path d="M196.054 334.088H270.048" stroke="#B1FA16" stroke-width="3" stroke-miterlimit="22.9256" stroke-linecap="round"/>
<defs>
<filter id="filter0_f_56_634" x="60" y="34" width="248" height="147" filterUnits="userSpaceOnUse" color-interpolation-filters="sRGB">
<feFlood flood-opacity="0" result="BackgroundImageFix"/>
<feBlend mode="normal" in="SourceGraphic" in2="BackgroundImageFix" result="shape"/>
<feGaussianBlur stdDeviation="15.5" result="effect1_foregroundBlur_56_634"/>
</filter>
<filter id="filter1_f_56_634" x="0" y="138" width="248" height="147" filterUnits="userSpaceOnUse" color-interpolation-filters="sRGB">
<feFlood flood-opacity="0" result="BackgroundImageFix"/>
<feBlend mode="normal" in="SourceGraphic" in2="BackgroundImageFix" result="shape"/>
<feGaussianBlur stdDeviation="15.5" result="effect1_foregroundBlur_56_634"/>
</filter>
<filter id="filter2_f_56_634" x="64" y="247" width="248" height="147" filterUnits="userSpaceOnUse" color-interpolation-filters="sRGB">
<feFlood flood-opacity="0" result="BackgroundImageFix"/>
<feBlend mode="normal" in="SourceGraphic" in2="BackgroundImageFix" result="shape"/>
<feGaussianBlur stdDeviation="15.5" result="effect1_foregroundBlur_56_634"/>
</filter>
</defs>
</svg>
