<svg width="278" height="76" viewBox="0 0 278 76" fill="none" xmlns="http://www.w3.org/2000/svg">
<g filter="url(#filter0_f_28_183)">
<circle cx="38" cy="38" r="26.5" stroke="#B1FA16"/>
</g>
<circle cx="38" cy="38" r="36" stroke="#B1FA16" stroke-width="4"/>
<path d="M140.054 20.0011C139.47 20.0011 138.996 20.4726 138.996 21.0642V50.4505L124.006 20.5841C123.645 19.8726 122.467 19.8726 122.106 20.5841L107.124 50.4505V21.0642C107.124 20.4726 106.651 20.0011 106.066 20.0011C105.473 20.0011 105 20.4726 105 21.0642V54.9329C105 55.4301 105.344 55.8583 105.817 55.9698C106.29 56.0898 106.789 55.8413 107.013 55.4124L123.06 23.4291L139.108 55.4124C139.289 55.7724 139.659 55.9954 140.054 55.9954C140.14 55.9954 140.218 55.9869 140.303 55.9698C140.785 55.8498 141.121 55.4301 141.121 54.9329V21.0642C141.121 20.4726 140.648 20.0011 140.054 20.0011ZM175.066 54.4615L166.578 37.5441C166.569 37.5356 166.56 37.5185 166.56 37.51L158.063 20.5841C157.702 19.8726 156.524 19.8726 156.163 20.5841L147.674 37.51C147.674 37.5185 147.666 37.5356 147.657 37.5441L139.169 54.4615C138.902 54.9841 139.117 55.6183 139.641 55.8839C140.167 56.1495 140.812 55.9357 141.07 55.4124L149.274 39.0525H164.961L173.165 55.4124C173.354 55.781 173.733 55.9954 174.12 55.9954C174.283 55.9954 174.438 55.9613 174.593 55.8839C175.117 55.6268 175.333 54.9841 175.066 54.4615ZM150.34 36.9355L157.117 23.4291L163.894 36.944H150.34V36.9355ZM208.228 53.8784H175.952L192.18 21.5351C192.438 21.0124 192.223 20.3782 191.699 20.1126C191.174 19.847 190.538 20.07 190.28 20.5841L173.277 54.4615C173.113 54.7959 173.131 55.1815 173.32 55.4897C173.518 55.8072 173.862 55.9954 174.223 55.9954H208.219C208.813 55.9954 209.286 55.5238 209.286 54.9329C209.286 54.3499 208.813 53.8784 208.228 53.8784ZM225.827 53.8784H201.752L217.981 21.5351C218.239 21.0124 218.023 20.3782 217.499 20.1126C216.974 19.847 216.338 20.07 216.08 20.5841L199.077 54.4615C198.914 54.7959 198.931 55.1835 199.12 55.4897C199.316 55.8078 199.662 55.9954 200.023 55.9954H225.818C226.412 55.9954 226.885 55.5238 226.885 54.9329C226.885 54.3499 226.412 53.8784 225.827 53.8784ZM260.775 54.4615L252.286 37.5441C252.278 37.5356 252.269 37.5185 252.269 37.51L243.772 20.5841C243.411 19.8726 242.233 19.8726 241.872 20.5841L233.383 37.51C233.383 37.5185 233.375 37.5356 233.366 37.5441L224.878 54.4615C224.611 54.9841 224.826 55.6183 225.35 55.8839C225.875 56.1495 226.52 55.9357 226.778 55.4124L234.982 39.0525H250.669L258.874 55.4124C259.063 55.781 259.441 55.9954 259.828 55.9954C259.992 55.9954 260.147 55.9613 260.302 55.8839C260.826 55.6268 261.041 54.9841 260.775 54.4615ZM236.049 36.9355L242.826 23.4291L249.603 36.944H236.049V36.9355ZM269.625 37.9986L277.889 21.5351C278.147 21.0124 277.932 20.3782 277.407 20.1126C276.883 19.847 276.247 20.07 275.989 20.5841L268.437 35.6331L260.887 20.5841C260.629 20.07 259.992 19.847 259.468 20.1126C258.943 20.3782 258.728 21.0124 258.986 21.5351L267.251 37.9986L258.986 54.4615C258.728 54.9841 258.943 55.6183 259.468 55.8839C259.992 56.1495 260.629 55.9357 260.887 55.4124L268.437 40.3634L275.989 55.4124C276.177 55.781 276.547 55.9954 276.943 55.9954C277.098 55.9954 277.261 55.9613 277.416 55.8839C277.941 55.6183 278.147 54.9841 277.889 54.4615L269.625 37.9986Z" fill="white"/>
<defs>
<filter id="filter0_f_28_183" x="7" y="7" width="62" height="62" filterUnits="userSpaceOnUse" color-interpolation-filters="sRGB">
<feFlood flood-opacity="0" result="BackgroundImageFix"/>
<feBlend mode="normal" in="SourceGraphic" in2="BackgroundImageFix" result="shape"/>
<feGaussianBlur stdDeviation="2" result="effect1_foregroundBlur_28_183"/>
</filter>
</defs>
</svg>
