<svg width="787" height="714" viewBox="0 0 787 714" fill="none" xmlns="http://www.w3.org/2000/svg">
<g opacity="0.55" filter="url(#filter0_f_87_4)">
<circle cx="430" cy="357" r="181" fill="#B1FA16" fill-opacity="0.51"/>
</g>
<path d="M547.256 485.2C547.256 485.2 547.612 484.7 548.333 483.749C548.515 483.511 548.717 483.246 548.94 482.951C549.147 482.644 549.329 482.279 549.553 481.898C549.991 481.13 550.535 480.259 550.924 479.156C551.137 478.616 551.392 478.055 551.608 477.443C551.781 476.817 551.963 476.158 552.153 475.467C552.376 474.782 552.493 474.04 552.609 473.264C552.711 472.488 552.921 471.691 552.945 470.837C553.312 467.454 553.087 463.503 552.411 459.143C551.059 450.395 547.349 440.092 541.669 428.895C536 417.674 528.195 405.604 518.603 393.023C509.006 380.438 497.471 367.44 484.207 354.387C470.931 341.351 455.898 328.255 439.05 315.843C430.62 309.648 421.729 303.639 412.356 297.979C402.993 292.305 393.119 287.018 382.707 282.434C372.293 277.907 361.305 273.961 349.717 272.092C343.941 271.202 337.982 270.771 332.124 271.659C329.201 272.108 326.329 272.905 323.625 274.12C320.965 275.419 318.516 277.149 316.493 279.336C314.549 281.595 313.1 284.219 312.108 287.011C311.212 289.839 310.735 292.78 310.624 295.738C310.401 301.66 311.508 307.534 313.048 313.172C316.221 324.476 321.392 334.947 327.076 344.782C332.816 354.607 339.195 363.817 345.897 372.476C352.588 381.145 359.572 389.296 366.686 396.968C380.937 412.296 395.661 425.742 410.124 437.45C424.602 449.141 438.829 459.124 452.425 467.226C466.015 475.321 478.895 481.705 490.688 486.059C502.457 490.428 513.114 492.939 521.958 493.286C526.367 493.462 530.317 493.235 533.637 492.487C534.481 492.366 535.248 492.064 536.008 491.876C536.767 491.672 537.49 491.471 538.145 491.172C538.809 490.904 539.443 490.65 540.047 490.407C540.629 490.122 541.159 489.806 541.671 489.532C542.72 489.019 543.524 488.377 544.237 487.857C544.591 487.594 544.932 487.37 545.215 487.13C545.48 486.875 545.721 486.643 545.937 486.435C546.799 485.611 547.256 485.2 547.256 485.2C547.256 485.2 546.835 485.643 545.986 486.488C545.773 486.699 545.534 486.935 545.272 487.198C544.992 487.44 544.653 487.671 544.301 487.942C543.592 488.475 542.789 489.128 541.74 489.653C541.227 489.933 540.697 490.257 540.113 490.548C539.509 490.798 538.873 491.059 538.207 491.335C537.549 491.64 536.824 491.847 536.063 492.058C535.3 492.254 534.528 492.56 533.681 492.688C530.344 493.462 526.376 493.712 521.946 493.556C513.061 493.25 502.362 490.767 490.552 486.424C478.718 482.094 465.801 475.73 452.172 467.648C438.54 459.56 424.276 449.587 409.761 437.898C395.263 426.194 380.504 412.746 366.217 397.404C359.085 389.726 352.083 381.566 345.373 372.88C338.651 364.208 332.25 354.979 326.488 345.124C320.781 335.257 315.584 324.751 312.383 313.356C310.829 307.671 309.707 301.74 309.93 295.711C310.044 292.701 310.528 289.694 311.451 286.79C312.468 283.919 313.964 281.207 315.975 278.874C318.065 276.611 320.595 274.824 323.331 273.491C326.109 272.243 329.045 271.431 332.02 270.972C337.984 270.072 344.001 270.511 349.824 271.41C361.505 273.296 372.532 277.264 382.98 281.81C393.424 286.414 403.32 291.72 412.698 297.411C422.089 303.09 430.992 309.116 439.431 315.328C456.296 327.774 471.332 340.906 484.609 353.977C497.875 367.066 509.407 380.1 518.993 392.726C528.575 405.345 536.366 417.455 542.016 428.719C547.676 439.959 551.36 450.307 552.677 459.1C553.336 463.484 553.541 467.455 553.152 470.859C553.121 471.713 552.903 472.516 552.796 473.297C552.673 474.076 552.551 474.821 552.322 475.51C552.124 476.204 551.936 476.865 551.757 477.494C551.534 478.107 551.273 478.671 551.052 479.212C550.65 480.316 550.093 481.187 549.644 481.952C549.415 482.332 549.224 482.695 549.015 483C548.784 483.292 548.577 483.555 548.391 483.792C547.648 484.731 547.256 485.2 547.256 485.2Z" fill="black"/>
<path d="M547.256 485.2C547.256 485.2 547.612 484.7 548.333 483.749C548.515 483.511 548.717 483.246 548.94 482.951C549.147 482.644 549.329 482.279 549.553 481.898C549.991 481.13 550.535 480.259 550.924 479.156C551.137 478.616 551.392 478.055 551.608 477.443C551.781 476.817 551.963 476.158 552.153 475.467C552.376 474.782 552.493 474.04 552.609 473.264C552.711 472.488 552.921 471.691 552.945 470.837C553.312 467.454 553.087 463.503 552.411 459.143C551.059 450.395 547.349 440.092 541.669 428.895C536 417.674 528.195 405.604 518.603 393.023C509.006 380.438 497.471 367.44 484.207 354.387C470.931 341.351 455.898 328.255 439.05 315.843C430.62 309.648 421.729 303.639 412.356 297.979C402.993 292.305 393.119 287.018 382.707 282.434C372.293 277.907 361.305 273.961 349.717 272.092C343.941 271.202 337.982 270.771 332.124 271.659C329.201 272.108 326.329 272.905 323.625 274.12C320.965 275.419 318.516 277.149 316.493 279.336C314.549 281.595 313.1 284.219 312.108 287.011C311.212 289.839 310.735 292.78 310.624 295.738C310.401 301.66 311.508 307.533 313.048 313.172C316.221 324.476 321.392 334.947 327.076 344.782C332.816 354.607 339.195 363.817 345.897 372.476C352.588 381.145 359.572 389.296 366.686 396.968C380.937 412.296 395.661 425.742 410.124 437.45C424.602 449.142 438.829 459.124 452.425 467.226C466.015 475.321 478.895 481.705 490.688 486.059C502.457 490.428 513.114 492.939 521.958 493.286C526.367 493.462 530.317 493.235 533.637 492.487C534.481 492.366 535.248 492.064 536.008 491.876C536.767 491.672 537.49 491.471 538.145 491.172C538.809 490.904 539.443 490.65 540.047 490.407C540.629 490.122 541.159 489.806 541.671 489.532C542.72 489.019 543.524 488.377 544.237 487.857C544.591 487.594 544.932 487.37 545.215 487.13C545.48 486.875 545.721 486.643 545.937 486.435C546.799 485.611 547.256 485.2 547.256 485.2ZM547.256 485.2C547.256 485.2 546.835 485.643 545.986 486.488C545.773 486.699 545.534 486.935 545.272 487.198C544.992 487.44 544.653 487.671 544.301 487.942C543.592 488.475 542.789 489.128 541.74 489.653C541.227 489.933 540.697 490.257 540.113 490.548C539.509 490.798 538.873 491.059 538.207 491.335C537.549 491.64 536.824 491.847 536.063 492.058C535.3 492.254 534.528 492.56 533.681 492.688C530.344 493.462 526.376 493.712 521.946 493.556C513.061 493.25 502.362 490.767 490.552 486.424C478.718 482.094 465.801 475.73 452.172 467.648C438.54 459.56 424.276 449.587 409.761 437.898C395.263 426.194 380.504 412.746 366.217 397.404C359.085 389.726 352.083 381.566 345.373 372.88C338.651 364.208 332.25 354.979 326.488 345.124C320.781 335.257 315.584 324.751 312.383 313.356C310.829 307.671 309.707 301.74 309.93 295.711C310.044 292.701 310.528 289.694 311.451 286.79C312.468 283.919 313.964 281.207 315.975 278.874C318.065 276.611 320.595 274.824 323.331 273.491C326.109 272.243 329.045 271.431 332.02 270.972C337.984 270.072 344.001 270.511 349.824 271.41C361.505 273.296 372.532 277.264 382.98 281.81C393.424 286.414 403.32 291.72 412.698 297.411C422.089 303.09 430.992 309.116 439.431 315.328C456.296 327.774 471.332 340.906 484.609 353.977C497.875 367.066 509.407 380.1 518.993 392.726C528.575 405.345 536.366 417.455 542.016 428.719C547.676 439.959 551.36 450.307 552.677 459.1C553.336 463.484 553.541 467.455 553.152 470.859C553.121 471.713 552.903 472.516 552.796 473.297C552.673 474.076 552.551 474.821 552.322 475.51C552.124 476.204 551.936 476.865 551.757 477.494C551.534 478.107 551.273 478.671 551.052 479.212C550.65 480.316 550.093 481.187 549.644 481.952C549.415 482.332 549.224 482.695 549.015 483C548.784 483.292 548.577 483.555 548.391 483.792C547.648 484.731 547.256 485.2 547.256 485.2Z" stroke="black" stroke-width="3" stroke-miterlimit="10"/>
<path d="M589.939 382.171C589.939 382.171 589.872 381.56 589.776 380.371C589.755 380.072 589.728 379.739 589.7 379.371C589.648 379.006 589.543 378.609 589.454 378.177C589.269 377.313 589.096 376.3 588.653 375.22C588.453 374.675 588.269 374.086 588.024 373.486C587.735 372.903 587.432 372.29 587.113 371.647C586.825 370.99 586.417 370.358 585.989 369.7C585.546 369.054 585.173 368.319 584.624 367.666C582.644 364.896 579.847 362.099 576.44 359.295C569.608 353.666 559.982 348.447 548.289 343.872C536.589 339.272 522.729 335.462 507.197 332.458C491.66 329.454 474.397 327.434 455.811 326.522C437.225 325.631 417.291 325.863 396.456 327.816C386.041 328.804 375.407 330.239 364.644 332.255C353.88 334.254 342.991 336.879 332.168 340.39C321.384 343.943 310.559 348.314 300.665 354.632C295.764 357.812 291.031 361.458 287.249 366.02C285.368 368.3 283.755 370.807 282.545 373.515C281.424 376.255 280.749 379.176 280.695 382.155C280.746 385.134 281.413 388.058 282.532 390.8C283.745 393.507 285.348 396.02 287.233 398.3C291.009 402.87 295.745 406.515 300.646 409.698C310.541 416.022 321.369 420.392 332.157 423.948C342.981 427.46 353.872 430.087 364.637 432.087C375.402 434.103 386.04 435.538 396.456 436.527C417.293 438.48 437.231 438.712 455.817 437.822C474.405 436.908 491.667 434.887 507.205 431.883C522.737 428.879 536.597 425.068 548.296 420.468C559.988 415.892 569.612 410.674 576.443 405.046C579.849 402.242 582.647 399.443 584.626 396.674C585.175 396.022 585.548 395.287 585.989 394.64C586.419 393.983 586.825 393.351 587.115 392.694C587.433 392.051 587.736 391.438 588.024 390.855C588.269 390.255 588.453 389.666 588.655 389.122C589.097 388.04 589.269 387.027 589.454 386.164C589.543 385.731 589.648 385.336 589.7 384.971C589.728 384.603 589.755 384.27 589.776 383.971C589.872 382.782 589.939 382.171 589.939 382.171C589.939 382.171 589.919 382.782 589.848 383.978C589.829 384.278 589.809 384.612 589.787 384.983C589.741 385.351 589.641 385.748 589.559 386.184C589.384 387.054 589.22 388.075 588.787 389.166C588.59 389.715 588.411 390.311 588.168 390.916C587.884 391.506 587.584 392.124 587.269 392.772C586.983 393.438 586.577 394.076 586.152 394.74C585.712 395.394 585.34 396.136 584.793 396.795C582.819 399.594 580.023 402.423 576.613 405.254C569.779 410.939 560.143 416.21 548.439 420.83C536.724 425.475 522.849 429.326 507.299 432.366C491.741 435.406 474.457 437.457 455.845 438.396C437.233 439.314 417.269 439.102 396.396 437.163C385.962 436.182 375.304 434.752 364.516 432.739C353.726 430.742 342.807 428.114 331.945 424.596C321.12 421.031 310.248 416.651 300.273 410.279C295.331 407.07 290.544 403.391 286.698 398.743C284.778 396.422 283.139 393.854 281.893 391.074C280.743 388.255 280.052 385.235 280 382.155C280.055 379.075 280.753 376.058 281.908 373.24C283.149 370.46 284.8 367.899 286.716 365.578C290.565 360.935 295.349 357.258 300.292 354.052C310.265 347.684 321.134 343.306 331.959 339.743C342.817 336.225 353.733 333.6 364.521 331.602C375.308 329.59 385.964 328.16 396.396 327.179C417.267 325.24 437.228 325.03 455.839 325.946C474.449 326.884 491.732 328.935 507.289 331.975C522.841 335.015 536.717 338.866 548.432 343.511C560.137 348.13 569.773 353.4 576.611 359.086C580.02 361.918 582.816 364.746 584.792 367.544C585.339 368.203 585.71 368.947 586.151 369.6C586.576 370.264 586.981 370.903 587.269 371.568C587.583 372.216 587.883 372.836 588.167 373.424C588.409 374.03 588.59 374.626 588.785 375.175C589.22 376.267 589.384 377.288 589.559 378.158C589.641 378.594 589.74 378.991 589.787 379.359C589.809 379.73 589.829 380.066 589.848 380.366C589.919 381.56 589.939 382.171 589.939 382.171Z" fill="black"/>
<path d="M589.939 382.171C589.939 382.171 589.872 381.56 589.776 380.371C589.755 380.072 589.728 379.739 589.7 379.371C589.648 379.006 589.543 378.609 589.454 378.177C589.269 377.313 589.096 376.3 588.653 375.22C588.453 374.675 588.269 374.086 588.024 373.486C587.735 372.903 587.432 372.29 587.113 371.647C586.825 370.99 586.417 370.358 585.989 369.7C585.546 369.054 585.173 368.319 584.624 367.666C582.644 364.896 579.847 362.099 576.44 359.295C569.608 353.666 559.982 348.447 548.289 343.872C536.589 339.272 522.729 335.462 507.197 332.458C491.66 329.454 474.397 327.434 455.811 326.522C437.225 325.631 417.291 325.863 396.456 327.816C386.041 328.804 375.407 330.239 364.644 332.255C353.88 334.254 342.991 336.879 332.168 340.39C321.384 343.943 310.559 348.314 300.665 354.632C295.764 357.812 291.031 361.458 287.249 366.02C285.368 368.3 283.755 370.807 282.545 373.515C281.424 376.255 280.749 379.176 280.695 382.155C280.746 385.134 281.413 388.058 282.532 390.8C283.745 393.507 285.348 396.02 287.233 398.3C291.009 402.87 295.745 406.515 300.646 409.698C310.541 416.022 321.369 420.392 332.157 423.948C342.981 427.46 353.872 430.087 364.637 432.087C375.402 434.103 386.04 435.538 396.456 436.527C417.293 438.48 437.231 438.712 455.817 437.822C474.405 436.908 491.667 434.887 507.205 431.883C522.737 428.879 536.597 425.068 548.296 420.468C559.988 415.892 569.612 410.674 576.443 405.046C579.849 402.242 582.647 399.443 584.627 396.674C585.175 396.022 585.548 395.287 585.989 394.64C586.419 393.983 586.825 393.351 587.115 392.694C587.433 392.051 587.736 391.438 588.024 390.855C588.269 390.255 588.453 389.666 588.655 389.122C589.097 388.04 589.269 387.027 589.454 386.164C589.543 385.731 589.648 385.336 589.7 384.971C589.728 384.603 589.755 384.27 589.776 383.971C589.872 382.782 589.939 382.171 589.939 382.171ZM589.939 382.171C589.939 382.171 589.919 382.782 589.848 383.978C589.829 384.278 589.809 384.612 589.787 384.983C589.741 385.351 589.641 385.748 589.559 386.184C589.384 387.054 589.22 388.075 588.787 389.166C588.59 389.715 588.411 390.311 588.168 390.916C587.884 391.506 587.584 392.124 587.269 392.772C586.983 393.438 586.577 394.076 586.152 394.74C585.712 395.394 585.34 396.136 584.793 396.795C582.819 399.594 580.023 402.423 576.613 405.254C569.779 410.939 560.143 416.21 548.439 420.83C536.724 425.475 522.849 429.326 507.299 432.366C491.741 435.406 474.457 437.457 455.845 438.396C437.233 439.314 417.269 439.102 396.396 437.163C385.962 436.182 375.304 434.752 364.516 432.739C353.726 430.742 342.807 428.114 331.945 424.596C321.12 421.031 310.248 416.651 300.273 410.279C295.331 407.07 290.544 403.391 286.698 398.743C284.778 396.422 283.139 393.854 281.893 391.074C280.743 388.255 280.052 385.235 280 382.155C280.055 379.075 280.753 376.058 281.908 373.24C283.149 370.46 284.8 367.899 286.716 365.578C290.565 360.935 295.349 357.258 300.292 354.052C310.265 347.684 321.134 343.306 331.959 339.743C342.817 336.225 353.733 333.6 364.521 331.602C375.308 329.59 385.964 328.16 396.396 327.179C417.267 325.24 437.228 325.03 455.839 325.946C474.449 326.884 491.732 328.935 507.289 331.975C522.841 335.015 536.717 338.866 548.432 343.511C560.137 348.13 569.773 353.4 576.611 359.086C580.02 361.918 582.816 364.746 584.792 367.544C585.339 368.203 585.71 368.947 586.151 369.6C586.576 370.264 586.981 370.903 587.269 371.568C587.583 372.216 587.883 372.836 588.167 373.424C588.409 374.03 588.59 374.626 588.785 375.175C589.22 376.267 589.384 377.288 589.559 378.158C589.641 378.594 589.74 378.991 589.787 379.359C589.809 379.73 589.829 380.066 589.848 380.366C589.919 381.56 589.939 382.171 589.939 382.171Z" stroke="black" stroke-width="3" stroke-miterlimit="10"/>
<path d="M533.385 253.923C533.385 253.923 532.863 253.602 531.864 252.947C531.613 252.783 531.335 252.599 531.027 252.396C530.705 252.212 530.329 252.053 529.935 251.858C529.137 251.475 528.231 250.992 527.105 250.679C526.551 250.503 525.973 250.287 525.348 250.113C524.712 249.986 524.042 249.85 523.337 249.707C522.64 249.532 521.891 249.467 521.109 249.404C520.328 249.356 519.519 249.2 518.665 249.235C515.265 249.104 511.339 249.599 507.036 250.575C498.401 252.526 488.379 256.935 477.6 263.373C466.795 269.802 455.292 278.422 443.402 288.856C431.507 299.296 419.335 311.702 407.226 325.832C395.136 339.975 383.107 355.874 371.884 373.536C366.285 382.372 360.903 391.656 355.901 401.398C350.887 411.128 346.291 421.344 342.435 432.047C338.636 442.748 335.457 453.981 334.391 465.671C333.9 471.494 333.881 477.468 335.171 483.252C335.82 486.136 336.813 488.946 338.211 491.56C339.689 494.126 341.585 496.449 343.907 498.318C346.293 500.1 349.012 501.367 351.865 502.163C354.747 502.863 357.716 503.136 360.672 503.043C366.597 502.858 372.38 501.348 377.898 499.424C388.959 495.479 399.048 489.599 408.468 483.252C417.873 476.848 426.623 469.85 434.8 462.567C442.989 455.294 450.639 447.767 457.802 440.14C472.112 424.868 484.511 409.253 495.195 394.017C505.863 378.768 514.841 363.887 521.987 349.767C529.128 335.651 534.607 322.362 538.14 310.296C541.687 298.254 543.459 287.449 543.196 278.602C543.066 274.192 542.568 270.267 541.593 267.006C541.415 266.174 541.061 265.428 540.821 264.683C540.564 263.94 540.315 263.234 539.972 262.6C539.66 261.955 539.36 261.34 539.076 260.756C538.752 260.193 538.4 259.687 538.092 259.195C537.508 258.184 536.815 257.427 536.245 256.75C535.957 256.416 535.711 256.091 535.452 255.827C535.179 255.577 534.932 255.354 534.711 255.152C533.828 254.35 533.385 253.923 533.385 253.923C533.385 253.923 533.856 254.312 534.759 255.1C534.984 255.297 535.236 255.52 535.515 255.764C535.777 256.027 536.031 256.35 536.325 256.68C536.904 257.351 537.612 258.107 538.208 259.118C538.523 259.609 538.883 260.116 539.215 260.679C539.503 261.266 539.809 261.88 540.129 262.527C540.48 263.161 540.736 263.872 540.999 264.616C541.247 265.364 541.607 266.112 541.792 266.948C542.793 270.224 543.316 274.166 543.465 278.595C543.772 287.48 542.032 298.324 538.512 310.407C535.007 322.509 529.551 335.835 522.424 349.988C515.296 364.147 506.329 379.063 495.665 394.348C484.989 409.619 472.591 425.268 458.269 440.577C451.1 448.221 443.441 455.77 435.24 463.063C427.05 470.367 418.284 477.386 408.849 483.815C399.4 490.187 389.275 496.096 378.129 500.075C372.564 502.015 366.724 503.544 360.695 503.736C357.685 503.83 354.649 503.553 351.689 502.833C348.756 502.017 345.947 500.711 343.48 498.866C341.079 496.936 339.123 494.536 337.604 491.898C336.167 489.212 335.155 486.339 334.493 483.403C333.184 477.516 333.208 471.483 333.703 465.611C334.781 453.828 337.979 442.554 341.795 431.819C345.668 421.08 350.28 410.844 355.312 401.095C360.329 391.336 365.728 382.039 371.344 373.194C382.6 355.511 394.663 339.604 406.789 325.458C418.933 311.323 431.144 298.921 443.077 288.488C455.007 278.06 466.552 269.452 477.4 263.04C488.223 256.619 498.293 252.23 506.975 250.311C511.303 249.352 515.251 248.875 518.672 249.028C519.528 248.999 520.343 249.162 521.129 249.213C521.916 249.284 522.667 249.355 523.369 249.536C524.075 249.686 524.748 249.828 525.388 249.961C526.015 250.143 526.596 250.364 527.152 250.547C528.279 250.872 529.187 251.368 529.981 251.763C530.376 251.966 530.751 252.129 531.071 252.319C531.377 252.528 531.655 252.718 531.903 252.887C532.891 253.563 533.385 253.923 533.385 253.923Z" fill="black"/>
<path d="M533.385 253.923C533.385 253.923 532.863 253.602 531.864 252.947C531.613 252.783 531.335 252.599 531.027 252.396C530.705 252.212 530.33 252.053 529.935 251.858C529.137 251.475 528.231 250.992 527.105 250.679C526.551 250.503 525.973 250.287 525.348 250.113C524.712 249.986 524.042 249.85 523.337 249.707C522.64 249.532 521.891 249.467 521.109 249.404C520.328 249.356 519.519 249.2 518.665 249.235C515.265 249.104 511.338 249.599 507.036 250.575C498.401 252.526 488.379 256.935 477.6 263.373C466.795 269.802 455.292 278.422 443.402 288.856C431.507 299.296 419.335 311.702 407.226 325.832C395.136 339.975 383.107 355.874 371.884 373.536C366.285 382.372 360.903 391.656 355.901 401.398C350.887 411.128 346.291 421.344 342.435 432.047C338.636 442.748 335.457 453.981 334.391 465.671C333.9 471.494 333.881 477.468 335.171 483.252C335.82 486.136 336.813 488.946 338.211 491.56C339.689 494.126 341.585 496.449 343.907 498.318C346.293 500.1 349.012 501.367 351.865 502.163C354.747 502.863 357.716 503.136 360.672 503.043C366.597 502.858 372.38 501.348 377.898 499.424C388.959 495.479 399.048 489.599 408.468 483.252C417.873 476.848 426.623 469.85 434.8 462.567C442.989 455.294 450.639 447.767 457.802 440.14C472.112 424.868 484.511 409.253 495.195 394.017C505.863 378.768 514.841 363.887 521.987 349.767C529.128 335.651 534.607 322.362 538.14 310.296C541.687 298.254 543.459 287.449 543.196 278.602C543.067 274.192 542.568 270.267 541.593 267.006C541.415 266.174 541.061 265.428 540.821 264.683C540.564 263.94 540.315 263.234 539.972 262.6C539.66 261.955 539.36 261.34 539.076 260.756C538.752 260.193 538.4 259.687 538.092 259.195C537.508 258.184 536.815 257.427 536.245 256.75C535.957 256.416 535.711 256.091 535.452 255.827C535.179 255.577 534.932 255.354 534.711 255.152C533.828 254.35 533.385 253.923 533.385 253.923ZM533.385 253.923C533.385 253.923 533.856 254.312 534.759 255.1C534.984 255.297 535.236 255.52 535.515 255.764C535.777 256.027 536.031 256.35 536.325 256.68C536.904 257.351 537.612 258.107 538.208 259.118C538.523 259.609 538.883 260.116 539.215 260.679C539.503 261.266 539.809 261.88 540.129 262.527C540.48 263.161 540.736 263.872 540.999 264.616C541.247 265.364 541.607 266.112 541.792 266.948C542.793 270.224 543.316 274.166 543.465 278.595C543.772 287.48 542.032 298.324 538.512 310.407C535.007 322.509 529.551 335.835 522.424 349.988C515.296 364.147 506.33 379.063 495.665 394.348C484.989 409.619 472.591 425.268 458.269 440.577C451.1 448.221 443.441 455.77 435.24 463.063C427.051 470.367 418.284 477.386 408.849 483.815C399.4 490.187 389.275 496.096 378.129 500.075C372.564 502.015 366.724 503.544 360.695 503.736C357.685 503.83 354.649 503.553 351.689 502.833C348.756 502.017 345.947 500.711 343.48 498.866C341.079 496.936 339.123 494.536 337.604 491.898C336.167 489.212 335.155 486.339 334.493 483.403C333.184 477.516 333.208 471.483 333.703 465.611C334.781 453.828 337.979 442.554 341.795 431.819C345.668 421.08 350.28 410.844 355.312 401.095C360.329 391.336 365.728 382.039 371.344 373.194C382.6 355.511 394.663 339.604 406.789 325.458C418.933 311.323 431.144 298.921 443.077 288.488C455.007 278.06 466.552 269.452 477.4 263.04C488.223 256.619 498.293 252.23 506.975 250.311C511.303 249.352 515.251 248.875 518.672 249.028C519.528 248.999 520.343 249.162 521.129 249.213C521.916 249.284 522.667 249.355 523.369 249.536C524.075 249.686 524.748 249.828 525.388 249.961C526.015 250.143 526.596 250.364 527.152 250.547C528.279 250.872 529.187 251.368 529.981 251.763C530.376 251.966 530.751 252.129 531.071 252.319C531.377 252.528 531.655 252.718 531.903 252.887C532.891 253.563 533.385 253.923 533.385 253.923Z" stroke="black" stroke-width="3" stroke-miterlimit="10"/>
<path d="M467.359 326.691H407.449L407.61 315.159C407.61 298.652 421.048 285.221 437.566 285.221C454.084 285.221 467.52 298.652 467.52 315.1L467.359 326.691ZM447.748 399.572H429.106L432.018 386.119C428.79 384.118 426.635 380.553 426.635 376.476C426.635 370.204 431.723 365.12 437.998 365.12C444.274 365.12 449.364 370.204 449.364 376.476C449.364 380.406 447.367 383.866 444.332 385.906C445.653 391.123 447.748 399.572 447.748 399.572ZM475.586 326.79L475.747 315.159C475.747 294.118 458.62 277 437.566 277C416.51 277 399.382 294.118 399.382 315.1L399.217 326.948C388.913 328.473 381 337.323 381 348.045V416.649C381 428.44 390.563 438 402.364 438H473.633C485.431 438 495 428.44 495 416.649V348.045C495 336.909 486.47 327.776 475.586 326.79Z" fill="#B1FA16"/>
<path d="M152.195 271.714C152.195 271.714 169.58 274.734 176.207 280.529C182.834 286.325 189.569 299.641 189.569 299.641L222.611 322.069C222.611 322.069 229.402 330.739 230.907 348.939C232.412 367.141 244.138 462.64 240.194 476.361C238.09 483.681 222.59 503.391 206.002 519.98C206.002 519.98 234 597.5 147.5 588C61 578.5 40.5 588.5 34.5 566C28.5 543.5 37.4979 517.445 37.4979 517.445C22.6619 500.323 7.76068 478.625 3.08826 468.727C-5.09711 451.384 5.4873 411.991 6.29373 401.211C7.24997 388.406 13.4798 354.565 18.2389 334.219C22.3589 316.598 30.2551 313.631 30.2551 313.631L63.263 298.841C63.263 298.841 48.1442 294.151 47.4505 291.543C46.7613 288.935 81.513 271.094 81.513 271.094C81.513 271.094 86.5847 270.234 94.0829 269.317L95.2156 288.411C96.1445 304.081 109.608 316.025 125.278 315.081C141.26 314.116 153.286 300.131 151.858 284.18C151.311 278.099 150.82 272.925 150.621 270.851C151.18 271.121 151.707 271.408 152.195 271.714ZM45.9445 448.261L44.9661 436.712L44.2287 447.947C44.2287 447.947 45.0404 447.914 45.9445 448.261Z" fill="black"/>
<path fill-rule="evenodd" clip-rule="evenodd" d="M151.831 272.666L152.024 272.699L152.035 272.701L152.07 272.707C152.102 272.713 152.15 272.722 152.213 272.733C152.339 272.756 152.526 272.791 152.766 272.837C153.248 272.93 153.946 273.069 154.804 273.254C156.523 273.624 158.88 274.178 161.441 274.91C166.622 276.391 172.422 278.548 175.549 281.282C178.742 284.074 182.017 288.741 184.523 292.785C185.768 294.794 186.808 296.623 187.537 297.951C187.901 298.614 188.187 299.152 188.382 299.522C188.479 299.708 188.553 299.851 188.603 299.948L188.659 300.057L188.673 300.084L188.676 300.091L188.677 300.092L188.794 300.323L221.911 322.802C221.954 322.861 222.012 322.942 222.084 323.046C222.261 323.302 222.52 323.694 222.839 324.224C223.476 325.283 224.351 326.894 225.274 329.07C227.121 333.42 229.167 340.034 229.91 349.022L230.907 348.939C229.402 330.739 222.611 322.069 222.611 322.069L189.569 299.641C189.569 299.641 182.834 286.325 176.207 280.529C169.58 274.734 152.195 271.714 152.195 271.714C152.027 271.609 151.855 271.506 151.678 271.405C151.341 271.213 150.988 271.028 150.621 270.851C150.652 271.172 150.689 271.567 150.733 272.028C150.973 274.547 151.396 279.04 151.858 284.18C153.286 300.131 141.26 314.116 125.278 315.081C109.608 316.025 96.1445 304.081 95.2156 288.411L94.0829 269.317C93.7464 269.358 93.4149 269.399 93.0884 269.44C86.1398 270.309 81.513 271.094 81.513 271.094C81.513 271.094 46.7613 288.935 47.4505 291.543C48.013 293.658 58.058 297.141 61.8393 298.383C62.7217 298.673 63.263 298.841 63.263 298.841L30.2551 313.631C30.2551 313.631 22.3589 316.598 18.2389 334.219C13.4798 354.565 7.24997 388.406 6.29373 401.211C6.10065 403.792 5.347 408.013 4.42465 413.18C1.49481 429.591 -3.13725 455.537 3.08826 468.727C7.76068 478.625 22.6619 500.323 37.4979 517.445C37.4979 517.445 28.5 543.5 34.5 566C38.5169 581.063 49.0328 581.56 81.5011 583.093C97.5304 583.85 118.91 584.86 147.5 588C234 597.5 206.002 519.98 206.002 519.98C222.59 503.391 238.09 483.681 240.194 476.361C243.265 465.676 236.834 405.399 233.127 370.652C232.073 360.779 231.24 352.967 230.907 348.939L229.91 349.022C230.243 353.047 231.078 360.877 232.133 370.767C233.461 383.216 235.137 398.928 236.598 414.424C237.911 428.352 239.052 442.128 239.619 453.273C239.903 458.847 240.042 463.75 239.989 467.679C239.935 471.644 239.684 474.513 239.232 476.085C238.749 477.766 237.455 480.267 235.454 483.393C233.469 486.494 230.836 490.135 227.743 494.077C221.557 501.96 213.562 511.005 205.295 519.272L204.846 519.722L205.062 520.319L205.062 520.321L205.065 520.33L205.079 520.368C205.091 520.403 205.11 520.456 205.134 520.527C205.183 520.668 205.254 520.88 205.344 521.157C205.525 521.712 205.78 522.528 206.074 523.565C206.664 525.641 207.411 528.599 208.041 532.12C209.303 539.175 210.08 548.426 208.21 557.347C206.345 566.245 201.859 574.776 192.605 580.53C183.325 586.301 169.109 589.367 147.609 587.006C125.96 584.628 108.44 583.471 94.2481 582.72C89.6613 582.478 85.4287 582.278 81.5197 582.093C73.3154 581.706 66.537 581.386 60.902 580.879C52.5656 580.13 46.9338 578.983 43.0231 576.728C39.1974 574.521 36.9184 571.188 35.4662 565.742C32.5181 554.687 33.2469 542.707 34.7363 533.444C35.4795 528.821 36.4088 524.895 37.1516 522.127C37.5229 520.744 37.8473 519.65 38.0782 518.905C38.1407 518.703 38.1963 518.527 38.2441 518.378C38.2847 518.251 38.3197 518.143 38.3485 518.055C38.3799 517.96 38.4039 517.888 38.42 517.84L38.4379 517.787L38.4421 517.775L38.443 517.772L38.6315 517.227L38.2537 516.791C23.4443 499.699 8.60924 478.08 3.99255 468.3C2.03392 464.15 1.16716 458.6 1.02223 452.354C0.877716 446.125 1.4521 439.293 2.31085 432.636C3.16928 425.981 4.30814 419.526 5.28606 414.045L5.41844 413.303C6.33243 408.184 7.09392 403.919 7.29094 401.285C8.24115 388.562 14.456 354.782 19.2126 334.446C21.2429 325.763 24.185 320.767 26.5557 317.963C27.742 316.559 28.7914 315.697 29.5237 315.194C29.8902 314.942 30.1785 314.778 30.3663 314.682C30.4602 314.633 30.529 314.601 30.5701 314.583C30.5821 314.578 30.5918 314.574 30.599 314.571C30.604 314.568 30.6078 314.567 30.6104 314.566L30.612 314.565L30.6142 314.564L30.6358 314.556L66.0889 298.671L63.5593 297.886L63.5202 298.012C63.5593 297.886 63.5593 297.886 63.5593 297.886L63.5494 297.883L63.5181 297.873L63.3939 297.834C63.2846 297.8 63.1236 297.749 62.9181 297.682C62.5069 297.55 61.918 297.358 61.2087 297.12C59.789 296.642 57.8927 295.98 55.9783 295.238C54.0576 294.493 52.1461 293.679 50.6838 292.901C49.9501 292.51 49.361 292.145 48.9478 291.82C48.7508 291.665 48.6245 291.542 48.5448 291.454C48.7044 291.264 48.9692 291.007 49.3567 290.683C50.1932 289.986 51.4531 289.101 53.0241 288.088C56.157 286.067 60.4133 283.605 64.7095 281.214C69.0016 278.826 73.317 276.518 76.5605 274.807C78.1819 273.951 79.5348 273.245 80.4821 272.753C80.9557 272.507 81.3279 272.314 81.5816 272.183L81.8317 272.055L81.9084 272.042C82.0602 272.017 82.2861 271.98 82.5808 271.933C83.1702 271.838 84.035 271.703 85.1339 271.538C87.1215 271.241 89.8742 270.851 93.1478 270.441L94.2174 288.47C95.179 304.692 109.117 317.057 125.338 316.079C141.883 315.08 154.333 300.603 152.854 284.091C152.432 279.401 152.043 275.25 151.796 272.644L151.831 272.666ZM47.0755 449.765L45.9625 436.628L43.9682 436.647L43.1581 448.99L44.263 448.946L44.2657 448.946L44.2671 448.946L44.2683 448.946L44.2743 448.946C44.2822 448.946 44.2941 448.946 44.3096 448.946C44.3195 448.946 44.3308 448.946 44.3435 448.947C44.4092 448.948 44.5105 448.954 44.6369 448.968C44.8929 448.996 45.2344 449.059 45.5866 449.195L47.0755 449.765ZM44.2287 447.947C44.2287 447.947 44.4843 447.937 44.8683 447.989C44.8848 447.991 44.9015 447.993 44.9185 447.996C45.2103 448.038 45.5695 448.117 45.9445 448.261L44.9661 436.712L44.2287 447.947Z" fill="#B1FA16"/>
<path d="M206.621 524.046C206.911 523.676 207.2 523.306 207.487 522.933L207.218 521.279C206.849 521.054 206.476 520.835 206.101 520.624L206.621 524.046Z" fill="#B5B6B5"/>
<path d="M176.208 280.529C176.175 280.577 176.757 280.908 177.697 281.779C178.638 282.643 179.929 284.049 181.35 286.085C182.807 288.105 184.287 290.775 186.108 293.923C188.044 296.991 190.265 300.51 192.749 304.446L193.134 303.972C189.831 302.685 185.795 302.665 181.931 303.931C178.053 305.177 174.299 307.401 170.663 310.101C163.401 315.6 156.765 323.261 150.339 331.955C137.531 349.43 125.045 371.024 113 394.958L112.938 395.084L112.943 395.236C113.214 404.712 113.498 414.624 113.788 424.723C114.492 449.433 114.581 471.185 115.488 500.394C115.659 505.043 115.794 508.675 115.886 511.21C115.943 512.403 115.987 513.334 116.019 514.023C116.056 514.655 116.086 514.981 116.106 514.979C116.127 514.979 116.139 514.653 116.141 514.021C116.139 513.329 116.134 512.396 116.127 511.205C116.086 508.666 116.029 505.031 115.955 500.382C115.319 470.955 115.742 449.824 114.985 424.693C114.689 414.589 114.399 404.676 114.121 395.197L114.064 395.477C126.047 371.599 138.466 349.991 151.141 332.545C157.505 323.861 164.045 316.237 171.164 310.772C174.737 308.081 178.408 305.875 182.159 304.639C185.898 303.381 189.734 303.379 192.903 304.57L193.817 304.914L193.289 304.096C190.76 300.194 188.501 296.704 186.53 293.661C184.687 290.575 183.134 287.882 181.625 285.887C180.151 283.865 178.802 282.48 177.811 281.648C176.823 280.809 176.208 280.529 176.208 280.529Z" fill="#B1FA16"/>
<path d="M53.7261 294.376C53.6688 294.567 57.2169 295.608 62.7322 297.816C68.2267 300.034 75.7314 303.52 82.9012 309.033C90.0867 314.53 95.6684 320.619 99.711 324.978C101.588 327.028 103.178 328.765 104.479 330.185C105.616 331.406 106.276 332.056 106.338 332.003C106.4 331.95 105.862 331.197 104.833 329.882C103.801 328.57 102.282 326.692 100.345 324.418C96.4547 319.904 90.9276 313.668 83.6275 308.082C76.3287 302.472 68.6468 299.057 63.0351 297.028C60.2205 296.005 57.8924 295.323 56.2769 294.898C54.6595 294.473 53.7469 294.303 53.7261 294.376Z" fill="#B1FA16"/>
<path d="M113.124 395.422C113.207 395.411 113.122 394.2 112.899 392.011C112.641 389.829 112.177 386.678 111.448 382.818C110.015 375.09 107.459 364.533 104.084 353.034C100.646 341.548 97.0247 331.297 93.8667 324.091C92.3093 320.481 90.8886 317.629 89.834 315.699C88.7332 313.789 88.0948 312.758 88.0231 312.799C87.9521 312.84 88.453 313.948 89.4184 315.91C90.3395 317.893 91.6357 320.782 93.0857 324.417C96.0274 331.667 99.5084 341.923 102.935 353.374C106.301 364.838 108.978 375.329 110.619 382.985C111.454 386.811 112.039 389.925 112.437 392.078C112.802 394.236 113.044 395.431 113.124 395.422Z" fill="#29383E"/>
<path d="M107.462 331.318C107.758 331.176 103.59 321.908 98.1501 310.622C92.7084 299.333 88.0574 290.3 87.7591 290.442C87.4627 290.587 91.631 299.852 97.0727 311.142C102.512 322.427 107.163 331.463 107.462 331.318Z" fill="#B1FA16"/>
<path d="M62.7869 299.055L63.2631 298.841C63.2631 298.841 63.1113 298.795 62.8397 298.708C62.7341 298.722 62.6469 298.752 62.5759 298.795C62.5759 298.795 62.6494 298.887 62.7869 299.055Z" fill="#B5B6B5"/>
<path d="M113.77 424.144C114.408 422.177 113.827 412.889 113.225 405.163C113.404 411.368 113.586 417.717 113.77 424.144Z" fill="#242C2F"/>
<path d="M112.042 389.959C111.782 388.01 111.389 386.264 110.953 384.543C111.389 386.607 111.75 388.427 112.042 389.959ZM108.808 375.117C108.807 375.105 108.807 375.094 108.804 375.082C106.131 361.589 102.485 348.038 97.7713 334.608C96.4295 330.782 93.6467 324.893 91.3968 320.336C91.9232 321.563 92.4931 322.928 93.0859 324.417C96.0276 331.667 99.5086 341.923 102.935 353.373C105.26 361.29 107.258 368.742 108.808 375.117Z" fill="#B1FA16"/>
<path d="M108.811 375.119L108.629 373.784C108.684 374.23 108.742 374.662 108.804 375.082C108.806 375.096 108.808 375.108 108.811 375.119Z" fill="#242C2F"/>
<path d="M116.203 389.171C116.743 388.857 117.267 388.526 117.777 388.176C128.607 367.196 139.771 348.194 151.141 332.545C157.505 323.861 164.045 316.236 171.164 310.772C174.737 308.081 178.408 305.875 182.159 304.638C183.095 304.324 184.04 304.087 184.977 303.929C184.688 303.759 184.517 303.667 184.517 303.667C176.789 304.443 163.83 316.142 155.88 325.794C147.929 335.445 140.879 345.802 134.775 356.717C128.661 367.653 122.318 378.235 116.203 389.171Z" fill="#242C2F"/>
<path d="M210.889 465.089C210.919 465.092 210.952 464.887 210.987 464.489C211.031 464.092 211.033 463.496 210.969 462.724C210.828 461.196 210.342 458.896 208.77 456.446C207.239 454.038 204.478 451.432 200.509 450.455C196.629 449.479 191.664 450.124 187.782 453.286L188.674 453.725C189.021 446.731 188.582 438.8 187.306 430.599C186.139 423.036 184.757 415.913 183.967 409.37C183.149 402.832 182.722 396.906 182.612 391.92C182.464 386.935 182.484 382.893 182.547 380.101C182.556 378.819 182.563 377.76 182.568 376.884C182.561 376.146 182.536 375.758 182.495 375.756C182.453 375.753 182.399 376.137 182.328 376.87C182.261 377.743 182.18 378.805 182.082 380.085C181.874 382.875 181.725 386.929 181.767 391.936C181.768 396.948 182.109 402.918 182.872 409.504C183.608 416.096 184.963 423.259 186.123 430.776C187.39 438.929 187.86 446.744 187.588 453.682L187.54 454.902L188.481 454.118C192.01 451.179 196.652 450.483 200.3 451.335C204.02 452.174 206.68 454.551 208.228 456.809C209.808 459.098 210.38 461.292 210.624 462.768C210.856 464.26 210.806 465.089 210.889 465.089Z" fill="#B1FA16"/>
<path d="M205.113 521.074C205.092 521.056 204.842 521.274 204.38 521.713C203.858 522.223 203.192 522.871 202.366 523.678C200.578 525.362 197.954 527.83 194.412 530.71C190.862 533.568 186.439 536.914 181.029 540.161C178.322 541.758 175.385 543.431 172.124 544.64C170.513 545.24 168.771 545.568 167.004 545.403C165.28 545.263 163.451 544.555 162.275 543.323L161.918 542.949L161.537 543.243C159.624 544.716 157.56 546.306 155.449 547.933L156.123 547.929L131.5 529.424C130.63 529.542 130.101 529.595 130.101 529.595C130.153 529.841 137.239 535.127 143.487 539.87L155.455 548.818L155.796 549.073L156.131 548.813C158.233 547.175 160.287 545.573 162.192 544.086L161.455 544.008C162.986 545.587 164.972 546.253 166.913 546.428C168.856 546.6 170.769 546.212 172.46 545.564C175.839 544.277 178.766 542.563 181.489 540.917C186.911 537.574 191.306 534.143 194.817 531.2C198.32 528.232 200.885 525.68 202.604 523.915C203.385 523.06 204.012 522.372 204.506 521.831C204.927 521.352 205.134 521.095 205.113 521.074ZM135.181 520.658C141.15 512.933 146.648 505.408 151.849 498.485C158.609 489.423 164.745 481.304 170.056 474.612C175.355 467.909 179.848 462.654 183.072 459.135C184.662 457.352 185.962 456.033 186.841 455.132C187.713 454.225 188.159 453.735 188.13 453.703C188.102 453.673 187.602 454.105 186.674 454.957C185.738 455.803 184.38 457.077 182.733 458.814C179.393 462.249 174.789 467.436 169.396 474.081C163.992 480.72 157.778 488.795 150.967 497.823C145.516 504.999 139.754 512.838 133.511 520.866C134.056 520.801 134.61 520.732 135.181 520.658Z" fill="#B1FA16"/>
<path d="M183.276 352.121C183.489 352.197 184.364 349.465 186.578 345.465C187.667 343.456 189.183 341.188 191.042 338.819C192.949 336.489 195.23 334.076 197.888 331.833C200.575 329.622 203.361 327.811 205.998 326.357C208.664 324.955 211.166 323.875 213.339 323.165C217.672 321.708 220.517 321.34 220.484 321.118C220.472 321.035 219.76 321.079 218.468 321.223C217.175 321.345 215.323 321.722 213.084 322.359C210.838 322.977 208.244 323.999 205.484 325.38C202.755 326.817 199.876 328.646 197.122 330.911C194.397 333.211 192.078 335.712 190.175 338.138C188.317 340.602 186.845 342.968 185.831 345.067C184.799 347.153 184.096 348.907 183.745 350.159C183.367 351.402 183.197 352.098 183.276 352.121Z" fill="#B1FA16"/>
<path d="M210.656 460.838C210.348 459.549 209.786 458.027 208.77 456.447C207.239 454.038 204.478 451.432 200.51 450.456C199.424 450.185 198.255 450.037 197.049 450.037C196.729 450.037 196.408 450.046 196.085 450.067C198.825 450.108 201.556 450.863 203.904 452.278C207.083 454.196 209.516 457.308 210.656 460.838Z" fill="#242C2F"/>
<path d="M32.3343 323.702C32.176 323.809 33.5342 325.973 35.4506 329.601C37.3741 333.23 39.7634 338.382 41.7052 344.327C43.6333 350.278 44.7322 355.851 45.3133 359.914C45.8995 363.979 46.0741 366.527 46.2649 366.518C46.4024 366.516 46.5288 363.949 46.1542 359.813C45.7842 355.686 44.8006 349.996 42.8451 343.957C40.8734 337.922 38.3206 332.748 36.1906 329.19C34.0605 325.626 32.4496 323.622 32.3343 323.702Z" fill="#B1FA16"/>
<path d="M45.4169 456.171L46.1406 450.576L44.7896 434.634L43.8907 451.91L44.0151 452.639L45.4169 456.171Z" fill="#B1FA16"/>
<path d="M27.2834 462.341C27.4951 462.639 31.1052 460.05 36.2316 458.435C41.3424 456.764 45.7842 456.768 45.7842 456.406C45.837 456.111 41.2186 455.553 35.8662 457.295C30.5033 458.993 27.0698 462.132 27.2834 462.341Z" fill="#B1FA16"/>
<path d="M17.3906 455.132C17.616 455.452 22.405 450.807 30.0797 448.817C37.7251 446.703 44.1921 448.337 44.2286 447.946C44.2631 447.817 42.7212 447.22 40.0831 446.889C37.4541 446.549 33.7132 446.614 29.7696 447.661C25.8313 448.723 22.5588 450.536 20.4515 452.145C18.3326 453.751 17.2942 455.038 17.3906 455.132Z" fill="#B1FA16"/>
<path d="M45.7844 456.405C45.8307 456.517 46.6006 456.451 47.607 455.695C48.1008 455.316 48.6063 454.688 48.8844 453.861C49.1606 453.034 49.1489 452.06 48.9124 451.138C48.747 450.52 48.5216 449.985 48.2089 449.461L48.2617 449.576C47.5497 447.921 46.0398 447.611 45.208 447.53C44.3025 447.473 43.8062 447.739 43.8335 447.859C43.8563 448.006 44.3481 448.016 45.077 448.252C45.7708 448.468 46.8671 448.997 47.168 449.943L47.1797 449.977L47.2234 450.06C47.4207 450.439 47.6279 450.945 47.7543 451.439C48.1881 452.984 47.7334 454.316 47.0234 455.082C46.329 455.858 45.6926 456.228 45.7844 456.405Z" fill="#B1FA16"/>
<path d="M48.0069 379.704C47.9262 379.697 47.777 380.646 47.5789 382.37C47.377 384.093 47.1471 386.593 46.9035 389.684C46.4117 395.868 45.9342 404.42 45.5206 413.865C45.1226 423.176 44.7643 431.594 44.4888 438.054C44.3735 440.951 44.2751 443.401 44.1943 445.386C44.139 447.119 44.1461 448.079 44.2308 448.086C44.3116 448.091 44.4608 447.142 44.6588 445.418C44.8607 443.695 45.0906 441.197 45.3343 438.106C45.8234 431.923 46.3016 423.369 46.7178 413.92C47.1126 404.614 47.4715 396.196 47.747 389.737C47.8643 386.839 47.9633 384.387 48.0434 382.404C48.0988 380.671 48.0897 379.711 48.0069 379.704Z" fill="#B1FA16"/>
<path d="M44.9913 456.075C44.9659 456.102 45.3841 456.511 46.2048 457.265C47.1077 458.078 48.3141 459.169 49.8357 460.542C53.0686 463.474 57.6257 467.608 63.2693 472.727C68.9364 477.944 75.6646 484.255 83.0683 491.472C86.7708 495.08 90.6564 498.92 94.6364 502.948C95.5946 503.957 96.5208 505.014 97.0928 506.23C97.6998 507.443 97.7845 508.764 97.5116 510.164C97.2836 511.568 96.7527 513.004 96.799 514.682C96.8446 516.231 97.4399 518.191 99.2599 518.949L99.0326 518.009C95.8499 521.644 92.5154 525.457 89.1217 529.338C85.81 533.127 82.5583 536.85 79.3893 540.479L79.9364 540.286C77.6201 539.89 75.3383 539.502 73.0884 539.12L73.0037 539.104L72.9301 539.113C69.9311 539.481 67.4376 540.867 64.8392 540.421C62.2538 540.106 59.9121 538.755 57.853 537.215C53.7584 534.023 50.1966 530.388 46.8803 526.982C40.3013 520.075 34.9078 513.505 30.4751 507.994C26.0495 502.477 22.5952 497.993 20.2033 494.926C19.0523 493.46 18.1352 492.293 17.446 491.414C16.8089 490.622 16.4644 490.217 16.4344 490.238C16.407 490.261 16.6969 490.705 17.2779 491.541C17.9287 492.449 18.7898 493.655 19.877 495.172C22.1705 498.318 25.5323 502.872 29.8849 508.463C34.244 514.045 39.5796 520.686 46.1449 527.683C49.4703 531.149 52.9767 534.784 57.1866 538.102C59.3147 539.701 61.7939 541.184 64.7011 541.554C67.6766 542.039 70.4366 540.548 73.0473 540.276L72.891 540.271C75.1383 540.66 77.4201 541.053 79.7365 541.45L80.0628 541.508L80.281 541.258C83.4526 537.633 86.7083 533.911 90.0219 530.124C93.4117 526.242 96.7462 522.426 99.9217 518.788L100.48 518.149L99.6944 517.848C98.559 517.411 98.008 515.989 97.9708 514.638C97.9155 513.292 98.4027 511.86 98.6554 510.364C98.9616 508.877 98.8554 507.131 98.1317 505.738C97.4536 504.324 96.4427 503.201 95.4499 502.162C91.4263 498.118 87.531 494.315 83.7972 490.721C76.3355 483.544 69.5383 477.292 63.7982 472.147C58.053 467.004 53.3695 462.966 50.1139 460.22C48.5375 458.912 47.2849 457.874 46.3495 457.097C45.4812 456.398 45.0167 456.045 44.9913 456.075Z" fill="#B1FA16"/>
<path d="M82.1057 447.437C82.0646 447.443 82.0855 447.748 82.1611 448.326C82.2509 448.898 82.3337 449.755 82.5819 450.828C83.0066 452.995 83.8501 456.095 85.3366 459.765C88.2392 467.07 94.3381 476.696 104.24 483.829C114.149 490.957 125.215 493.683 133.063 494.117C137.016 494.363 140.223 494.179 142.411 493.894C143.51 493.788 144.349 493.593 144.92 493.499C145.49 493.386 145.785 493.308 145.78 493.269C145.757 493.004 140.92 493.97 133.132 493.274C125.411 492.63 114.624 489.824 104.938 482.857C95.2618 475.885 89.1765 466.551 86.1156 459.434C82.9838 452.267 82.361 447.372 82.1057 447.437Z" fill="#B1FA16"/>
<path d="M165.944 287.685C165.604 287.551 162.86 294.459 158.172 302.274C153.524 310.117 148.754 315.814 149.034 316.051C149.149 316.15 150.496 314.851 152.426 312.533C154.357 310.216 156.836 306.847 159.201 302.888C161.559 298.926 163.342 295.141 164.462 292.342C165.585 289.541 166.087 287.74 165.944 287.685Z" fill="#B1FA16"/>
<path d="M74.9084 291.453C75.1819 291.69 77.9927 288.477 82.3974 285.773C86.7773 283.022 90.9046 281.931 90.8127 281.581C90.7853 281.28 86.3546 281.882 81.7681 284.757C77.1583 287.593 74.6537 291.294 74.9084 291.453Z" fill="#B1FA16"/>
<path d="M131.914 573.923C126.507 579.318 120.544 584.151 114.145 588.322C112.731 589.241 111.125 590.17 109.458 589.894C107.795 589.62 106.469 587.456 107.584 586.187C105.872 587.559 103.238 587.621 101.464 586.334C96.7537 582.911 102.991 577.117 103.481 576.164C97.1804 581.446 95.8248 581.178 94.3429 580.245C92.7665 579.252 91.8631 577.179 92.4585 575.415C90.7557 577.724 86.6676 576.809 85.3557 574.258C84.0432 571.706 84.9577 568.498 86.6949 566.216C88.4302 563.934 90.8684 562.311 93.0603 560.459C94.7644 559.022 96.3902 557.326 97.2748 555.317C100.786 558.054 103.9 560.307 105.785 561.293C111.478 564.271 122.133 570.992 130.044 572.803L131.914 573.923ZM96.826 554.967C91.4859 559.013 83.6588 559.553 77.864 556.153C76.5821 555.399 75.3705 554.446 74.6377 553.154C73.9049 551.86 73.7303 550.183 74.4814 548.903C75.4304 547.285 77.5332 546.731 79.4039 546.835C81.2741 546.938 83.0921 547.542 84.9649 547.614C85.77 547.643 86.6155 547.542 87.3874 547.285C90.4496 549.848 93.7723 552.574 96.826 554.967Z" fill="black"/>
<path fill-rule="evenodd" clip-rule="evenodd" d="M79.4405 546.169C77.4763 546.06 75.0449 546.624 73.9063 548.566C73.0038 550.104 73.2413 552.042 74.0576 553.483C74.8742 554.922 76.2016 555.949 77.5261 556.728C83.1052 560.001 90.4694 559.766 95.9355 556.385C95.0772 557.702 93.8947 558.883 92.6304 559.95C92.0911 560.405 91.5349 560.848 90.9702 561.297L90.9093 561.345C90.3667 561.777 89.8161 562.214 89.2781 562.665C88.1618 563.601 87.0756 564.614 86.1644 565.812C84.3473 568.198 83.2846 571.688 84.7627 574.563C85.5294 576.054 87.0751 577.025 88.6392 577.314C89.6381 577.499 90.7081 577.414 91.624 576.96C91.7614 578.511 92.6844 579.988 93.9876 580.809C94.3805 581.056 94.8329 581.305 95.3981 581.401C95.9713 581.498 96.5952 581.429 97.3325 581.161C98.0909 580.886 99.0058 580.385 100.165 579.584C100.084 579.726 100.006 579.87 99.9302 580.016C99.3884 581.064 98.9763 582.267 99.0579 583.48C99.1421 584.731 99.7466 585.91 101.072 586.874C102.625 588 104.74 588.218 106.519 587.547C106.56 587.967 106.699 588.374 106.894 588.733C107.374 589.614 108.281 590.375 109.349 590.551C111.305 590.876 113.122 589.782 114.508 588.881C120.946 584.685 126.946 579.823 132.385 574.395L132.991 573.791L130.295 572.176L130.192 572.153C126.326 571.268 121.749 569.17 117.391 566.895C115.218 565.76 113.113 564.589 111.19 563.512C110.974 563.39 110.759 563.27 110.547 563.151C108.882 562.218 107.366 561.368 106.094 560.702C106.094 560.702 106.094 560.702 106.094 560.702C104.271 559.748 101.203 557.533 97.6846 554.791L97.4454 554.605L97.9183 554.976L97.3964 555.371L97.8849 555.586C97.7712 555.844 97.6462 556.097 97.5114 556.345C100.756 558.853 103.65 560.928 105.475 561.884C106.729 562.54 108.227 563.379 109.896 564.315C110.108 564.433 110.322 564.554 110.539 564.675C112.462 565.752 114.582 566.932 116.774 568.077C121.107 570.339 125.77 572.49 129.791 573.429L129.701 573.375L130.044 572.803L129.895 573.452C129.86 573.445 129.826 573.437 129.791 573.429L130.835 574.054C131.039 573.853 131.241 573.653 131.443 573.451L131.914 573.923L131.572 574.495L130.835 574.054C125.622 579.174 119.902 583.774 113.78 587.763C113.78 587.764 113.781 587.763 113.78 587.763C112.339 588.7 110.944 589.464 109.567 589.236C108.973 589.138 108.384 588.681 108.065 588.094C107.746 587.511 107.775 586.98 108.084 586.627L113.123 580.894L107.167 585.667C105.69 586.851 103.387 586.905 101.856 585.795C101.856 585.795 101.856 585.795 101.856 585.795C100.826 585.047 100.444 584.218 100.388 583.39C100.33 582.524 100.625 581.576 101.115 580.629C101.601 579.688 102.248 578.807 102.819 578.088C103.013 577.843 103.193 577.624 103.356 577.426C103.434 577.331 103.508 577.24 103.578 577.154C103.769 576.919 103.973 576.663 104.074 576.468L105.58 573.533L103.052 575.653C99.9008 578.295 98.0666 579.476 96.8771 579.908C96.3028 580.117 95.9162 580.136 95.6216 580.086C95.319 580.035 95.0461 579.9 94.6981 579.681C94.6981 579.681 94.6982 579.681 94.6981 579.681C93.341 578.826 92.6081 577.056 93.0901 575.628L94.4543 571.584L91.9218 575.019C91.2663 575.908 90.1127 576.231 88.8818 576.003C87.6482 575.775 86.4939 575.014 85.9486 573.953C85.9486 573.953 85.9486 573.953 85.9486 573.953C84.8016 571.723 85.5679 568.797 87.2254 566.62C88.0495 565.536 89.0501 564.596 90.1346 563.687C90.659 563.248 91.1974 562.82 91.7437 562.386L91.7998 562.341C92.3628 561.894 92.9336 561.439 93.4902 560.969C93.4903 560.969 93.4901 560.969 93.4902 560.969C95.0126 559.684 96.5255 558.156 97.5114 556.345C97.2974 556.18 97.0818 556.012 96.865 555.843L97.0032 555.666M96.7468 554.862L97.0096 554.265L97.4454 554.605L97.2367 554.442C94.1908 552.056 90.8745 549.334 87.8153 546.774L87.5298 546.535L87.1765 546.652C86.4903 546.881 85.7259 546.974 84.9897 546.948C84.1099 546.914 83.2339 546.755 82.3063 546.581L82.2081 546.562C81.3248 546.397 80.3918 546.221 79.4405 546.169M96.5232 555.353L96.4148 555.492C96.1829 555.31 95.9494 555.126 95.7146 554.941C90.6177 558.361 83.5076 558.692 78.2014 555.578C78.2013 555.578 78.2016 555.578 78.2014 555.578C76.9624 554.849 75.8667 553.969 75.2178 552.825C75.2177 552.825 75.2179 552.826 75.2178 552.825C74.5684 551.679 74.4568 550.262 75.0564 549.24C75.8159 547.945 77.5898 547.402 79.367 547.5C80.2297 547.548 81.0868 547.709 81.9948 547.879L82.0605 547.891C82.9774 548.063 83.9466 548.242 84.9393 548.28L84.9406 548.28C85.6924 548.308 86.483 548.231 87.2352 548.027C89.9901 550.33 92.9432 552.753 95.7146 554.941" fill="#B1FA16"/>
<path fill-rule="evenodd" clip-rule="evenodd" d="M98.6244 517.74L98.2345 517.672L79.3641 541.338L79.8407 541.758L80.2812 541.258C79.8407 541.758 79.8405 541.758 79.8407 541.758L80.0539 541.945C80.1932 542.067 80.3982 542.246 80.6614 542.476C81.1878 542.935 81.9471 543.594 82.8793 544.395C84.7436 545.999 87.3004 548.174 90.0696 550.461C95.5812 555.012 102.015 560.073 105.475 561.884C106.701 562.525 108.192 563.361 109.851 564.29C112.67 565.87 115.975 567.722 119.286 569.354C121.937 570.66 124.638 571.85 127.181 572.687C129.714 573.522 132.138 574.023 134.22 573.91C137.312 573.745 139.094 572.886 140.113 571.979C140.62 571.528 140.923 571.078 141.101 570.726C141.171 570.59 141.221 570.468 141.256 570.368C141.277 570.354 141.298 570.338 141.321 570.322C141.483 570.206 141.712 570.038 141.983 569.831C142.525 569.418 143.244 568.843 143.938 568.202C144.626 567.566 145.319 566.84 145.787 566.123C146.076 565.681 146.343 565.145 146.387 564.594C146.518 564.574 146.664 564.55 146.821 564.52C147.482 564.396 148.367 564.169 149.221 563.755C150.073 563.343 150.938 562.724 151.494 561.792C151.973 560.989 152.189 560.006 152.027 558.832C152.085 558.817 152.145 558.801 152.209 558.784C152.704 558.649 153.377 558.437 154.081 558.131C155.434 557.543 157.13 556.507 157.62 554.786M151.13 557.671L150.436 557.799L150.604 558.485C150.892 559.664 150.713 560.498 150.348 561.11C149.973 561.74 149.354 562.209 148.64 562.555C147.929 562.899 147.168 563.098 146.574 563.21C146.279 563.266 146.031 563.299 145.858 563.318C145.772 563.328 145.705 563.334 145.661 563.337C145.639 563.339 145.623 563.34 145.613 563.341L145.602 563.342L145.601 563.342L144.635 563.395L145.029 564.279C145.094 564.425 145.081 564.766 144.671 565.393C144.292 565.974 143.692 566.613 143.033 567.222C142.38 567.825 141.697 568.372 141.175 568.77C140.915 568.969 140.696 569.129 140.542 569.239C140.466 569.294 140.406 569.337 140.365 569.365L140.32 569.397L140.308 569.405L140.306 569.407L140.077 569.565L140.029 569.829C140.029 569.829 140.029 569.83 140.029 569.83C140.027 569.838 140.022 569.855 140.014 569.881C139.997 569.932 139.966 570.016 139.912 570.124C139.803 570.339 139.599 570.652 139.227 570.983C138.488 571.64 137.021 572.425 134.149 572.579C132.308 572.678 130.067 572.234 127.598 571.421C125.138 570.61 122.498 569.45 119.876 568.158C116.574 566.531 113.37 564.734 110.586 563.173C108.913 562.235 107.392 561.382 106.094 560.702C102.784 558.97 96.4662 554.013 90.9186 549.433C88.1583 547.153 85.6086 544.984 83.7488 543.384C82.819 542.585 82.0619 541.928 81.5374 541.471C81.4109 541.36 81.2979 541.262 81.1993 541.176L98.7843 519.121C98.85 519.132 98.9235 519.145 99.0046 519.159C99.3984 519.226 99.9701 519.322 100.682 519.439C102.107 519.673 104.095 519.989 106.348 520.319C110.849 520.978 116.432 521.696 120.703 521.917C127.938 522.292 131.512 521.819 137.003 521.091C137.999 520.959 139.059 520.819 140.215 520.674C143.956 520.203 145.429 520.733 145.976 521.169C146.23 521.371 146.303 521.565 146.328 521.685C146.341 521.75 146.342 521.803 146.34 521.835C146.34 521.845 146.339 521.853 146.339 521.857L146.321 521.934L146.326 522.029C146.385 523.129 145.638 524.153 144.13 525.104C142.645 526.04 140.598 526.786 138.489 527.361C136.39 527.934 134.275 528.327 132.681 528.577C131.885 528.702 131.222 528.791 130.758 528.848C130.526 528.877 130.344 528.898 130.221 528.912C130.183 528.916 130.151 528.919 130.125 528.922C130.108 528.924 130.093 528.925 130.081 528.927L130.046 528.93L130.037 528.931L130.035 528.931L129.295 529.005L129.449 529.733C129.473 529.85 129.524 529.933 129.541 529.96C129.565 529.998 129.588 530.029 129.604 530.048C129.637 530.087 129.671 530.123 129.698 530.15C129.755 530.206 129.828 530.271 129.908 530.34C130.071 530.48 130.301 530.668 130.585 530.894C131.154 531.346 131.961 531.97 132.929 532.71C134.447 533.87 136.371 535.324 138.414 536.867C138.98 537.295 139.555 537.729 140.133 538.166C142.799 540.182 145.532 542.254 147.742 543.964C149.97 545.688 151.619 547.009 152.158 547.543M131.694 530.071C132.226 530.49 132.923 531.027 133.739 531.651C135.254 532.808 137.174 534.259 139.216 535.802C139.782 536.23 140.358 536.664 140.937 537.102C143.603 539.118 146.342 541.194 148.558 542.909C150.755 544.609 152.485 545.99 153.096 546.596C153.204 546.702 153.328 546.823 153.464 546.955C154.198 547.668 155.29 548.729 156.174 549.916C157.197 551.29 158.113 553.054 157.62 554.786M131.694 530.071C132.045 530.022 132.446 529.964 132.888 529.895C134.51 529.64 136.677 529.238 138.84 528.648C140.993 528.06 143.189 527.273 144.841 526.232C146.448 525.219 147.721 523.842 147.66 522.032C147.665 521.996 147.669 521.953 147.672 521.904C147.678 521.779 147.674 521.61 147.634 521.416C147.551 521.015 147.324 520.537 146.806 520.125C145.81 519.333 143.853 518.872 140.049 519.351M98.5091 518.397C98.6244 517.74 98.6243 517.74 98.6244 517.74L98.7793 517.767C98.8816 517.785 99.0329 517.811 99.2286 517.844C99.62 517.911 100.189 518.007 100.898 518.123C102.317 518.356 104.297 518.671 106.541 519C111.036 519.658 116.567 520.368 120.772 520.585C127.88 520.954 131.344 520.495 136.817 519.771C137.816 519.638 138.882 519.497 140.049 519.351M98.6244 517.74L98.5091 518.397L98.6244 517.74ZM151.13 557.671L151.139 557.669L151.175 557.662C151.207 557.656 151.256 557.645 151.32 557.631C151.447 557.603 151.633 557.559 151.859 557.497C152.312 557.374 152.921 557.182 153.549 556.909C154.86 556.339 156.027 555.514 156.337 554.421C156.644 553.343 156.099 552.049 155.104 550.712C154.291 549.62 153.292 548.648 152.553 547.93C152.411 547.791 152.278 547.662 152.158 547.543" fill="#B1FA16"/>
<path fill-rule="evenodd" clip-rule="evenodd" d="M169.977 196.199C168.295 173.692 148.468 156.954 125.996 159.026C104.301 161.031 88.1088 179.882 89.3983 201.631L89.7656 207.823C87.7443 207.581 84.8015 207.555 82.2656 208.808C80.7942 209.535 79.4655 210.689 78.5489 212.455C77.6362 214.214 77.1539 216.536 77.2944 219.569C77.4353 222.61 78.1562 224.938 79.2563 226.699C80.3584 228.464 81.8193 229.625 83.3811 230.362C86.1159 231.653 89.1497 231.643 91.1636 231.373L94.5502 288.45C95.5009 304.488 109.281 316.712 125.318 315.746C141.675 314.758 153.984 300.445 152.522 284.12C152.166 280.16 151.833 276.583 151.59 273.998C151.468 272.705 151.368 271.659 151.299 270.937C151.28 270.737 151.263 270.561 151.249 270.412C151.356 270.388 151.477 270.36 151.609 270.328C152.214 270.182 153.074 269.949 154.103 269.602C156.159 268.908 158.905 267.753 161.654 265.906C167.171 262.198 172.693 255.701 172.67 244.647M150.528 269.88C149.864 269.944 149.864 269.944 149.864 269.944L149.864 269.945L149.892 270.233C149.91 270.423 149.937 270.703 149.972 271.064C150.041 271.786 150.14 272.83 150.262 274.123C150.506 276.707 150.838 280.281 151.194 284.239C152.589 299.816 140.844 313.473 125.238 314.415C109.936 315.337 96.7883 303.673 95.8812 288.371L92.4063 229.805L91.6633 229.944C89.8453 230.283 86.6872 230.448 83.9504 229.156C82.5951 228.516 81.3401 227.518 80.3872 225.993C79.4323 224.464 78.759 222.369 78.6264 219.508C78.4936 216.642 78.9549 214.568 79.7324 213.07C80.5059 211.579 81.6141 210.617 82.8561 210.003C85.3769 208.758 88.4697 208.944 90.3716 209.256L91.1944 209.39L90.7294 201.552C89.4824 180.521 105.14 162.293 126.118 160.354M150.416 269.222L149.804 269.327L149.864 269.944L150.528 269.88M150.416 269.222L150.417 269.222L150.427 269.221L150.467 269.213C150.505 269.206 150.561 269.195 150.636 269.18C150.787 269.149 151.01 269.101 151.296 269.032C151.868 268.894 152.689 268.672 153.677 268.339C155.654 267.672 158.285 266.563 160.911 264.799C166.143 261.283 171.359 255.165 171.337 244.65C171.317 234.63 170.024 214.727 168.648 196.298C167.021 174.537 147.849 158.35 126.118 160.354M169.977 196.199C171.353 214.615 172.651 234.569 172.67 244.647L169.977 196.199Z" fill="#B1FA16"/>
<path d="M150.559 269.57C150.559 269.57 136.947 270.873 122.331 261.984C122.331 261.984 129.554 277.569 151.045 275.317L150.559 269.57Z" fill="#B1FA16"/>
<path d="M88.543 224.75C88.4759 224.707 88.2949 224.943 87.8695 225.161C87.4559 225.375 86.7341 225.543 85.9531 225.29C84.3696 224.791 82.945 222.379 82.7496 219.727C82.6486 218.387 82.8714 217.098 83.2987 216.018C83.6967 214.92 84.3605 214.133 85.1369 213.959C85.9095 213.743 86.486 214.187 86.6859 214.591C86.9022 214.995 86.8214 215.294 86.8996 215.315C86.9432 215.349 87.2051 215.053 87.0585 214.451C86.9849 214.161 86.7967 213.821 86.4358 213.554C86.0704 213.283 85.544 213.16 84.9995 213.244C83.8667 213.378 82.8922 214.469 82.4232 215.655C81.8924 216.848 81.6123 218.298 81.7249 219.803C81.9568 222.767 83.6042 225.474 85.7649 225.991C86.8123 226.214 87.6624 225.86 88.0949 225.492C88.5333 225.108 88.5958 224.776 88.543 224.75Z" fill="black"/>
<path d="M160.933 208.001C161.013 209.628 159.704 211.034 158.007 211.151C156.315 211.266 154.875 210.046 154.794 208.421C154.713 206.794 156.021 205.383 157.715 205.268C159.411 205.151 160.851 206.376 160.933 208.001Z" fill="black"/>
<path d="M163.864 204.011C163.488 204.42 161.131 202.724 157.816 202.782C154.506 202.791 152.098 204.531 151.731 204.131C151.555 203.953 151.931 203.223 152.98 202.437C154.013 201.653 155.779 200.882 157.843 200.861C159.908 200.842 161.654 201.575 162.663 202.341C163.695 203.106 164.05 203.827 163.864 204.011Z" fill="black"/>
<path d="M127.73 208.912C127.81 210.538 126.498 211.944 124.804 212.06C123.111 212.176 121.67 210.956 121.59 209.33C121.509 207.704 122.819 206.293 124.513 206.178C126.206 206.06 127.647 207.286 127.73 208.912Z" fill="black"/>
<path d="M131.301 205.098C130.924 205.507 128.562 203.813 125.25 203.868C121.941 203.878 119.533 205.617 119.167 205.215C118.988 205.04 119.363 204.309 120.415 203.524C121.447 202.74 123.214 201.968 125.278 201.947C127.344 201.929 129.09 202.664 130.099 203.428C131.126 204.195 131.484 204.916 131.301 205.098Z" fill="black"/>
<path d="M143.68 229.5C143.662 229.311 145.716 228.927 149.048 228.455C149.893 228.353 150.693 228.174 150.827 227.593C151.017 226.979 150.65 226.074 150.224 225.092C149.4 223.058 148.538 220.924 147.63 218.688C144.022 209.563 141.398 202.055 141.765 201.913C142.135 201.77 145.36 209.053 148.965 218.176C149.836 220.425 150.666 222.569 151.456 224.624C151.79 225.579 152.357 226.662 151.943 227.937C151.725 228.572 151.109 229.04 150.569 229.194C150.032 229.369 149.553 229.383 149.135 229.415C145.781 229.645 143.696 229.688 143.68 229.5Z" fill="#B1FA16"/>
<path d="M135.122 193.098C134.736 193.976 131.463 193.332 127.552 193.544C123.637 193.679 120.433 194.608 119.974 193.769C119.77 193.367 120.369 192.558 121.692 191.77C123.002 190.984 125.057 190.288 127.403 190.184C129.749 190.081 131.859 190.591 133.233 191.26C134.621 191.926 135.292 192.68 135.122 193.098Z" fill="black"/>
<path d="M165.104 191.802C164.533 192.563 162.238 191.813 159.491 191.818C156.746 191.724 154.43 192.395 153.884 191.616C153.643 191.237 153.998 190.479 155.005 189.752C155.995 189.026 157.66 188.422 159.548 188.452C161.435 188.484 163.08 189.143 164.045 189.902C165.027 190.66 165.357 191.432 165.104 191.802Z" fill="black"/>
<path d="M94.772 220.717C98.5018 222.512 103.112 219.612 104.715 215.798C106.32 211.98 105.798 207.653 105.356 203.538C104.757 197.924 104.368 192.218 105.368 186.661C106.368 181.105 108.891 175.654 113.257 172.076C117.625 168.501 124.004 167.14 129.106 169.558C132.254 171.049 134.646 173.765 137.59 175.627C140.237 177.302 143.445 178.272 146.534 177.743C149.622 177.212 153.804 175.043 153.279 171.952C152.058 164.757 157.053 170.794 156.724 169.569C156.175 167.531 152.026 164.033 150.305 162.767C147.129 160.433 143.765 159.313 140.398 158.723C131.057 157.084 121.008 158.268 112.251 161.901C103.491 165.534 95.7992 172.303 92.2172 181.082C89.4377 187.896 86.541 216.749 94.772 220.717Z" fill="#B1FA16"/>
<path fill-rule="evenodd" clip-rule="evenodd" d="M112.506 162.517C121.15 158.931 131.07 157.764 140.283 159.379C143.58 159.958 146.839 161.047 149.91 163.304C150.749 163.922 152.192 165.093 153.489 166.356C154.025 166.879 154.529 167.41 154.951 167.919C154.945 167.916 154.938 167.913 154.932 167.91C154.627 167.778 154.25 167.662 153.863 167.695C153.432 167.731 153.043 167.948 152.783 168.363C152.548 168.738 152.445 169.233 152.424 169.81C152.402 170.398 152.465 171.14 152.622 172.064M156.08 169.742C156.08 169.742 156.08 169.742 156.08 169.742L156.08 169.742ZM156.08 169.742C156.08 169.745 156.081 169.745 156.08 169.742L156.08 169.742ZM112.506 162.517L112.267 161.941L112.506 162.517ZM140.513 158.066C131.044 156.405 120.866 157.605 111.995 161.285C103.104 164.973 95.2616 171.856 91.5998 180.83L91.5998 180.83C90.8727 182.612 90.1617 185.761 89.6263 189.497C89.0885 193.25 88.7204 197.65 88.6989 201.963C88.6774 206.271 89.0011 210.524 89.8626 213.97C90.7128 217.371 92.1373 220.187 94.4823 221.318L94.4828 221.318C96.5891 222.331 98.9034 221.998 100.856 220.948C102.806 219.901 104.467 218.108 105.33 216.056L105.33 216.056C106.959 212.179 106.49 207.827 106.062 203.864C106.048 203.731 106.033 203.599 106.019 203.467C105.421 197.861 105.042 192.236 106.024 186.78C107.005 181.328 109.471 176.041 113.679 172.592C117.891 169.144 123.998 167.875 128.82 170.16L128.821 170.16C130.318 170.869 131.65 171.877 133.006 172.972C133.232 173.155 133.459 173.34 133.688 173.527C134.813 174.445 135.976 175.395 137.234 176.19C139.976 177.925 143.35 178.964 146.646 178.4L146.647 178.4C148.273 178.121 150.191 177.412 151.654 176.346C153.104 175.29 154.261 173.754 153.936 171.841L153.936 171.841C153.788 170.966 153.739 170.322 153.756 169.859C153.773 169.384 153.857 169.16 153.913 169.071C153.942 169.026 153.95 169.025 153.968 169.024C153.97 169.024 153.973 169.024 153.975 169.024C154.042 169.018 154.18 169.038 154.402 169.134C154.789 169.301 155.202 169.593 155.59 169.866C155.651 169.909 155.711 169.951 155.771 169.993C155.874 170.065 155.978 170.136 156.074 170.195C156.159 170.248 156.282 170.319 156.412 170.361C156.475 170.382 156.593 170.415 156.737 170.404C156.902 170.391 157.115 170.316 157.264 170.112C157.393 169.936 157.407 169.752 157.406 169.656C157.405 169.553 157.385 169.462 157.367 169.396L157.367 169.396C157.195 168.755 156.765 168.068 156.258 167.415C155.739 166.748 155.092 166.057 154.419 165.401C153.074 164.09 151.582 162.879 150.7 162.23L150.7 162.23C147.418 159.818 143.95 158.669 140.513 158.066L140.513 158.066ZM92.8344 181.334C96.3367 172.751 103.877 166.096 112.506 162.517L112.267 161.941M129.391 168.955C124.01 166.405 117.359 167.857 112.835 171.56L112.834 171.56C108.31 175.268 105.731 180.883 104.712 186.543C103.694 192.2 104.093 197.987 104.693 203.608L104.693 203.609C104.703 203.695 104.712 203.78 104.721 203.866C105.159 207.942 105.594 211.986 104.101 215.539C103.36 217.302 101.914 218.866 100.225 219.774C98.5402 220.679 96.6849 220.898 95.0614 220.117C93.291 219.263 91.9909 216.985 91.1562 213.647C90.3327 210.353 90.011 206.224 90.0323 201.97C90.0535 197.723 90.4163 193.384 90.9462 189.686C91.4784 185.972 92.1718 182.958 92.8344 181.334M129.391 168.955C131.042 169.737 132.48 170.833 133.844 171.935C134.081 172.127 134.317 172.319 134.55 172.509C135.674 173.426 136.763 174.315 137.947 175.063L137.947 175.063C140.498 176.678 143.54 177.579 146.421 177.086M146.422 177.086C147.884 176.835 149.6 176.193 150.869 175.269L146.422 177.086ZM150.869 175.269C152.15 174.335 152.821 173.24 152.622 172.064L150.869 175.269Z" fill="#B1FA16"/>
<path d="M136.666 239.303C136.632 239.963 139.385 240.65 142.816 240.834C146.249 241.017 149.059 240.631 149.094 239.972C149.13 239.312 146.378 238.628 142.944 238.444C139.513 238.258 136.703 238.644 136.666 239.303Z" fill="#B1FA16"/>
<path fill-rule="evenodd" clip-rule="evenodd" d="M150.76 197.134C151.094 197.008 151.447 196.921 151.812 196.878C151.812 196.878 159.39 196.221 163.166 196.425C166.941 196.632 171.011 197.851 173.086 201.012C174.713 203.487 174.791 206.654 174.571 209.609C174.272 213.656 173.213 218.139 169.782 220.309C167.334 221.857 164.172 221.839 161.371 221.099C156.488 219.805 152.204 216.395 149.848 211.925C148.021 208.469 147.372 204.416 147.954 200.551C148.093 199.64 148.516 198.829 149.128 198.2C147.471 198.272 145.611 198.33 143.645 198.37C141.184 198.418 138.887 198.431 136.943 198.412C137.734 199.055 138.301 199.962 138.491 201.012C139.192 204.9 138.654 209.019 136.91 212.569C134.656 217.156 130.423 220.727 125.523 222.177C122.713 223.008 119.519 223.119 116.998 221.623C113.466 219.531 112.266 215.028 111.844 210.944C111.538 207.963 111.524 204.762 113.096 202.212C113.239 201.979 113.393 201.757 113.556 201.544C111.275 202.462 108.837 203.443 106.227 204.492L106.224 204.493L105.439 204.809C101.429 206.435 97.7412 207.809 95.0093 208.625C92.0735 209.721 89.1911 209.975 94.7357 207.823C96.9281 206.941 99.276 205.997 101.793 204.985L101.878 204.95L104.991 203.699C108.862 202.126 112.433 200.793 115.133 199.969C117.289 198.299 120.211 197.518 122.993 197.285C126.806 196.968 134.483 197.413 134.483 197.413C134.678 197.431 134.87 197.461 135.058 197.502C137.308 197.359 140.316 197.239 143.622 197.172C146.271 197.119 148.729 197.109 150.76 197.134Z" fill="#B1FA16"/>
<path d="M91.3393 295.817C91.3602 295.819 91.3803 295.7 91.4012 295.461C91.424 295.222 91.424 294.861 91.3601 294.397C91.252 293.462 90.7856 292.129 89.9375 290.585C89.0985 289.034 87.9931 287.215 87.3456 284.844C86.6493 282.495 86.3529 279.69 86.3712 276.59C86.3666 273.469 86.762 270.114 86.9893 266.368C86.9984 265.419 86.8929 264.33 86.2767 263.395C85.7139 262.504 84.5831 261.669 83.2621 262.005C82.655 262.175 82.1293 262.558 81.7938 263.128C81.4395 263.689 81.4395 264.53 81.8375 265.114C82.7748 266.309 84.2294 266.197 85.312 265.787C87.4948 264.758 88.7057 262.168 88.0556 259.774C87.743 258.606 87.033 257.528 86.0103 256.797C85.4911 256.435 84.8912 256.161 84.204 256.083C83.5422 256.003 82.713 256.182 82.1775 256.77C81.6785 257.312 81.3704 258.121 81.6922 258.965C82.0648 259.826 82.9611 260.1 83.6067 260.132C84.9739 260.201 86.2721 259.571 87.1567 258.606C88.0485 257.65 88.5885 256.278 88.382 254.893C88.1794 253.514 87.2974 252.333 86.1458 251.632C85.183 251.035 83.9975 250.761 82.823 251.035C82.2348 251.188 81.7059 251.485 81.2695 251.945C80.8376 252.377 80.5249 253.149 80.7432 253.859C80.9295 254.58 81.5795 255.056 82.1384 255.23C82.7149 255.421 83.2875 255.446 83.8477 255.377C84.942 255.205 85.9067 254.739 86.7385 254.09C88.3683 252.827 89.4138 250.527 88.6185 248.44C87.8765 246.498 85.8129 245.023 83.6594 245.503C82.6257 245.751 81.6375 246.494 81.4558 247.732C81.3822 248.344 81.6577 248.982 82.083 249.361C82.5058 249.75 83.025 249.964 83.5702 250.014C84.673 250.087 85.5693 249.564 86.2656 249.017C86.973 248.454 87.573 247.758 87.9703 246.938C88.8256 245.32 88.453 243.077 86.904 242.022C85.3257 240.9 82.9175 241.809 82.6113 243.709L82.5612 244.028L82.8367 244.179C85.0202 245.363 87.6283 244.14 88.4139 242.176C88.8321 241.174 88.6458 240.043 88.1657 239.207C87.6785 238.361 86.9411 237.718 86.093 237.378C85.254 237.017 84.2802 237.021 83.4875 237.359C82.683 237.651 81.9932 238.566 82.2094 239.467C82.285 239.906 82.6185 240.321 83.0438 240.466C83.4666 240.62 83.8893 240.551 84.2385 240.404C84.9739 240.099 85.3257 239.37 85.4631 238.786C85.8722 236.392 85.6702 234.57 85.5276 233.326C85.3576 232.09 85.1622 231.458 85.1231 231.468C84.9374 231.453 85.7322 234.133 84.9485 238.646C84.7994 239.168 84.5166 239.669 84.0086 239.855C83.5057 240.073 82.924 239.882 82.8484 239.34C82.6068 238.157 84.5212 237.426 85.8012 238.076C87.1385 238.62 88.2739 240.344 87.6186 241.857C87.0466 243.339 84.8313 244.276 83.3239 243.368L83.5493 243.837C83.6757 242.766 85.3758 242.068 86.3366 242.845C87.3821 243.584 87.7156 245.216 87.0258 246.478C86.4057 247.7 84.9648 248.985 83.6685 248.925C83.0367 248.869 82.4693 248.359 82.5612 247.847C82.6094 247.319 83.2458 246.726 83.9193 246.601C85.3348 246.25 86.9939 247.365 87.5313 248.849C88.1058 250.315 87.3522 252.13 86.0031 253.167C85.3348 253.693 84.5095 254.075 83.6894 254.199C82.9032 254.32 81.9775 254.04 81.8902 253.535C81.6994 253.07 82.3632 252.37 83.1194 252.193C83.8822 252.013 84.7922 252.188 85.5211 252.652C86.4057 253.185 87.0629 254.1 87.2004 255.067C87.3502 256.03 86.9685 257.062 86.2813 257.8C85.6038 258.547 84.6176 258.997 83.6822 258.951C82.6875 258.926 82.4895 258.229 83.0347 257.57C83.494 257.03 84.5994 257.188 85.3439 257.745C86.1295 258.298 86.7021 259.153 86.9522 260.07C87.5085 261.895 86.4584 264.029 84.8866 264.769C84.1258 265.109 83.0575 265.02 82.7331 264.514C82.3449 264.018 82.8302 263.211 83.5448 263.018C84.1903 262.821 84.9993 263.278 85.4221 263.956C85.8768 264.625 85.9986 265.491 85.9966 266.362C85.8194 269.965 85.4657 273.444 85.523 276.592C85.5602 279.747 85.923 282.629 86.7066 285.037C87.4349 287.471 88.6484 289.33 89.531 290.812C90.4313 292.303 90.942 293.549 91.1231 294.438C91.312 295.325 91.2839 295.817 91.3393 295.817Z" fill="#B1FA16"/>
<path d="M82.8692 225.297C83.0157 224.192 83.262 223.075 83.8456 222.126C84.4293 221.175 85.3992 220.407 86.5092 220.304C87.7475 220.187 89.0112 220.993 89.4339 222.163C89.843 223.298 89.3166 224.702 88.3474 225.423L88.2855 225.474L88.262 225.492L88.2712 225.483L88.0165 225.651C87.6328 225.892 87.0882 225.925 86.7039 226.163C85.9138 226.653 85.6584 227.694 85.6956 228.622C85.7301 229.55 85.9848 230.469 85.9157 231.396C85.863 232.071 85.4819 232.855 84.8058 232.869C84.2176 232.883 83.8066 232.306 83.5629 231.773C82.6529 229.771 82.5774 227.478 82.8692 225.297Z" fill="#B1FA16"/>
<path d="M150.859 273.352C150.859 273.352 155.482 280.126 155.859 284.529C156.11 287.443 154.167 298.779 152.825 306.112C152.055 310.324 150.413 314.318 147.998 317.852L145.006 322.234C140.681 328.568 137.075 335.362 134.256 342.496C128.428 357.23 118.636 382.045 118.294 383.234C117.805 384.93 113.942 391.899 113.942 391.899L108.763 329.96L93.1364 298.993C91.7757 296.297 91.0129 293.34 90.9048 290.324L90.5393 280.384C90.4064 276.742 91.7021 273.194 94.1519 270.495L94.9375 279.444L120.852 302.984L150.909 282.76L150.859 273.352Z" fill="#B1FA16"/>
<path d="M122.169 303.182C122.031 303.398 125.071 304.276 127.587 308.295C130.198 312.172 132.169 318.438 133.877 325.431C134.051 326.12 134.221 326.805 134.384 327.446L134.614 328.372L135.342 327.763C140.573 323.379 144.592 318.84 147.497 315.621C150.376 312.369 152.093 310.356 151.982 310.246C151.867 310.135 149.937 311.962 146.901 315.065C143.848 318.137 139.736 322.559 134.582 326.841L135.54 327.159C135.381 326.515 135.209 325.83 135.037 325.139C133.322 318.121 131.186 311.737 128.281 307.813C126.865 305.854 125.344 304.52 124.126 303.908C122.936 303.258 122.178 303.136 122.169 303.182Z" fill="black"/>
<path fill-rule="evenodd" clip-rule="evenodd" d="M124.436 303.317C123.809 302.976 123.285 302.767 122.903 302.648C122.713 302.588 122.549 302.548 122.421 302.527C122.36 302.517 122.287 302.507 122.213 302.507C122.182 302.506 122.112 302.507 122.03 302.525C121.991 302.534 121.908 302.556 121.818 302.613C121.745 302.658 121.627 302.754 121.558 302.914C121.495 303.055 121.483 303.207 121.514 303.347C121.546 303.492 121.616 303.594 121.657 303.645C121.735 303.744 121.83 303.812 121.875 303.844C121.977 303.916 122.119 303.998 122.255 304.076L122.28 304.09C122.582 304.264 123.001 304.505 123.497 304.856C124.496 305.564 125.818 306.727 127.022 308.649L127.028 308.658L127.034 308.668C129.57 312.434 131.52 318.591 133.229 325.589L133.23 325.594C133.31 325.909 133.39 326.227 133.469 326.541C133.494 326.64 133.518 326.74 133.543 326.838L133.232 327.097L133.642 327.233C133.675 327.36 133.706 327.485 133.738 327.609C133.738 327.609 133.738 327.61 133.738 327.61L134.224 329.568L135.77 328.274C135.866 328.194 135.962 328.113 136.058 328.032L136.477 328.171L136.376 327.761C141.085 323.734 144.784 319.627 147.531 316.578C147.688 316.404 147.841 316.234 147.992 316.067L147.996 316.062C149.436 314.436 150.59 313.114 151.371 312.184C151.761 311.72 152.065 311.345 152.267 311.074C152.366 310.941 152.454 310.817 152.515 310.711C152.544 310.663 152.585 310.587 152.614 310.499C152.628 310.457 152.653 310.374 152.654 310.269C152.655 310.165 152.632 309.951 152.451 309.772L152.445 309.766C152.262 309.589 152.047 309.571 151.938 309.575C151.829 309.58 151.745 309.609 151.702 309.625C151.614 309.658 151.538 309.705 151.491 309.735C151.388 309.803 151.267 309.898 151.139 310.004C150.878 310.222 150.519 310.549 150.078 310.967C149.193 311.805 147.946 313.044 146.427 314.597C145.865 315.162 145.27 315.77 144.641 316.413C142.181 318.926 139.203 321.97 135.695 325.02C135.691 325.007 135.688 324.993 135.684 324.979C133.97 317.961 131.81 311.461 128.819 307.419C127.368 305.413 125.777 303.994 124.436 303.317Z" fill="black"/>
<path d="M103.673 319.874C103.477 320.005 105.857 323.847 109.507 329.357L110.458 330.796L110.486 329.045C110.525 326.529 111.226 323.661 112.085 320.621C113.457 315.31 114.73 310.521 116.693 307.577C118.584 304.602 120.539 303.389 120.39 303.207C120.349 303.145 119.841 303.395 119.006 303.988C118.182 304.592 117.069 305.608 115.992 307.106C113.735 310.094 112.292 315.035 110.929 320.313C110.079 323.339 109.371 326.336 109.413 329.061L110.392 328.751C106.584 323.353 103.865 319.738 103.673 319.874Z" fill="black"/>
<path fill-rule="evenodd" clip-rule="evenodd" d="M111.163 328.687C111.258 326.354 111.91 323.691 112.727 320.802L112.729 320.795L112.731 320.788C113.418 318.129 114.074 315.625 114.801 313.42C115.529 311.211 116.316 309.345 117.247 307.947L117.251 307.941L117.255 307.935C118.166 306.502 119.092 305.493 119.775 304.819C119.999 304.597 120.177 304.431 120.333 304.284C120.43 304.193 120.519 304.11 120.605 304.027C120.699 303.936 120.805 303.83 120.882 303.728C120.917 303.682 120.984 303.589 121.026 303.466C121.069 303.338 121.117 303.06 120.922 302.805C120.797 302.638 120.63 302.573 120.526 302.549C120.42 302.525 120.33 302.53 120.282 302.535C120.184 302.546 120.099 302.574 120.047 302.592C119.934 302.633 119.806 302.696 119.676 302.767C119.409 302.912 119.051 303.139 118.62 303.445L118.613 303.45C117.735 304.093 116.574 305.157 115.455 306.711C113.107 309.824 111.639 314.899 110.285 320.139C109.768 321.983 109.293 323.846 109.011 325.66C107.923 324.143 106.972 322.846 106.208 321.835C105.617 321.052 105.131 320.433 104.778 320.014C104.603 319.808 104.449 319.635 104.323 319.514C104.264 319.458 104.186 319.388 104.1 319.332C104.06 319.306 103.982 319.259 103.876 319.23C103.78 319.203 103.534 319.158 103.293 319.326C103.055 319.491 103.008 319.733 102.998 319.831C102.988 319.939 103.003 320.03 103.013 320.076C103.034 320.176 103.071 320.274 103.102 320.349C103.169 320.51 103.274 320.717 103.403 320.954C103.664 321.435 104.065 322.112 104.58 322.948C105.575 324.561 107.014 326.796 108.752 329.423L108.76 329.967L109.05 329.875L111.091 332.963L111.15 329.21L111.462 329.111L111.163 328.687ZM104.054 320.421C104.279 320.264 104.318 320.038 104.325 319.962C104.334 319.878 104.321 319.818 104.319 319.807C104.317 319.796 104.315 319.79 104.315 319.79C104.315 319.79 104.32 319.804 104.333 319.836C104.373 319.932 104.451 320.09 104.574 320.317C104.818 320.766 105.204 321.418 105.716 322.248C106.496 323.515 107.558 325.174 108.828 327.115" fill="black"/>
<path d="M115.527 387.668C115.858 387.689 117.336 368.91 118.827 345.731C120.319 322.542 121.263 303.733 120.932 303.71C120.601 303.689 119.126 322.466 117.632 345.652C116.141 368.834 115.199 387.648 115.527 387.668Z" fill="black"/>
<path fill-rule="evenodd" clip-rule="evenodd" d="M119.054 315.926C118.457 323.52 117.714 334.014 116.967 345.61L116.967 345.61C116.221 357.203 115.613 367.705 115.231 375.312C115.041 379.116 114.907 382.199 114.841 384.334C114.809 385.4 114.793 386.237 114.795 386.811C114.797 387.096 114.803 387.329 114.815 387.497C114.821 387.577 114.83 387.668 114.848 387.75C114.855 387.785 114.872 387.86 114.911 387.941C114.93 387.981 114.97 388.057 115.044 388.132C115.122 388.211 115.27 388.32 115.485 388.334L115.487 388.334C115.7 388.347 115.859 388.259 115.946 388.191C116.029 388.126 116.078 388.056 116.102 388.019C116.151 387.944 116.178 387.872 116.19 387.837C116.218 387.758 116.239 387.669 116.255 387.59C116.289 387.425 116.326 387.194 116.364 386.912C116.44 386.343 116.532 385.511 116.636 384.449C116.845 382.323 117.108 379.248 117.407 375.452C118.004 367.858 118.747 357.365 119.492 345.773C120.238 334.177 120.848 323.674 121.229 316.066C121.42 312.263 121.554 309.18 121.619 307.045C121.652 305.979 121.668 305.142 121.665 304.568C121.663 304.283 121.657 304.05 121.644 303.881C121.638 303.801 121.629 303.71 121.612 303.628C121.604 303.592 121.587 303.517 121.548 303.436C121.529 303.396 121.488 303.321 121.415 303.246C121.337 303.168 121.191 303.06 120.978 303.045L120.974 303.045L120.974 303.045C120.761 303.031 120.602 303.119 120.514 303.187C120.431 303.252 120.382 303.322 120.357 303.359C120.308 303.435 120.281 303.507 120.269 303.541C120.241 303.621 120.22 303.71 120.204 303.788C120.17 303.954 120.134 304.184 120.096 304.466C120.02 305.035 119.928 305.867 119.824 306.929C119.615 309.055 119.352 312.13 119.054 315.926Z" fill="black"/>
<path d="M173.437 209.636C173.722 209.778 174.724 207.251 173.709 204.243C172.726 201.226 170.413 199.799 170.268 200.081C170.039 200.346 171.731 201.979 172.575 204.619C173.476 207.242 173.094 209.563 173.437 209.636Z" fill="black"/>
<path d="M135.536 210.935C135.779 211.137 137.293 209.184 137.28 206.281C137.293 203.374 135.777 201.423 135.533 201.626C135.228 201.793 136.108 203.744 136.082 206.281C136.11 208.814 135.23 210.767 135.536 210.935Z" fill="black"/>
<defs>
<filter id="filter0_f_87_4" x="73" y="0" width="714" height="714" filterUnits="userSpaceOnUse" color-interpolation-filters="sRGB">
<feFlood flood-opacity="0" result="BackgroundImageFix"/>
<feBlend mode="normal" in="SourceGraphic" in2="BackgroundImageFix" result="shape"/>
<feGaussianBlur stdDeviation="88" result="effect1_foregroundBlur_87_4"/>
</filter>
</defs>
</svg>
